M48
INCH
T01C.005906
T02C.007874
T03C.011811
T04C.040157
T05C.073
T06C.047244
;LEADER: 12 
;HEADER: 
;CODE  : ASCII 
;FILE  : pcie-pcie_3-1-6.drl for  ... layers TOP and BOTTOM
;DESIGN: pcie-pcie_3.brd
;T01 Holesize 1. = 5.905512 Tolerance = +0.000000/-0.000000 PLATED MILS Quantity = 172
;T02 Holesize 2. = 7.874016 Tolerance = +0.000000/-0.000000 PLATED MILS Quantity = 867
;T03 Holesize 3. = 11.811024 Tolerance = +0.000000/-0.000000 PLATED MILS Quantity = 300
;T04 Holesize 4. = 40.157480 Tolerance = +0.000000/-0.000000 PLATED MILS Quantity = 10
;T05 Holesize 5. = 73.000000 Tolerance = +0.000000/-0.000000 PLATED MILS Quantity = 6
;T06 Holesize 6. = 47.244094 Tolerance = +0.000000/-0.000000 NON_PLATED MILS Quantity = 14
%
G90
T01
X0156071Y0443713
X0215169Y0380476
X0215087Y0384622
X0226841Y0427629
X0222904Y0432151
X0164434Y0419755
X0222904Y0443377
X0226841Y0447314
X0215030Y0443377
X0207156Y0443377
X0211093Y0443377
X0188056Y0443377
X0191993Y0443377
X0180182Y0443377
X0184119Y0443377
X0172308Y0443377
X0176245Y0443377
X0168371Y0443377
X0215030Y0431566
X0207156Y0431566
X0188056Y0431566
X0176245Y0431566
X0168371Y0431566
X0164434Y0431566
X0199282Y0423692
X0188056Y0423692
X0203219Y0419755
X0191993Y0419755
X0184119Y0419755
X0176245Y0419755
X0226841Y0408529
X0215030Y0412466
X0203219Y0408529
X0199282Y0412466
X0188056Y0412466
X0191993Y0408529
X0164434Y0412466
X0226841Y0400655
X0222904Y0400655
X0215030Y0400655
X0203219Y0400655
X0188056Y0404592
X0191993Y0400655
X0184119Y0404592
X0184119Y0400655
X0176245Y0400655
X0168371Y0400655
X0164434Y0396718
X0226841Y0388844
X0222904Y0388844
X0215030Y0388844
X0211093Y0388844
X0203219Y0388844
X0188056Y0388844
X0180182Y0388844
X0176245Y0388844
X0164434Y0384907
X0168371Y0388844
X0199282Y0431566
X0203219Y0435503
X0199282Y0435503
X0203219Y0439440
X0199282Y0439440
X0203219Y0443377
X0184119Y0427629
X0203219Y0447314
X0207156Y0419755
X0168371Y0404592
X0172308Y0412466
X0184119Y0388844
X0180182Y0419755
X0172308Y0388844
X0180182Y0408529
X0211093Y0419755
X0176245Y0412466
X0164434Y0400655
X0180182Y0412466
X0168371Y0423692
X0172308Y0408529
X0172308Y0423692
X0160035Y0423965
X0184119Y0412466
X0168371Y0408529
X0172308Y0419755
X0184119Y0408529
X0168371Y0419755
X0168371Y0412466
X0180182Y0404592
X0207156Y0388844
X0176245Y0408529
X0207156Y0400655
X0211093Y0431566
X0203219Y0431566
X0191993Y0431566
X0184119Y0431566
X0199282Y0427629
X0199282Y0400655
X0188056Y0400655
X0191993Y0404592
X0180182Y0400655
X0199282Y0443377
X0199282Y0388844
X0191993Y0388844
X0218967Y0412466
X0218967Y0431566
X0172308Y0431566
X0218967Y0400655
X0172308Y0400655
X0188056Y0396718
X0203219Y0423692
X0191993Y0423692
X0184119Y0423692
X0199282Y0419755
X0188056Y0419755
X0203219Y0412466
X0199282Y0408529
X0188056Y0408529
X0191993Y0412466
X0180182Y0435503
X0172308Y0439440
X0184119Y0435503
X0172308Y0435503
X0168371Y0392781
X0191993Y0392781
X0164434Y0439440
X0188056Y0392781
X0176245Y0439440
X0191993Y0396718
X0180182Y0392781
X0191993Y0435503
X0180182Y0396718
X0188056Y0439440
X0176245Y0396718
X0172308Y0392781
X0176245Y0435503
X0207156Y0408529
X0199282Y0404592
X0184119Y0396718
X0184119Y0392781
X0215030Y0408529
X0172308Y0404592
X0176245Y0392781
X0211093Y0396718
X0207156Y0404592
X0180182Y0427629
X0207156Y0392781
X0180182Y0439440
X0215030Y0404592
X0211093Y0408529
X0207156Y0396718
X0191993Y0439440
X0164434Y0435503
X0172308Y0396718
X0207156Y0384907
X0203219Y0404592
X0184119Y0439440
X0176245Y0404592
X0199282Y0392781
X0211093Y0392781
X0207156Y0380970
X0203219Y0396718
X0188056Y0435503
X0211093Y0404592
X0199282Y0396718
X0168371Y0435503
X0203219Y0392781
X0176245Y0427629
X0168371Y0427629
X0164434Y0427629
X0168371Y0439440
X0168371Y0396718
X0180182Y0431566
T02
X0207372Y0370531
X0238391Y0035788
X0204367Y0370531
X0235232Y0035788
X0289941Y0568398
X0292492Y0489949
X0286882Y0326768
X0351705Y0405335
X0283906Y0175811
X0283606Y0253366
X0329665Y0376980
X0205476Y0024980
X0045728Y0645311
X0351929Y0516437
X0345016Y0516839
X0318453Y0686165
X0351354Y0674087
X0319094Y0131134
X0345846Y0160126
X0345665Y0238705
X0334618Y0211449
X0319094Y0210181
X0297091Y0195016
X0322315Y0318854
X0346563Y0318677
X0321327Y0288681
X0333272Y0272067
X0291783Y0316252
X0297976Y0273413
X0326327Y0638445
X0351500Y0608252
X0346012Y0607118
X0332283Y0610677
X0318453Y0609685
X0310579Y0594752
X0296894Y0607890
X0318453Y0717094
X0307469Y0672382
X0264087Y0723618
X0265378Y0688720
X0258555Y0688807
X0260783Y0666551
X0263965Y0644465
X0260236Y0587622
X0262504Y0567480
X0254961Y0558949
X0261969Y0530748
X0260921Y0508780
X0330906Y0751748
X0319094Y0769752
X0299409Y0752311
X0308996Y0749776
X0260953Y0767555
X0260811Y0744972
X0264949Y0801551
X0261496Y0109374
X0264795Y0167224
X0267996Y0194799
X0264831Y0245102
X0261307Y0267169
X0351705Y0425205
X0324642Y0425177
X0319429Y0375846
X0367307Y0379717
X0376342Y0391743
X0102567Y0775079
X0094839Y0783039
X0042594Y0738913
X0026169Y0661398
X0038039Y0663229
X0082665Y0666488
X0070512Y0667024
X0061362Y0648461
X0056732Y0649110
X0034386Y0638126
X0061035Y0606224
X0061630Y0612976
X0061425Y0619768
X0061425Y0626551
X0080539Y0574528
X0080272Y0580386
X0062354Y0575142
X0062354Y0578795
X0099327Y0586264
X0092504Y0586256
X0070917Y0600484
X0034232Y0564528
X0027409Y0564516
X0153657Y0388705
X0144313Y0445656
X0136236Y0512906
X0136248Y0508783
X0136315Y0504657
X0106130Y0504791
X0110250Y0500652
X0104524Y0499197
X0104508Y0503193
X0104516Y0507209
X0105685Y0518161
X0077752Y0499039
X0077850Y0503031
X0077874Y0507024
X0073957Y0511811
X0130079Y0543161
X0072339Y0541969
X0064764Y0549643
X0133539Y0331504
X0129583Y0331587
X0124819Y0335843
X0135559Y0380575
X0137949Y0380567
X0141138Y0380004
X0130241Y0423024
X0107641Y0423162
X0054795Y0446614
X0103299Y0381031
X0100016Y0380390
X0096846Y0377913
X0052752Y0421913
X0133559Y0303602
X0129567Y0303524
X0133803Y0298457
X0129835Y0298484
X0118722Y0304376
X0118783Y0299898
X0124406Y0251882
X0120850Y0277134
X0034378Y0325811
X0038488Y0355224
X0038508Y0358413
X0062976Y0323539
X0035138Y0304362
X0062890Y0175504
X0060524Y0180453
X0058390Y0184161
X0058406Y0196004
X0093866Y0234654
X0083819Y0236421
X0072102Y0236933
X0068768Y0217709
X0057189Y0218079
X0044043Y0211858
X0034098Y0203059
X0032524Y0233583
X0040535Y0234559
X0093933Y0136248
X0069114Y0119748
X0057441Y0120142
X0086740Y0138598
X0076386Y0138390
X0043165Y0114665
X0035724Y0135484
X0028902Y0135531
X0090618Y0434567
X0067535Y0452535
X0152224Y0452524
X0048695Y0504802
X0051559Y0505886
X0049579Y0509047
X0047047Y0472543
X0049453Y0473902
X0051441Y0477059
X0051502Y0481298
X0092366Y0664043
X0067571Y0402476
X0063055Y0499760
X0199409Y0046205
X0288657Y0804437
X0293634Y0725323
X0287965Y0646299
X0289732Y0487610
X0317705Y0752673
X0317705Y0674571
X0211220Y0022048
X0057307Y0402783
X0347921Y0590795
X0319287Y0516028
X0318996Y0274882
X0219094Y0022067
X0209453Y0354839
X0357701Y0371953
X0318220Y0196453
X0235232Y0441469
X0157350Y0457799
X0318783Y0117327
X0237606Y0445575
X0111720Y0431709
X0070115Y0425756
X0060453Y0499862
X0195472Y0046303
X0065008Y0402638
X0059661Y0402724
X0062433Y0402689
X0132106Y0431642
X0140898Y0431642
X0136250Y0397341
X0053028Y0324972
X0151882Y0412837
X0129878Y0436415
X0062435Y0436415
X0149591Y0414984
X0159394Y0390854
X0108697Y0186815
R04X-0003937
X0108697Y0182878
R04X-0003937
X0108697Y0178941
R04X-0003937
X0108697Y0175004
R04X-0003937
X0067555Y0425744
X0047925Y0324972
X0146760Y0415142
X0159492Y0393224
X0135841Y0405021
X0059866Y0425870
X0064949Y0425807
X0135543Y0410141
X0057315Y0436193
X0148886Y0407508
X0144075Y0396224
X0149496Y0372008
X0146732Y0411027
X0228587Y0766902
X0116783Y0425476
X0067980Y0348740
X0228185Y0544850
X0123197Y0422980
X0136208Y0399901
X0075146Y0414469
X0207201Y0357713
X0159622Y0380280
X0208142Y0375402
X0138961Y0406079
X0228319Y0688906
X0118965Y0423248
X0113756Y0399882
X0146803Y0363425
X0156772Y0217075
X0205350Y0217075
X0134689Y0559555
R03Y-0003937
X0098260Y0493815
R04X-0003937
X0091047Y0508850
R03Y-0003937
X0208157Y0138008
X0155209Y0138008
X0145043Y0361524
X0113888Y0397341
X0135425Y0283776
R03X-0003937
X0135425Y0279839
R03X-0003937
X0203016Y0297051
X0160165Y0297051
X0148630Y0365339
X0113504Y0402461
X0128244Y0270673
R03Y-0003937
X0145370Y0319217
R02X-0003937
X0145370Y0315280
R02X-0003937
X0145370Y0311343
R02X-0003937
X0120665Y0513681
R03Y-0003937
X0129220Y0498031
R03X-0003937
X0225358Y0622157
X0121102Y0425295
X0303094Y0611566
X0229370Y0492824
X0323421Y0291680
X0306893Y0133953
X0306894Y0212940
X0325938Y0691098
X0303737Y0133953
X0306894Y0769602
X0323420Y0132822
X0326579Y0132822
X0303094Y0691098
X0322779Y0611566
X0302322Y0649688
X0303736Y0512225
X0303044Y0572649
X0303036Y0809705
X0323421Y0212940
X0303736Y0291680
X0322779Y0691098
X0302998Y0327966
X0299163Y0649688
X0299885Y0249850
X0299878Y0809705
X0306253Y0611566
X0302298Y0730120
X0303000Y0249850
X0299885Y0572649
X0299994Y0327966
X0306253Y0691098
X0229370Y0495982
X0303062Y0172915
X0299139Y0730120
X0326580Y0291680
X0299976Y0172915
X0323420Y0769602
X0306894Y0512225
X0306894Y0291680
X0326580Y0212940
X0326579Y0769602
X0325938Y0611566
X0303736Y0769602
X0303736Y0212940
X0113445Y0124091
X0113445Y0117370
X0113445Y0110583
X0113374Y0103728
X0064343Y0098244
X0064413Y0091449
X0064413Y0084661
X0064413Y0077807
X0274213Y0024902
X0263134Y0025012
X0254528Y0024902
X0243421Y0025146
X0230906Y0024902
X0191535Y0024902
X0179724Y0024902
X0360827Y0024902
X0364764Y0024902
X0376575Y0024902
X0384449Y0024902
X0400197Y0024902
X0396260Y0024902
X0412008Y0024902
X0415945Y0024902
X0427756Y0024902
X0431693Y0024902
X0443504Y0024902
X0447441Y0024902
X0459252Y0024902
X0463189Y0024902
X0475000Y0024902
X0478937Y0024902
X0490748Y0024902
X0494685Y0024902
X0506496Y0024902
X0349016Y0024902
X0345079Y0024902
X0333268Y0024902
X0329331Y0024902
R03X-0011811
X0289961Y0024902
X0278150Y0024902
X0315169Y0114000
X0139224Y0783063
X0130417Y0777909
X0130417Y0773949
X0113240Y0218909
X0113307Y0211984
X0113378Y0205126
X0113378Y0198205
X0111772Y0651705
X0111843Y0644780
X0111843Y0637992
X0111843Y0631169
X0133357Y0564671
X0087550Y0391492
X0087594Y0387421
X0087558Y0383413
X0087539Y0379295
X0087558Y0375201
X0087517Y0398772
X0093940Y0456878
X0093940Y0452571
X0093940Y0448303
X0094027Y0444035
X0094027Y0439728
X0264764Y0321701
X0315189Y0192780
X0315134Y0271551
X0492323Y0157291
X0488386Y0118299
X0484449Y0118299
X0500197Y0118299
X0504134Y0118299
X0519882Y0118299
X0515945Y0118299
X0531693Y0118299
X0535630Y0118299
X0547441Y0118299
X0551378Y0118299
X0563189Y0118299
X0472638Y0118299
X0468701Y0118299
X0456890Y0118299
X0452953Y0118299
X0441142Y0118299
X0433268Y0118299
X0421457Y0118299
X0417520Y0118299
X0405709Y0118299
X0401772Y0118299
X0389961Y0118299
X0386024Y0118299
R02X-0011811
X0311220Y0118299
X0299409Y0118299
X0350591Y0118299
X0346654Y0118299
X0334843Y0118299
X0330906Y0118299
X0267913Y0128945
X0256102Y0128945
X0571063Y0157291
X0559252Y0157291
X0555315Y0157291
X0543504Y0157291
X0539567Y0157291
X0527756Y0157291
X0523819Y0157291
X0512008Y0157291
X0508071Y0157291
X0496260Y0157291
X0480512Y0157291
X0476575Y0157291
X0464764Y0157291
X0460827Y0157291
X0449016Y0157291
X0441142Y0157291
X0429331Y0157291
X0425394Y0157291
X0413583Y0157291
X0409646Y0157291
X0397835Y0157291
X0393898Y0157291
X0382087Y0157291
R02X-0011811
X0354528Y0157291
X0338780Y0157291
X0326969Y0157291
X0319094Y0157291
X0307283Y0157291
X0295472Y0157291
X0256102Y0157291
X0244291Y0157291
X0307283Y0236031
X0496260Y0236031
X0492323Y0236031
X0500197Y0197039
X0504134Y0197039
X0515945Y0197039
X0519882Y0197039
X0535630Y0197039
X0531693Y0197039
X0551378Y0197039
X0547441Y0197039
X0563189Y0197039
X0488386Y0197039
X0484449Y0197039
X0472638Y0197039
X0468701Y0197039
X0456890Y0197039
X0452953Y0197039
X0441142Y0197039
X0433268Y0197039
X0421457Y0197039
X0417520Y0197039
X0405709Y0197039
X0401772Y0197039
X0389961Y0197039
X0386024Y0197039
R03X-0011811
X0346654Y0197039
X0334843Y0197039
X0311220Y0197039
X0267913Y0207685
X0256102Y0207685
X0571063Y0236031
X0559252Y0236031
X0555315Y0236031
X0543504Y0236031
X0539567Y0236031
X0527756Y0236031
X0523819Y0236031
X0512008Y0236031
X0508071Y0236031
X0480512Y0236031
X0476575Y0236031
X0464764Y0236031
X0460827Y0236031
X0449016Y0236031
X0441142Y0236031
X0429331Y0236031
X0425394Y0236031
X0413583Y0236031
X0409646Y0236031
X0397835Y0236031
X0393898Y0236031
R02X-0011811
X0256102Y0236031
X0244291Y0236031
X0295472Y0236031
X0319094Y0236031
X0326969Y0236031
X0338780Y0236031
X0358465Y0236031
X0354528Y0236031
X0496260Y0314772
X0492323Y0314772
X0535630Y0275780
X0531693Y0275780
X0551378Y0275780
X0547441Y0275780
X0563189Y0275780
X0519882Y0275780
X0515945Y0275780
X0504134Y0275780
X0500197Y0275780
X0488386Y0275780
X0484449Y0275780
X0472638Y0275780
X0468701Y0275780
X0456890Y0275780
X0452953Y0275780
X0441142Y0275780
X0433268Y0275780
X0421457Y0275780
X0417520Y0275780
X0405709Y0275780
X0401772Y0275780
X0389961Y0275780
X0386024Y0275780
R03X-0011811
X0346654Y0275780
X0334843Y0275780
X0311220Y0275780
X0267913Y0286425
X0256102Y0286425
X0571063Y0314772
X0559252Y0314772
X0555315Y0314772
X0543504Y0314772
X0539567Y0314772
X0527756Y0314772
X0523819Y0314772
X0512008Y0314772
X0508071Y0314772
X0480512Y0314772
X0476575Y0314772
X0464764Y0314772
X0460827Y0314772
X0449016Y0314772
X0441142Y0314772
X0429331Y0314772
X0425394Y0314772
X0413583Y0314772
X0409646Y0314772
X0397835Y0314772
X0393898Y0314772
R03X-0011811
X0354528Y0314772
X0338780Y0314772
X0326969Y0314772
X0307283Y0314772
X0256102Y0314772
X0244291Y0314772
X0515945Y0517480
X0519882Y0517480
X0531693Y0517480
X0535630Y0517480
X0547441Y0517480
X0551378Y0517480
X0563189Y0517480
X0500197Y0517480
X0504134Y0517480
X0484449Y0517480
X0488386Y0517480
X0452953Y0517480
X0456890Y0517480
X0468701Y0517480
X0472638Y0517480
X0417520Y0517480
X0421457Y0517480
X0433268Y0517480
X0441142Y0517480
X0386024Y0517480
X0389961Y0517480
X0401772Y0517480
X0405709Y0517480
X0374213Y0517480
X0362402Y0517480
X0334843Y0517480
X0330906Y0517480
X0299409Y0517480
X0295472Y0545827
X0311220Y0528126
X0319094Y0528126
X0559252Y0556472
X0555315Y0556472
X0571063Y0556472
X0543504Y0556472
X0539567Y0556472
X0527756Y0556472
X0523819Y0556472
X0512008Y0556472
X0508071Y0556472
X0496260Y0556472
X0492323Y0556472
X0476575Y0556472
X0480512Y0556472
X0464764Y0556472
X0460827Y0556472
X0449016Y0556472
X0441142Y0556472
X0429331Y0556472
X0425394Y0556472
X0413583Y0556472
X0307283Y0556472
X0409646Y0556472
X0397835Y0556472
X0393898Y0556472
X0382087Y0556472
R02X-0011811
X0354528Y0556472
X0342717Y0556472
X0338780Y0556472
X0326969Y0556472
X0319094Y0556472
X0244291Y0556472
X0267913Y0528126
X0416878Y0595665
X0420815Y0595665
X0432626Y0595665
X0440500Y0595665
X0456248Y0595665
X0452311Y0595665
X0468059Y0595665
X0471996Y0595665
X0483807Y0595665
X0487744Y0595665
X0499555Y0595665
X0503492Y0595665
X0515303Y0595665
X0519240Y0595665
X0531051Y0595665
X0534988Y0595665
X0546799Y0595665
X0550736Y0595665
X0562547Y0595665
X0401130Y0595665
X0405067Y0595665
X0389319Y0595665
X0385382Y0595665
R02X-0011811
X0558610Y0634657
X0554673Y0634657
X0570421Y0634657
X0542862Y0634657
X0538925Y0634657
X0527114Y0634657
X0523177Y0634657
X0511366Y0634657
X0507429Y0634657
X0495618Y0634657
X0491681Y0634657
X0479870Y0634657
X0475933Y0634657
X0464122Y0634657
X0460185Y0634657
X0448374Y0634657
X0440500Y0634657
X0428689Y0634657
X0424752Y0634657
X0412941Y0634657
X0409004Y0634657
X0397193Y0634657
X0393256Y0634657
R03X-0011811
X0353886Y0634657
X0342075Y0634657
X0338138Y0634657
X0318453Y0634657
X0306642Y0634657
X0294831Y0634657
X0334201Y0606311
X0267272Y0606311
X0255461Y0606311
X0255461Y0634657
X0243650Y0634657
X0503492Y0675197
X0499555Y0675197
X0515303Y0675197
X0519240Y0675197
X0531051Y0675197
X0534988Y0675197
X0550736Y0675197
X0546799Y0675197
X0562547Y0675197
X0298768Y0675197
X0483807Y0675197
X0487744Y0675197
X0468059Y0675197
X0471996Y0675197
X0456248Y0675197
X0452311Y0675197
X0440500Y0675197
X0432626Y0675197
X0420815Y0675197
X0416878Y0675197
X0405067Y0675197
X0401130Y0675197
X0385382Y0675197
X0389319Y0675197
X0373571Y0675197
X0361760Y0675197
X0346012Y0675197
X0334201Y0675197
X0330264Y0675197
X0570421Y0714189
X0558610Y0714189
X0554673Y0714189
X0542862Y0714189
X0538925Y0714189
X0527114Y0714189
X0523177Y0714189
X0511366Y0714189
X0507429Y0714189
X0495618Y0714189
X0491681Y0714189
X0479870Y0714189
X0475933Y0714189
X0464122Y0714189
X0460185Y0714189
X0448374Y0714189
X0440500Y0714189
X0428689Y0714189
X0424752Y0714189
X0412941Y0714189
X0409004Y0714189
X0306642Y0714189
X0294831Y0714189
X0397193Y0714189
X0393256Y0714189
R03X-0011811
X0353886Y0714189
X0342075Y0714189
X0338138Y0714189
X0326327Y0714189
X0255461Y0714189
X0243650Y0714189
X0563189Y0753701
X0551378Y0753701
X0547441Y0753701
X0535630Y0753701
X0531693Y0753701
X0519882Y0753701
X0515945Y0753701
X0504134Y0753701
X0500197Y0753701
X0488386Y0753701
X0484449Y0753701
X0472638Y0753701
X0468701Y0753701
X0456890Y0753701
X0452953Y0753701
X0441142Y0753701
X0433268Y0753701
X0417520Y0753701
X0421457Y0753701
X0405709Y0753701
X0401772Y0753701
X0389961Y0753701
X0386024Y0753701
R03X-0011811
X0346654Y0753701
X0334843Y0753701
X0449016Y0792693
X0441142Y0792693
X0429331Y0792693
X0425394Y0792693
X0413583Y0792693
X0409646Y0792693
X0397835Y0792693
X0393898Y0792693
X0382087Y0792693
R02X-0011811
X0354528Y0792693
X0342717Y0792693
X0338780Y0792693
X0326969Y0792693
X0319094Y0792693
R02X-0011811
X0464764Y0792693
X0460827Y0792693
X0480512Y0792693
X0476575Y0792693
X0492323Y0792693
X0496260Y0792693
X0508071Y0792693
X0512008Y0792693
X0523819Y0792693
X0527756Y0792693
X0543504Y0792693
X0539567Y0792693
X0555315Y0792693
X0559252Y0792693
X0571063Y0792693
X0267913Y0764346
X0256102Y0792693
X0244291Y0792693
X0612720Y0398835
X0612720Y0436252
T03
X0183031Y0009268
X0209264Y0010012
X0215157Y0015611
X0076421Y0589217
X0084772Y0589461
X0096551Y0557063
X0092614Y0557063
X0096551Y0553126
X0092614Y0553126
X0096551Y0549189
X0092614Y0549189
X0061268Y0311535
R02X-0003937
X0061268Y0307598
R02X-0003937
X0061268Y0303661
R02X-0003937
X0061268Y0299724
R02X-0003937
X0242169Y0115886
X0242665Y0194799
X0248307Y0267972
X0247236Y0587957
X0247921Y0508799
X0247783Y0667689
X0247811Y0745343
X0064318Y0593000
X0070366Y0823138
R09X-0003937
X0070366Y0819201
R09X-0003937
X0070366Y0815264
R09X-0003937
X0070366Y0811327
R09X-0003937
X0070366Y0807390
R09X-0003937
X0070366Y0803453
R09X-0003937
X0070366Y0799516
R09X-0003937
X0070366Y0795579
R09X-0003937
X0070366Y0791642
R09X-0003937
X0070366Y0787705
R09X-0003937
X0056138Y0541189
R08X-0003937
X0056138Y0537252
R08X-0003937
X0056138Y0533315
R08X-0003937
X0056138Y0529378
R08X-0003937
X0056138Y0525441
R08X-0003937
X0056138Y0521504
R08X-0003937
X0056138Y0517567
R08X-0003937
X0153709Y0394768
X0151902Y0380280
X0318051Y0748772
X0317598Y0670043
X0317831Y0593520
X0311697Y0516642
X0141524Y0411098
X0139039Y0392205
X0153630Y0385201
X0041713Y0225370
X0039484Y0214209
X0050146Y0361504
X0052976Y0357272
X0048661Y0316138
X0052976Y0317524
X0057976Y0321165
X0081252Y0456878
X0081567Y0452571
X0081756Y0448303
X0081626Y0444035
X0085441Y0435429
X0072480Y0440405
X0070433Y0446638
X0071641Y0443586
X0067516Y0443587
X0062413Y0443882
X0059894Y0446752
X0057331Y0443858
X0147370Y0443705
X0147358Y0447634
X0061772Y0473902
X0041835Y0126941
X0277795Y0166705
X0277831Y0244602
X0277764Y0322303
X0278220Y0564469
X0036154Y0116496
X0093854Y0093173
X0089917Y0093173
X0093854Y0089236
X0089917Y0089236
X0093854Y0085299
X0089917Y0085299
X0093854Y0081362
X0089917Y0081362
X0093854Y0077425
X0089917Y0077425
X0119823Y0374496
X0034657Y0645150
X0040335Y0656031
X0061308Y0512496
X0276965Y0643547
X0277087Y0723504
X0277949Y0801528
X0215185Y0302622
X0218949Y0222839
X0224614Y0139323
X0218276Y0534705
X0215283Y0612894
X0218465Y0692862
X0217457Y0771016
X0373457Y0414063
X0329681Y0406059
X0335539Y0409587
X0339425Y0417236
X0333697Y0384933
X0329665Y0391319
X0325815Y0393531
X0368748Y0386094
X0352531Y0389953
X0350598Y0386102
X0363122Y0415504
X0362094Y0409756
X0356701Y0406587
X0093335Y0388213
X0096846Y0391496
X0072831Y0397429
X0067602Y0394902
X0066813Y0391632
X0054650Y0390496
X0054673Y0394319
X0054705Y0397465
X0075953Y0383413
X0075705Y0387421
X0074909Y0391492
X0067563Y0386299
X0075240Y0379295
X0075213Y0375201
X0152772Y0423488
X0152776Y0427488
X0152902Y0431870
X0152587Y0440335
X0152327Y0455193
X0236421Y0374134
X0248535Y0382634
X0238882Y0394492
X0092618Y0621555
X0088681Y0621555
X0092618Y0617618
X0088681Y0617618
X0092618Y0613681
X0088681Y0613681
X0092618Y0609744
X0088681Y0609744
X0092618Y0605807
X0088681Y0605807
T04
X0031862Y0335634
X0031862Y0345634
X0034594Y0499638
R02Y-0010000
X0034433Y0434504
R04Y-0010000
T05
X0136031Y0823197
R02X-0016535
X0136031Y0839733
R02X-0016535
T06
X0290157Y0137795
X0578150Y0137795
X0290157Y0216535
X0578150Y0216535
X0290157Y0295276
X0578150Y0295276
X0290157Y0536976
X0578150Y0536976
X0289516Y0615161
X0577508Y0615161
X0289516Y0694693
X0577508Y0694693
X0290157Y0773197
X0578150Y0773197
M30
