G04 ================== begin FILE IDENTIFICATION RECORD ==================*
G04 Layout Name:  pcie-pcie_3.brd*
G04 Film Name:    PWR1L*
G04 File Format:  Gerber RS274X*
G04 File Origin:  Cadence Allegro 25.1-S010*
G04 Origin Date:  Mon May 11 22:08:53 2026*
G04 *
G04 Layer:  VIA CLASS/PWR_1*
G04 Layer:  PIN/PWR_1*
G04 Layer:  ETCH/PWR_1*
G04 *
G04 Offset:    (0.0000 0.0000)*
G04 Mirror:    No*
G04 Mode:      Positive*
G04 Rotation:  0*
G04 FullContactRelief:  No*
G04 UndefLineWidth:     0.1000*
G04 ================== end FILE IDENTIFICATION RECORD ====================*
%FSLAX25Y25*MOMM*%
%IR0*IPPOS*OFA0.00000B0.00000*MIA0B0*SFA1.00000B1.00000*%
%ADD12C,.6*%
%ADD11C,.7*%
%ADD15C,.35*%
%ADD10C,.45*%
%ADD16C,1.2*%
%ADD13C,1.37*%
%ADD14C,2.3622*%
%ADD17C,.12*%
%ADD18C,.3*%
%ADD19C,.127*%
%ADD20C,.1372*%
%ADD21C,.7044*%
G75*
%LPD*%
G75*
G36*
G01X1839800Y15146300D02*
X2671200D01*
X2834900Y14982600D01*
Y13860300D01*
X2805300Y13830700D01*
X2061600D01*
X1822100Y14070200D01*
Y15128600D01*
X1839800Y15146300D01*
G37*
G36*
G01X4532400Y290400D02*
X4552300Y310300D01*
X4759800D01*
X4797600Y272500D01*
Y-113000D01*
X4796500Y-114100D01*
X4532400D01*
Y290400D01*
G37*
G36*
G01X5230400Y254200D02*
X5274400Y298200D01*
X5465300D01*
X5498800Y264700D01*
Y-106500D01*
X5494600Y-110700D01*
X5230400D01*
Y254200D01*
G37*
G36*
G01X5349700Y497700D02*
X5563300D01*
X5580300Y480700D01*
Y323800D01*
X5374900D01*
X5340400Y358300D01*
Y488400D01*
X5349700Y497700D01*
G37*
%LPC*%
G75*
G54D21*
X2045700Y14593000D03*
X2038900Y14741800D03*
X2349600Y14890900D03*
X2522900Y14891100D03*
%LPD*%
G75*
G54D10*
X734100Y3442500D03*
X696200Y14338700D03*
X664700Y16799500D03*
X907400Y3441300D03*
X866100Y5157700D03*
X826100Y5933000D03*
X892500Y7730800D03*
X873200Y8275600D03*
X869500Y14339000D03*
X873400Y16208400D03*
X1096400Y2912500D03*
X1118700Y5381200D03*
X1029600Y5957800D03*
X977600Y9022700D03*
X978100Y9103700D03*
X1161500Y16390900D03*
X966190Y16846010D03*
X1081900Y18768400D03*
X1217300Y8254300D03*
X1346900D03*
X1339900Y10716600D03*
X1195000Y12002600D03*
X1308140Y12224960D03*
X1306600Y12117300D03*
X1256100Y12037100D03*
X1309600Y12849500D03*
X1236860Y12821960D03*
X1259300Y12929800D03*
X1459000Y3051600D03*
X1537300Y4583500D03*
X1483100Y4677700D03*
X1483500Y4978500D03*
X1452600Y5539200D03*
X1585800Y10228300D03*
X1515400Y10229200D03*
X1455600Y10230700D03*
X1520600Y10817100D03*
X1455790Y11079290D03*
X1585840Y11084940D03*
X1391800Y11344000D03*
X1535500Y12696500D03*
X1583800Y14701400D03*
Y14608600D03*
X1550300Y15398100D03*
X1565400Y15569600D03*
X1560200Y15742100D03*
Y15914400D03*
X1558600Y16470900D03*
X1441000Y16487400D03*
X1636100Y1976300D03*
Y2150400D03*
Y2322800D03*
X1634300Y2495400D03*
X1755500Y3041600D03*
X1597400Y4457800D03*
X1746700Y5529800D03*
X1599600Y8217900D03*
X1726700Y8858000D03*
X1651200Y10227000D03*
X1716300Y10222900D03*
X1649700Y10815500D03*
X1715890Y10813900D03*
X1780910Y10814210D03*
X1715400Y11494400D03*
X1601600Y12693900D03*
X1645000Y13960920D03*
X1791000Y16942400D03*
X1940200Y3515100D03*
X1831400Y6018100D03*
X1908700Y10527500D03*
X1977400Y12777000D03*
X1974900Y12675600D03*
X1878500Y13000000D03*
X1978000Y12878400D03*
X1837400Y13766000D03*
X1801300Y15252300D03*
X2203200Y3520400D03*
X2129000Y6005100D03*
X2223980Y9530100D03*
X2223480Y9634100D03*
X2223980Y9738700D03*
X2224880Y9840500D03*
X2223780Y9943900D03*
X2222940Y10128800D03*
X2095800Y12542900D03*
X2195800D03*
X2038900Y14741800D03*
X2045700Y14593000D03*
X2099700Y16928800D03*
X2385900Y3460700D03*
X2360900Y4445100D03*
Y4545100D03*
Y4645100D03*
Y4745100D03*
X2384200Y5960200D03*
X2301700Y11038000D03*
X2388280Y11169100D03*
X2386080Y11386900D03*
X2388280Y11278500D03*
X2386080Y11495300D03*
Y11604700D03*
X2312600Y12624800D03*
X2295800Y12542900D03*
X2395800D03*
X2312600Y12724800D03*
Y12824800D03*
Y12924800D03*
X2349600Y14890900D03*
X2346100Y16866700D03*
X2408900Y19889200D03*
X2460900Y4445100D03*
X2560900D03*
X2460900Y4545100D03*
X2560900D03*
X2460900Y4645100D03*
X2560900D03*
X2460900Y4745100D03*
X2560900D03*
X2459900Y9599000D03*
X2540400Y9661900D03*
X2623800Y9678200D03*
X2495800Y12542900D03*
X2522900Y14891100D03*
X2605200Y19687000D03*
X2660900Y4445100D03*
X2760900D03*
X2660900Y4545100D03*
X2760900D03*
X2660900Y4645100D03*
X2760900D03*
X2660900Y4745100D03*
X2760900D03*
X2734080Y10748320D03*
X2837700Y10965400D03*
X2654500Y12781100D03*
X2654900Y12679600D03*
X2800360Y12716560D03*
X2695700Y12821700D03*
X2654700Y12883100D03*
X2684400Y13161300D03*
X2840800Y16031700D03*
Y16205000D03*
Y16377400D03*
X2839000Y16553300D03*
X2879700Y2634700D03*
X2881500Y2808800D03*
Y2981200D03*
Y3151900D03*
X2879800Y5210200D03*
Y5034400D03*
X2878000Y5384400D03*
X2876300Y5560300D03*
X3069600Y7039200D03*
X3017100Y7617400D03*
X3015540Y7731140D03*
X2892760Y10092460D03*
X2883010Y10222510D03*
X2889400Y10157000D03*
X3021700Y10750500D03*
X2966300Y10807100D03*
X2982200Y12650000D03*
X3064900Y12747500D03*
Y12847500D03*
Y12947500D03*
Y13047500D03*
X3159900Y6397800D03*
X3257400Y6575100D03*
Y6675100D03*
Y6775100D03*
Y6875100D03*
X3139800Y7107900D03*
X3239800D03*
X3139800Y7207900D03*
X3239800D03*
X3170400Y8530400D03*
X3129200Y10743700D03*
X3076000Y10802500D03*
X3082200Y12650000D03*
X3182200D03*
X3282200D03*
X3339800Y7107900D03*
X3439800D03*
X3339800Y7207900D03*
X3439800D03*
X3297800Y7581500D03*
X3398600Y7580800D03*
X3291000Y7709500D03*
X3392400Y7711500D03*
X3492400Y7908100D03*
Y8008100D03*
Y8108100D03*
X3391900Y8420200D03*
X3291400Y8422300D03*
X3443200Y9666600D03*
X3460760Y10092460D03*
X3459690Y10157490D03*
X3450360Y10287540D03*
X3442800Y10417580D03*
X3308120Y10744820D03*
X3355500Y10963700D03*
X3298900Y11084940D03*
X3462400Y12818300D03*
X3460700Y12923100D03*
X3460400Y13027800D03*
X3421100Y13912700D03*
X3304000Y13796300D03*
X3421100Y14012700D03*
Y14112700D03*
Y14212700D03*
X3387260Y14342640D03*
X3312580Y19658300D03*
Y19758900D03*
X3592400Y7908100D03*
X3692400D03*
X3592400Y8008100D03*
X3692400D03*
X3592400Y8108100D03*
X3692400D03*
X3684100Y9182700D03*
X3584900Y9652100D03*
X3503900Y9666400D03*
X3659500Y10064100D03*
X3529600Y10314400D03*
X3578800Y10963700D03*
X3665560Y11319660D03*
X3536300Y19889800D03*
X3728800Y9231000D03*
X3775200Y9279600D03*
X3797200Y9449000D03*
X3902900Y9873100D03*
X3727000Y10440080D03*
X3781700Y10350700D03*
X3799600Y10540600D03*
X3857800Y10486050D03*
X3727700Y10544600D03*
X3866500Y11494100D03*
X3942300Y3505400D03*
X3982000Y5513700D03*
X4068200Y7545100D03*
X4054400Y9659100D03*
X4051100Y9987900D03*
X4048600Y9927700D03*
X3996700Y11628100D03*
X4564990Y632500D03*
X4864990Y632510D03*
X4964990Y1176100D03*
X5064990Y1173600D03*
X5156600Y7545100D03*
X5190930Y9411500D03*
X5364990Y560010D03*
X5219100Y634500D03*
X5287200Y3505400D03*
X5215900Y5513700D03*
X5320100Y9012900D03*
X5262900Y9085900D03*
X5267250Y9411500D03*
X5286800Y9535200D03*
X5564990Y560510D03*
X5826000Y12597950D03*
Y12517720D03*
X5795900Y13839200D03*
X5724100Y15802800D03*
X5799300Y17498200D03*
X5806100Y19479300D03*
X5865010Y632510D03*
X5974890Y909020D03*
X6035200Y11317600D03*
X5974900Y11213300D03*
X6182900Y638700D03*
X6055120Y909020D03*
X6205000Y3995200D03*
Y5995200D03*
Y7995200D03*
Y14134400D03*
X6188700Y16120300D03*
Y18140400D03*
X6205000Y20134400D03*
X6465010Y632510D03*
X6642000Y2778100D03*
X6505000Y3275200D03*
Y3995200D03*
Y5275200D03*
Y5995200D03*
X6637200Y6786100D03*
X6505000Y7275200D03*
Y7995200D03*
X6627400Y12923000D03*
X6654000Y13481000D03*
X6476000Y14197300D03*
X6667600Y14414000D03*
X6610000Y14925600D03*
X6488700Y15400300D03*
Y16120300D03*
X6623900Y16930400D03*
X6567300Y17495700D03*
X6488700Y18140400D03*
X6624600Y18922300D03*
X6628200Y19495900D03*
X6505000Y20134400D03*
X6683600Y635300D03*
X6805000Y3275200D03*
X6725800Y4247500D03*
X6807100Y4947900D03*
X6805000Y5275200D03*
X6726700Y6225600D03*
X6805000Y7275200D03*
X6725000Y8171200D03*
X6805000Y13414400D03*
X6788700Y15400300D03*
X6704700Y16369400D03*
X6740600Y17493500D03*
X6707800Y18379900D03*
X6805000Y19414400D03*
X6729700Y20359400D03*
X7065010Y632510D03*
X6965010D03*
X7211200Y4465600D03*
X7203600Y6435500D03*
X7286800Y8299900D03*
X7314300Y16416000D03*
X7365010Y632510D03*
X7465010D03*
X7505000Y3995200D03*
Y5995200D03*
X7411300Y8032800D03*
X7359200Y12385300D03*
X7429300Y12444700D03*
X7505000Y13864000D03*
X7364500Y14437300D03*
X7488700Y16120300D03*
Y18140400D03*
X7458300Y18423200D03*
X7505000Y20134400D03*
X7331900Y20432700D03*
X7605000Y3004800D03*
X7714920Y3402400D03*
X7619400Y4392040D03*
X7697770D03*
X7546100Y4953400D03*
X7714890Y5408680D03*
X7696200Y6346200D03*
X7617070D03*
X7568600Y6944700D03*
X7714890Y7408680D03*
X7619840Y8330330D03*
X7696160D03*
X7714890Y13010520D03*
X7605000Y13144000D03*
X7617080Y14545290D03*
X7697310D03*
X7698590Y15533780D03*
X7541100Y15440400D03*
X7598750Y16502080D03*
X7678980D03*
X7588700Y17150000D03*
X7698590Y17553880D03*
X7598140Y18545050D03*
X7678370D03*
X7605000Y19108700D03*
X7714890Y19547880D03*
X7616890Y20566500D03*
X7697120D03*
X7765010Y632510D03*
X7905000Y3004800D03*
X7795070Y3402400D03*
X7805000Y3995200D03*
X7905000Y5004800D03*
X7795120Y5408680D03*
X7805000Y5995200D03*
X7905000Y7004800D03*
X7795120Y7408680D03*
X7805000Y7995200D03*
X7795120Y13010520D03*
X7905000Y13414400D03*
X7805000Y14134400D03*
X7888700Y15106700D03*
X7778820Y15533780D03*
X7788700Y16120300D03*
X7809700Y17078500D03*
X7778820Y17553880D03*
X7788700Y18140400D03*
X7848500Y19044300D03*
X7795120Y19547880D03*
X7805000Y20134400D03*
X8065010Y632510D03*
X8005300Y2895600D03*
X8097100Y2980100D03*
X8105000Y3330800D03*
Y3995200D03*
X8005800Y4896600D03*
X8082800Y4989900D03*
X8105000Y5338600D03*
Y5995200D03*
X8004400Y6897400D03*
X8102500Y6982000D03*
X8161700Y7332500D03*
X8113500Y9546500D03*
X8109900Y13107100D03*
X8105000Y13414400D03*
Y14134400D03*
X8088700Y15486000D03*
Y16120300D03*
X8069700Y17134100D03*
X8088700Y17428600D03*
Y18214200D03*
X8069700Y19117900D03*
X8105000Y19551700D03*
Y20134400D03*
X8365010Y632510D03*
X8295110Y3373670D03*
X8214880D03*
X8305000Y3995200D03*
X8295120Y5408680D03*
X8214890D03*
X8305000Y5995200D03*
X8295120Y7408680D03*
X8214890D03*
X8305000Y7995200D03*
X8186800Y8098900D03*
X8373500Y9575300D03*
X8245900Y10799500D03*
X8305000Y14134400D03*
X8278820Y15533780D03*
X8198590D03*
X8288700Y16216500D03*
X8198590Y17553880D03*
X8278820D03*
X8288700Y18140400D03*
X8295110Y19547880D03*
X8214880D03*
X8305000Y20134400D03*
X8465010Y632510D03*
X8405000Y3004800D03*
X8505000D03*
Y5004800D03*
X8499300Y5370800D03*
X8465100Y6910500D03*
X8505000Y7004800D03*
X8405000Y13144000D03*
X8505000D03*
X8488700Y15400300D03*
X8440000Y15511200D03*
X8588700Y16120300D03*
X8388700Y17150000D03*
X8488700D03*
X8588700Y18140400D03*
X8405000Y19094400D03*
X8505000Y19144000D03*
X8765010Y632510D03*
X8605000Y3995200D03*
X8784500Y4067200D03*
X8605000Y5995200D03*
X8779900Y6063100D03*
X8605000Y7995200D03*
X8763400Y13127700D03*
X8605000Y14134400D03*
X8705000D03*
X8788700Y15420800D03*
X8688700Y16120300D03*
X8788700Y17150000D03*
X8688700Y18140400D03*
X8605000Y20134400D03*
X8705000D03*
X8865010Y632510D03*
X8805000Y3004800D03*
X8905000D03*
X9005000Y3995200D03*
X8805000Y5004800D03*
X8905000D03*
X9005000Y5995200D03*
X8805000Y7004800D03*
X8905000D03*
X9005000Y7995200D03*
X8802700Y8094400D03*
X8933300Y10295500D03*
Y10800200D03*
X8939000Y13117500D03*
X9005000Y14134400D03*
X8837200Y15006200D03*
X8928100Y15449600D03*
X8988700Y16120300D03*
X8924400Y17121800D03*
X8988700Y18140400D03*
X8805000Y19144000D03*
X8905000D03*
X9005000Y20134400D03*
X9165010Y632510D03*
X9205000Y3004800D03*
X9105000Y3995200D03*
X9205000Y5004800D03*
X9105000Y5995200D03*
X9205000Y7004800D03*
X9105000Y7995200D03*
X9085600Y9447600D03*
X9205000Y13144000D03*
X9105000Y14134400D03*
X9188700Y15129900D03*
X9088700Y16120300D03*
X9188700Y17150000D03*
X9088700Y18140400D03*
X9205000Y19144000D03*
X9105000Y20134400D03*
X9265010Y632510D03*
X9405000Y3995200D03*
Y5995200D03*
Y7995200D03*
X9329600Y9644800D03*
X9405000Y14134400D03*
X9388700Y16120300D03*
Y18140400D03*
X9405000Y20134400D03*
X9565000Y632510D03*
X9505000Y3004800D03*
Y5004800D03*
Y7004800D03*
X9559080Y9950280D03*
X9505000Y13144000D03*
X9488700Y15129900D03*
Y17150000D03*
X9505000Y19144000D03*
X9765000Y632510D03*
X9805000Y3004800D03*
X9705000Y3995200D03*
X9805000Y5004800D03*
X9705000Y5995200D03*
X9805000Y7004800D03*
X9705000Y7995200D03*
X9805000Y13144000D03*
X9705000Y14134400D03*
X9788700Y15129900D03*
X9688700Y16120300D03*
X9788700Y17150000D03*
X9688700Y18140400D03*
X9805000Y19144000D03*
X9705000Y20134400D03*
X10065000Y632510D03*
X9905000Y3004800D03*
X10005000Y3995200D03*
X9905000Y5004800D03*
X10005000Y5995200D03*
X9905000Y7004800D03*
X10005000Y7995200D03*
X9905000Y13144000D03*
X10005000Y14134400D03*
X9888700Y15129900D03*
X9988700Y16120300D03*
X9888700Y17150000D03*
X9988700Y18140400D03*
X9905000Y19144000D03*
X10005000Y20134400D03*
X10165000Y632510D03*
X10205000Y3004800D03*
X10105000Y3995200D03*
X10205000Y5004800D03*
X10105000Y5995200D03*
X10205000Y7004800D03*
X10105000Y7995200D03*
X10205000Y13144000D03*
X10105000Y14134400D03*
X10188700Y15129900D03*
X10088700Y16120300D03*
X10188700Y17150000D03*
X10088700Y18140400D03*
X10205000Y19144000D03*
X10105000Y20134400D03*
X10465000Y632510D03*
X10305000Y3004800D03*
X10405000Y3995200D03*
X10305000Y5004800D03*
X10405000Y5995200D03*
X10305000Y7004800D03*
X10405000Y7995200D03*
X10305000Y13144000D03*
X10405000Y14134400D03*
X10288700Y15129900D03*
X10388700Y16120300D03*
X10488700D03*
X10288700Y17150000D03*
X10388700Y18140400D03*
X10488700D03*
X10305000Y19144000D03*
X10405000Y20134400D03*
X10565000Y632510D03*
X10605000Y3004800D03*
X10705000D03*
X10505000Y3995200D03*
X10605000Y5004800D03*
X10705000D03*
X10505000Y5995200D03*
X10605000Y7004800D03*
X10705000D03*
X10505000Y7995200D03*
X10705000Y13144000D03*
X10605000D03*
X10505000Y14134400D03*
X10688700Y15129900D03*
X10588700D03*
Y17150000D03*
X10688700D03*
X10705000Y19144000D03*
X10605000D03*
X10505000Y20134400D03*
X10865000Y632510D03*
X10805000Y3995200D03*
X10905000D03*
X10805000Y5995200D03*
X10905000D03*
X10805000Y7995200D03*
X10905000D03*
X10805000Y14134400D03*
X10905000D03*
X10788700Y16120300D03*
X10888700D03*
X10788700Y18140400D03*
X10888700D03*
X10805000Y20134400D03*
X10905000D03*
X10965000Y632510D03*
X11005000Y3004800D03*
Y5004800D03*
Y7004800D03*
Y13144000D03*
X10988700Y15129900D03*
Y17150000D03*
X11005000Y19144000D03*
X11265000Y632510D03*
X11205000Y3004800D03*
Y3995200D03*
Y5004800D03*
Y5995200D03*
Y7004800D03*
Y7995200D03*
Y13144000D03*
Y14134400D03*
X11188700Y15129900D03*
Y16120300D03*
Y17150000D03*
Y18140400D03*
X11205000Y19144000D03*
Y20134400D03*
X11365000Y632510D03*
X11505000Y3004800D03*
X11405000Y3995200D03*
X11505000Y5004800D03*
X11405000Y5995200D03*
X11505000Y7004800D03*
X11405000Y7995200D03*
X11505000Y13144000D03*
X11405000Y14134400D03*
X11488700Y15129900D03*
X11388700Y16120300D03*
X11488700Y17150000D03*
X11388700Y18140400D03*
X11505000Y19144000D03*
X11405000Y20134400D03*
X11765000Y632510D03*
X11665000D03*
X11605000Y3004800D03*
X11705000Y3995200D03*
X11605000Y5004800D03*
X11705000Y5995200D03*
X11605000Y7004800D03*
X11705000Y7995200D03*
X11605000Y13144000D03*
X11705000Y14134400D03*
X11588700Y15129900D03*
X11688700Y16120300D03*
X11588700Y17150000D03*
X11688700Y18140400D03*
X11605000Y19144000D03*
X11705000Y20134400D03*
X11905000Y3004800D03*
X11805000Y3995200D03*
X11905000Y5004800D03*
X11805000Y5995200D03*
X11905000Y7004800D03*
X11805000Y7995200D03*
X11905000Y13144000D03*
X11805000Y14134400D03*
X11888700Y15129900D03*
X11788700Y16120300D03*
X11888700Y17150000D03*
X11788700Y18140400D03*
X11905000Y19144000D03*
X11805000Y20134400D03*
X12165000Y632510D03*
X12065000D03*
X12005000Y3004800D03*
X12105000Y3995200D03*
X12005000Y5004800D03*
X12105000Y5995200D03*
X12005000Y7004800D03*
X12105000Y7995200D03*
X12005000Y13144000D03*
X12105000Y14134400D03*
X11988700Y15129900D03*
X12088700Y16120300D03*
X12188700D03*
X11988700Y17150000D03*
X12088700Y18140400D03*
X12188700D03*
X12005000Y19144000D03*
X12105000Y20134400D03*
X12305000Y3004800D03*
X12405000D03*
X12205000Y3995200D03*
X12305000Y5004800D03*
X12405000D03*
X12205000Y5995200D03*
X12305000Y7004800D03*
X12405000D03*
X12205000Y7995200D03*
X12405000Y13144000D03*
X12305000D03*
X12205000Y14134400D03*
X12388700Y15129900D03*
X12288700D03*
X12388700Y17150000D03*
X12288700D03*
X12305000Y19144000D03*
X12405000D03*
X12205000Y20134400D03*
X12565000Y632510D03*
X12465000D03*
X12605000Y3995200D03*
X12505000D03*
Y5995200D03*
X12605000D03*
X12505000Y7995200D03*
X12605000D03*
X12505000Y14134400D03*
X12605000D03*
X12488700Y16120300D03*
X12588700D03*
X12488700Y18140400D03*
X12588700D03*
X12605000Y20134400D03*
X12505000D03*
X12805000Y3004800D03*
X12705000D03*
X12805000Y5004800D03*
X12705000D03*
Y7004800D03*
X12805000D03*
Y13144000D03*
X12705000D03*
X12788700Y15129900D03*
X12688700D03*
Y17150000D03*
X12788700D03*
X12705000Y19144000D03*
X12805000D03*
X12865000Y632510D03*
X12905000Y3995200D03*
X13005000D03*
X12905000Y5995200D03*
X13005000D03*
X12905000Y7995200D03*
X13005000D03*
X12905000Y14134400D03*
X13005000D03*
X12888700Y16120300D03*
X12988700D03*
X12888700Y18140400D03*
X12988700D03*
X13005000Y20134400D03*
X12905000D03*
X13105000Y3004800D03*
X13205000D03*
Y5004800D03*
X13105000D03*
Y7004800D03*
X13205000D03*
Y13144000D03*
X13105000D03*
X13188700Y15129900D03*
X13088700D03*
X13188700Y17150000D03*
X13088700D03*
X13105000Y19144000D03*
X13205000D03*
X13305000Y3995200D03*
X13405000D03*
X13305000Y5995200D03*
X13405000D03*
X13305000Y7995200D03*
X13405000D03*
X13305000Y14134400D03*
X13405000D03*
X13288700Y16120300D03*
X13388700D03*
X13288700Y18140400D03*
X13388700D03*
X13405000Y20134400D03*
X13305000D03*
X13605000Y3004800D03*
X13505000D03*
Y5004800D03*
X13605000D03*
X13505000Y7004800D03*
X13605000D03*
Y13144000D03*
X13505000D03*
X13588700Y15129900D03*
X13488700D03*
X13588700Y17150000D03*
X13488700D03*
X13505000Y19144000D03*
X13605000D03*
X13705000Y3995200D03*
X13805000D03*
X13705000Y5995200D03*
X13805000D03*
X13705000Y7995200D03*
X13805000D03*
X13705000Y14134400D03*
X13805000D03*
X13888700Y15129900D03*
X13688700Y16120300D03*
X13788700D03*
X13888700Y17150000D03*
X13688700Y18140400D03*
X13788700D03*
X13705000Y20134400D03*
X13805000D03*
X14005000Y3004800D03*
X13905000D03*
Y5004800D03*
X14005000D03*
X13905000Y7004800D03*
X14005000D03*
Y13144000D03*
X13905000D03*
X13988700Y15129900D03*
X14088700Y16120300D03*
X13988700Y17150000D03*
X14088700Y18140400D03*
X13905000Y19144000D03*
X14005000D03*
X14305000Y3004800D03*
X14105000Y3995200D03*
X14205000D03*
X14305000Y5004800D03*
X14105000Y5995200D03*
X14205000D03*
X14305000Y7004800D03*
X14105000Y7995200D03*
X14205000D03*
X14305000Y13144000D03*
X14105000Y14134400D03*
X14205000D03*
X14288700Y15129900D03*
X14188700Y16120300D03*
X14288700Y17150000D03*
X14188700Y18140400D03*
X14305000Y19144000D03*
X14205000Y20134400D03*
X14105000D03*
X14505000Y3995200D03*
Y5995200D03*
Y7995200D03*
Y14134400D03*
X14488700Y16120300D03*
Y18140400D03*
X14505000Y20134400D03*
X15563100Y10130400D03*
Y11080800D03*
G54D20*
G01X1535500Y12696500D02*
X1428600Y12589600D01*
X813300D01*
X628900Y12405200D01*
Y5633200D01*
X4964990Y1297110D01*
Y1176100D01*
G01X1455600Y10230700D02*
X1370060Y10145160D01*
X1368960D01*
X1339940Y10116140D01*
Y10115040D01*
X683200Y9458300D01*
Y5659360D01*
X5364990Y977570D01*
Y560010D01*
G01X1601600Y12693900D02*
X1469800Y12562100D01*
X825900D01*
X655320Y12391520D01*
Y5649870D01*
X5064990Y1240200D01*
Y1173600D01*
G01X1455600Y10230700D02*
X1084900D01*
X874600Y10020400D01*
G01X1515400Y10229200D02*
X1497660Y10246940D01*
Y10248130D01*
X1485650Y10260140D01*
Y10277550D01*
X1459500Y10303700D01*
X991960D01*
X962660Y10274400D01*
X874600D01*
G01X1585800Y10228300D02*
X1483980Y10330120D01*
X1201450D01*
X1003170Y10528400D01*
X874600D01*
G01X1651200Y10227000D02*
X1521660Y10356540D01*
X1212400D01*
X874600Y10694340D01*
Y10782400D01*
G01X1716300Y10222900D02*
X1556240Y10382960D01*
X1224340D01*
X992200Y10615100D01*
Y10792400D01*
X874600Y10910000D01*
Y11036400D01*
G01X1455790Y11079290D02*
Y10629910D01*
X1497200Y10588500D01*
X3954500D01*
X3977700Y10565300D01*
X4658000D01*
X4676630Y10546670D01*
Y10476630D01*
G01X4576630Y10661770D02*
X4539570Y10698830D01*
X3418030D01*
X3334120Y10614920D01*
X1763180D01*
X1715890Y10662210D01*
Y10813900D01*
G01X1908700Y10527500D02*
X1803720D01*
X1790000Y10513780D01*
Y9522800D01*
X2226900Y9085900D01*
X5262900D01*
G01X3459690Y10157490D02*
X3533600Y10231400D01*
X4531400D01*
X4576630Y10276630D01*
G01Y10376630D02*
X4539570Y10413690D01*
X4028660D01*
X4007730Y10392760D01*
X3764270D01*
X3763850Y10392340D01*
X3513100D01*
X3450360Y10329600D01*
Y10287540D01*
G01X4476630Y10376630D02*
X4429050D01*
X4366110Y10313690D01*
X4261270D01*
X4232230Y10284650D01*
X3559350D01*
X3529600Y10314400D01*
G01X3727000Y10440080D02*
X4017680D01*
G01X4560220D02*
X4560760D01*
X4561270Y10439570D01*
X4650750D01*
X4676630Y10413690D01*
Y10376630D01*
G01X4051100Y9987900D02*
X4111300Y9927700D01*
X4325560D01*
X4376630Y9876630D01*
G01X4048600Y9927700D02*
X4055300D01*
X4169310Y9813690D01*
X4191990D01*
X4193280Y9812400D01*
X4612400D01*
X4676630Y9876630D01*
G01X3996700Y11628100D02*
Y11575520D01*
X4010420Y11561800D01*
X4610180D01*
X4623900Y11548080D01*
Y10914500D01*
X4676630Y10861770D01*
G01X5407720Y9711970D02*
X5442390D01*
X5465300Y9689060D01*
Y9664100D01*
G01X5407720Y9739910D02*
X5449480D01*
X5463200Y9753630D01*
Y9769400D01*
G01X7644620Y4515400D02*
Y6110080D01*
X7478900Y6275800D01*
Y8230980D01*
X5898770Y9811110D01*
X5287640D01*
G01X7672560Y4515400D02*
Y6121660D01*
X7506840Y6287380D01*
Y8242560D01*
X5910350Y9839050D01*
X5287640D01*
G01X7617080Y14545290D02*
Y14506220D01*
X7643230Y14480070D01*
Y14358020D01*
X6946810Y13661600D01*
X6686570D01*
X5498490Y12473520D01*
Y11319600D01*
G01X7697310Y14545290D02*
Y14506220D01*
X7671170Y14480080D01*
Y14346440D01*
X6958390Y13633660D01*
X6698150D01*
X5526430Y12461940D01*
Y11319600D01*
G01X5564990Y560510D02*
X5762500Y758020D01*
Y8570500D01*
X5320100Y9012900D01*
G01X5190930Y9411500D02*
Y9372430D01*
X5215120Y9348240D01*
Y9253780D01*
X6001040Y8467860D01*
Y980010D01*
G01X5267250Y9411500D02*
Y9372430D01*
X5243060Y9348240D01*
Y9265360D01*
X6028980Y8479440D01*
Y980010D01*
G01X7451270Y8447240D02*
X5884820Y10013690D01*
X5460310D01*
G01X5914880Y9911740D02*
X7670610Y8156010D01*
Y6478170D01*
G01X5895120Y9891980D02*
X7642670Y8144430D01*
Y6478170D01*
G01X7471030Y8467000D02*
X5896400Y10041630D01*
X5460310D01*
G01X5298490Y11303770D02*
Y12783880D01*
X7873460Y15358850D01*
Y17676720D01*
X7624290Y17925890D01*
Y18479830D01*
X7598140Y18505980D01*
Y18545050D01*
G01X7598750Y16502080D02*
Y16463010D01*
X7624900Y16436860D01*
Y15187180D01*
X5197110Y12759390D01*
Y11496960D01*
G01X5326430Y11303770D02*
Y12772300D01*
X7901400Y15347270D01*
Y17688300D01*
X7652230Y17937470D01*
Y18479840D01*
X7678370Y18505980D01*
Y18545050D01*
G01X7678980Y16502080D02*
Y16463010D01*
X7652840Y16436870D01*
Y15175600D01*
X5225050Y12747810D01*
Y11496960D01*
G01X7616890Y20566500D02*
Y20527430D01*
X7643040Y20501280D01*
Y19849660D01*
X7988960Y19503740D01*
Y15397460D01*
X5398490Y12806990D01*
Y11469120D01*
G01X7697120Y20566500D02*
Y20527430D01*
X7670980Y20501290D01*
Y19861240D01*
X8016900Y19515320D01*
Y15385880D01*
X5426430Y12795410D01*
Y11469120D01*
G01X8082800Y4989900D02*
X8107900Y4964800D01*
X8269800D01*
X8403900Y5098900D01*
Y8322900D01*
X5974900Y10751900D01*
Y11213300D01*
G01X8097100Y2980100D02*
X8702400Y3585400D01*
Y8083000D01*
X6035200Y10750200D01*
Y11317600D01*
G54D11*
X625900Y13146200D03*
X725900D03*
X625900Y13246200D03*
X725900D03*
X625900Y13346200D03*
X725900D03*
X625900Y13446200D03*
X725900D03*
X625900Y13546200D03*
X725900D03*
X625900Y13646200D03*
X725900D03*
X625900Y13746200D03*
X725900D03*
X825900Y13146200D03*
X925900D03*
X825900Y13246200D03*
X925900D03*
X825900Y13346200D03*
X925900D03*
X825900Y13446200D03*
X925900D03*
X825900Y13546200D03*
X925900D03*
X825900Y13646200D03*
X925900D03*
X825900Y13746200D03*
X925900D03*
X887300Y20007700D03*
Y20107700D03*
Y20207700D03*
Y20307700D03*
Y20407700D03*
Y20507700D03*
Y20607700D03*
Y20707700D03*
Y20807700D03*
Y20907700D03*
X1025900Y13146200D03*
X1125900D03*
X1025900Y13246200D03*
X1125900D03*
X1025900Y13346200D03*
X1125900D03*
X1025900Y13446200D03*
X1125900D03*
X1025900Y13546200D03*
X1125900D03*
X1025900Y13646200D03*
X1125900D03*
X1025900Y13746200D03*
X1125900D03*
X987300Y20007700D03*
X1087300D03*
X987300Y20107700D03*
X1087300D03*
X987300Y20207700D03*
X1087300D03*
X987300Y20307700D03*
X1087300D03*
X987300Y20407700D03*
X1087300D03*
X987300Y20507700D03*
X1087300D03*
X987300Y20607700D03*
X1087300D03*
X987300Y20707700D03*
X1087300D03*
X987300Y20807700D03*
X1087300D03*
X987300Y20907700D03*
X1087300D03*
X1356200Y7613000D03*
Y7713000D03*
Y7813000D03*
Y7913000D03*
X1225900Y13146200D03*
X1325900D03*
X1225900Y13246200D03*
X1325900D03*
X1225900Y13346200D03*
X1325900D03*
X1225900Y13446200D03*
X1325900D03*
X1225900Y13546200D03*
X1325900D03*
X1225900Y13646200D03*
X1325900D03*
X1225900Y13746200D03*
X1325900D03*
X1187300Y20007700D03*
X1287300D03*
X1387300D03*
X1187300Y20107700D03*
X1287300D03*
X1387300D03*
X1187300Y20207700D03*
X1287300D03*
X1387300D03*
X1187300Y20307700D03*
X1287300D03*
X1387300D03*
X1187300Y20407700D03*
X1287300D03*
X1387300D03*
X1187300Y20507700D03*
X1287300D03*
X1387300D03*
X1187300Y20607700D03*
X1287300D03*
X1387300D03*
X1187300Y20707700D03*
X1287300D03*
X1387300D03*
X1187300Y20807700D03*
X1287300D03*
X1387300D03*
X1187300Y20907700D03*
X1287300D03*
X1387300D03*
X1456200Y7613000D03*
X1556200D03*
X1456200Y7713000D03*
X1556200D03*
X1456200Y7813000D03*
X1556200D03*
X1456200Y7913000D03*
X1556200D03*
X1425900Y13146200D03*
Y13246200D03*
Y13346200D03*
Y13446200D03*
Y13546200D03*
Y13646200D03*
Y13746200D03*
X1487300Y20007700D03*
X1587300D03*
X1487300Y20107700D03*
X1587300D03*
X1487300Y20207700D03*
X1587300D03*
X1487300Y20307700D03*
X1587300D03*
X1487300Y20407700D03*
X1587300D03*
X1487300Y20507700D03*
X1587300D03*
X1487300Y20607700D03*
X1587300D03*
X1487300Y20707700D03*
X1587300D03*
X1487300Y20807700D03*
X1587300D03*
X1487300Y20907700D03*
X1587300D03*
X1633680Y15062200D03*
X1687300Y20007700D03*
X1787300D03*
X1687300Y20107700D03*
X1787300D03*
X1687300Y20207700D03*
X1787300D03*
X1687300Y20307700D03*
X1787300D03*
X1687300Y20407700D03*
X1787300D03*
X1687300Y20507700D03*
X1787300D03*
X1687300Y20607700D03*
X1787300D03*
X1687300Y20707700D03*
X1787300D03*
X1687300Y20807700D03*
X1787300D03*
X1687300Y20907700D03*
X1787300D03*
X4649000Y235400D03*
X6151100Y2943500D03*
X6163700Y4947900D03*
X6307000Y6806500D03*
X6297200Y12923500D03*
X6279800Y14934100D03*
X6293700Y16959300D03*
X6294400Y18931700D03*
G54D12*
X918300Y2959000D03*
X880300Y16386800D03*
X1062600Y3224300D03*
X1002900Y5440900D03*
X1059500Y5724400D03*
X1024500Y16663200D03*
X1345600Y8065100D03*
X1236000Y8029900D03*
X1345600Y9074700D03*
X1273700Y9182200D03*
X1472600Y8157600D03*
X1389500Y10095600D03*
X1388700Y10015700D03*
X1388100Y9918600D03*
X1456200Y11274000D03*
X1521300Y11347500D03*
X1585300Y11274600D03*
X1569000Y12037100D03*
X1557220Y13017400D03*
X1716100Y9812000D03*
X1697050Y9947450D03*
X1717100Y10030500D03*
X1714900Y11267100D03*
X1789000Y11344600D03*
X1910400Y9530100D03*
X1911100Y9634100D03*
X1922900Y9840500D03*
X1929200Y9738700D03*
X1902700Y9943900D03*
X1849900Y10094700D03*
X1819690Y11267090D03*
X1840980Y11186280D03*
X1941100Y14966100D03*
X2170200Y11059900D03*
X2073300Y11278500D03*
X2076600Y11386900D03*
X2071800Y11495300D03*
X2063800Y11604700D03*
X2153200Y14972300D03*
X2283900Y1966600D03*
X2383900D03*
X2283900Y2066600D03*
X2383900D03*
X2283900Y2166600D03*
X2383900D03*
X2283900Y2266600D03*
X2383900D03*
X2283900Y2366600D03*
X2383900D03*
X2370700Y9860600D03*
X2352400Y13949400D03*
Y14049400D03*
Y14149400D03*
X2252500Y15387500D03*
X2352500D03*
X2252500Y15487500D03*
X2352500D03*
X2252500Y15587500D03*
X2352500D03*
X2252500Y15687500D03*
X2352500D03*
X2252500Y15787500D03*
X2352500D03*
X2459900Y9944000D03*
X2452400Y13949400D03*
Y14049400D03*
Y14149400D03*
X3043500Y9512200D03*
X3531600Y9962000D03*
X3594700Y10441900D03*
X3858300Y9659100D03*
X3902200Y9784100D03*
X3904200Y10027100D03*
X3880400Y10756600D03*
X3883700Y10969500D03*
X3880510Y10858190D03*
X3875700Y11184500D03*
X3742900Y11369900D03*
X3743200Y11270100D03*
X3869100Y11561900D03*
X5315300Y254300D03*
X5464990Y396510D03*
X5561300Y5660100D03*
X5465700Y7686600D03*
X5544200Y13581500D03*
X5468200Y15567500D03*
X5549000Y17598700D03*
X5523400Y19583800D03*
X5705200Y3538800D03*
X6005100Y9503000D03*
X6067600Y10020100D03*
X6312800Y9718900D03*
X7056000Y4234300D03*
X7056900Y6212900D03*
X7055200Y8186500D03*
X7066800Y14337500D03*
X7034900Y16346100D03*
X7038000Y18377000D03*
X7059900Y20358800D03*
X7917100Y13122700D03*
X8072900Y15075400D03*
X8067000Y17019100D03*
X8078500Y19018800D03*
X8275700Y9995700D03*
X8373500Y9939500D03*
X8373900Y10313900D03*
X8475900Y9777300D03*
X8522700Y10403500D03*
X8621400Y10597800D03*
X8905200Y9807000D03*
X8954300Y9904800D03*
X9060200Y10327300D03*
X9197200Y10407800D03*
X9223300Y10553800D03*
X9366200Y9806800D03*
X9485800Y10517200D03*
G54D13*
X809300Y8525100D03*
Y8779100D03*
X874600Y10020400D03*
Y10274400D03*
Y10528400D03*
Y10782400D03*
Y11036400D03*
X878700Y12182800D03*
Y12436800D03*
Y12690800D03*
G54D14*
X2615200Y20909210D03*
Y21329210D03*
X3035200Y20909210D03*
Y21329210D03*
X3455200Y20909210D03*
Y21329210D03*
G54D15*
X4064900Y10768700D03*
X3964200Y11270300D03*
X4276630Y9876630D03*
X4176630Y9776630D03*
X4276630Y10076630D03*
Y9976630D03*
X4176630Y10076630D03*
Y10176630D03*
X4276630Y10276630D03*
Y10176630D03*
Y10476630D03*
Y10376630D03*
X4176630Y10476630D03*
X4276630Y10661770D03*
X4176630D03*
Y10861770D03*
X4276630D03*
Y10761770D03*
Y11161770D03*
Y11061770D03*
X4176630D03*
Y11161770D03*
Y10961770D03*
X4276630D03*
Y11261770D03*
X4376630Y9876630D03*
X4476630D03*
X4376630Y10076630D03*
X4476630Y9976630D03*
X4376630D03*
X4476630Y10076630D03*
Y10276630D03*
X4376630D03*
Y10176630D03*
X4476630D03*
Y10376630D03*
X4376630D03*
X4476630Y10476630D03*
X4376630D03*
Y10661770D03*
X4476630D03*
Y10861770D03*
X4376630Y10761770D03*
X4476630Y11061770D03*
Y11161770D03*
X4376630Y11061770D03*
Y11161770D03*
Y10961770D03*
X4476630D03*
Y11261770D03*
X4376630D03*
X4676630Y9876630D03*
X4576630D03*
X4676630Y9976630D03*
Y10076630D03*
X4576630D03*
Y9976630D03*
Y10176630D03*
Y10276630D03*
X4676630Y10176630D03*
Y10276630D03*
Y10376630D03*
Y10476630D03*
X4576630D03*
Y10376630D03*
Y10661770D03*
X4676630D03*
X4576630Y10861770D03*
X4676630Y10761770D03*
Y10861770D03*
X4576630Y10961770D03*
X4676630Y11161770D03*
X4576630D03*
X4676630Y11061770D03*
X4576630D03*
X4676630Y10961770D03*
Y11261770D03*
X4576630D03*
X4876630Y9876630D03*
X4776630D03*
X4876630Y10076630D03*
X4776630Y9976630D03*
X4876630D03*
X4776630Y10076630D03*
X4876630Y10276630D03*
X4776630Y10176630D03*
X4876630D03*
X4776630Y10276630D03*
X4876630Y10476630D03*
X4776630Y10376630D03*
X4876630D03*
X4776630Y10476630D03*
Y10661770D03*
X4876630D03*
Y10761770D03*
X4776630D03*
Y11061770D03*
X4876630Y11161770D03*
X4776630D03*
X4876630Y11061770D03*
Y10961770D03*
X4776630D03*
X4876630Y11261770D03*
X4776630D03*
X5061770Y9876630D03*
X5161770D03*
Y9976630D03*
X5061770Y10076630D03*
X5161770D03*
X5061770Y9976630D03*
X5161770Y10276630D03*
X5061770D03*
Y10176630D03*
X5161770D03*
X5061770Y10376630D03*
X5161770Y10476630D03*
X5061770D03*
X5161770Y10376630D03*
X5061770Y10661770D03*
X5161770D03*
Y10761770D03*
X5061770Y10861770D03*
Y10761770D03*
X5161770Y10961770D03*
X5061770Y11161770D03*
X5161770D03*
X5061770Y11061770D03*
X5161770D03*
X5061770Y10961770D03*
Y11261770D03*
X5161770Y11361770D03*
Y11261770D03*
X5261770Y9676630D03*
Y9776630D03*
Y9876630D03*
X5361770D03*
Y9976630D03*
X5261770Y10076630D03*
Y9976630D03*
X5361770Y10076630D03*
Y10276630D03*
X5261770D03*
Y10176630D03*
X5361770Y10376630D03*
X5261770D03*
X5361770Y10661770D03*
X5261770D03*
X5361770Y10961770D03*
X5261770D03*
X5361770Y11261770D03*
X5261770D03*
X5465300Y9664100D03*
X5463200Y9769400D03*
X5461770Y9876630D03*
Y10276630D03*
X5561770Y10176630D03*
X5461770D03*
Y10376630D03*
X5561770Y10476630D03*
X5461770D03*
X5561770Y10961770D03*
X5461770D03*
Y11261770D03*
X5661770Y9876630D03*
X5761770D03*
X5661770Y10176630D03*
X5761770D03*
Y10376630D03*
Y10861770D03*
X5661770Y10976630D03*
X5761770Y11361770D03*
X5661770Y11261770D03*
G54D16*
X7353700Y15625100D03*
Y17645200D03*
X7370000Y3500000D03*
Y5500000D03*
Y7500000D03*
Y13639200D03*
Y19639200D03*
X14685000Y3500000D03*
Y5500000D03*
Y7500000D03*
Y13639200D03*
X14668700Y15625100D03*
Y17645200D03*
X14685000Y19639200D03*
G54D17*
G01X4476630Y10276630D02*
X4458100D01*
X4439050Y10295680D01*
Y10301960D01*
X4450790Y10313700D01*
X4942280D01*
X4954280Y10301700D01*
Y10095830D01*
X5035900Y10014210D01*
X5075390D01*
X5097970Y9991630D01*
Y9839880D01*
X5161500Y9776350D01*
X5161510D01*
X5225030Y9712830D01*
X5403860D01*
X5404720Y9711970D01*
X5407720D01*
G01X4376630Y10276630D02*
X4439920Y10339920D01*
X4953150D01*
X4980500Y10312570D01*
Y10106700D01*
X5046770Y10040430D01*
X5086260D01*
X5124190Y10002500D01*
Y9850760D01*
X5235900Y9739050D01*
X5404720D01*
X5405580Y9739910D01*
X5407720D01*
G01X7619400Y4392040D02*
Y4429030D01*
X7645480Y4455110D01*
Y4511540D01*
X7644620Y4512400D01*
Y4515400D01*
G01X5287640Y9811110D02*
X5285500D01*
X5284640Y9811970D01*
X5276420D01*
X5275560Y9812830D01*
X5237280D01*
X5199350Y9850760D01*
Y9939050D01*
X5161770Y9976630D01*
G01X7697770Y4392040D02*
Y4429030D01*
X7671700Y4455100D01*
Y4511540D01*
X7672560Y4512400D01*
Y4515400D01*
G01X5287640Y9839050D02*
X5248150D01*
X5225570Y9861630D01*
Y10012850D01*
X5161770Y10076630D01*
G01X5498490Y11319600D02*
Y11317460D01*
X5499350Y11316600D01*
Y10263010D01*
X5476080Y10239740D01*
X5173770D01*
X5161770Y10251740D01*
Y10276630D01*
G01X5526430Y11319600D02*
Y11316600D01*
X5525570Y11315740D01*
Y10252140D01*
X5486950Y10213520D01*
X5162900D01*
X5099790Y10276630D01*
X5061770D01*
G01X6001040Y980010D02*
Y977010D01*
X6001900Y976150D01*
Y936030D01*
X5974890Y909020D01*
G01X6028980Y980010D02*
Y977010D01*
X6028120Y976150D01*
Y936020D01*
X6055120Y909020D01*
G01X5261770Y10076630D02*
X5297970Y10040430D01*
Y9978930D01*
X5336470Y9940430D01*
X5883600D01*
X5911430Y9913620D01*
X5911440D01*
X5912280Y9913640D01*
G01X5261770Y9976630D02*
X5324190Y9914210D01*
X5873020D01*
X5893220Y9894740D01*
X5893230Y9893870D01*
G01X5361770Y10276630D02*
X5299350Y10339050D01*
Y11299910D01*
X5298490Y11300770D01*
Y11303770D01*
G01X5197110Y11496960D02*
Y11493960D01*
X5197970Y11493100D01*
Y10329550D01*
X5238900Y10288620D01*
X5249780D01*
X5261770Y10276630D01*
G01X5361770Y10376630D02*
X5337570D01*
X5325570Y10388630D01*
Y11299910D01*
X5326430Y11300770D01*
Y11303770D01*
G01X5225050Y11496960D02*
Y11493960D01*
X5224190Y11493100D01*
Y10340420D01*
X5243770Y10320840D01*
X5255770D01*
X5261770Y10326840D01*
Y10376630D01*
G01X5398490Y11469120D02*
Y11466120D01*
X5399350Y11465260D01*
Y10339050D01*
X5461770Y10276630D01*
G01X5426430Y11469120D02*
Y11466120D01*
X5425570Y11465260D01*
Y10388630D01*
X5437570Y10376630D01*
X5461770D01*
G54D18*
G01X2883010Y10222510D02*
X2943390D01*
X3020100Y10145800D01*
Y9910200D01*
X3615200Y9315100D01*
X3739700D01*
X3775200Y9279600D01*
G01X2892760Y10092460D02*
Y9890540D01*
X3600600Y9182700D01*
X3684100D01*
G01X3728800Y9231000D02*
X3693300Y9266500D01*
X3591500D01*
X2958300Y9899700D01*
Y10127000D01*
X2928300Y10157000D01*
X2889400D01*
G01X5799300Y17498200D02*
X5693500D01*
X5663500Y17468200D01*
Y14101700D01*
X3021700Y11459900D01*
Y10750500D01*
G01X5806100Y19479300D02*
X5607000Y19280200D01*
Y14137900D01*
X2966300Y11497200D01*
Y10807100D01*
G01X3076000Y10802500D02*
Y11424700D01*
X5724100Y14072800D01*
Y15802800D01*
G01X3129200Y10743700D02*
Y11396500D01*
X5571900Y13839200D01*
X5795900D01*
G01X3942300Y3505400D02*
X5287200D01*
G01X5215900Y5513700D02*
X3982000D01*
G01X4068200Y7545100D02*
X5156600D01*
G54D19*
G01X4017680Y10440080D02*
X4560220D01*
G01X5286800Y9535200D02*
X4178300D01*
X4054400Y9659100D01*
G01X8102500Y6982000D02*
Y8440000D01*
X6402600Y10139900D01*
X5021300D01*
X5008600Y10152600D01*
Y11108600D01*
X5061770Y11161770D01*
G01X7619840Y8330330D02*
Y8368170D01*
X7644540Y8392870D01*
Y8426350D01*
X7631840Y8439050D01*
X7459460D01*
X7451270Y8447240D01*
G01X5460310Y10013690D02*
X5448730D01*
X5448220Y10014200D01*
X5399340D01*
X5361770Y9976630D01*
G01X5912280Y9913640D02*
X5912980D01*
X5914880Y9911740D01*
G01X7670610Y6478170D02*
Y6475000D01*
X7670100Y6474490D01*
Y6410140D01*
X7696200Y6384040D01*
Y6346200D01*
G01X5893230Y9893870D02*
X5895120Y9891980D01*
G01X7642670Y6478170D02*
Y6475000D01*
X7643180Y6474490D01*
Y6410150D01*
X7617070Y6384040D01*
Y6346200D01*
G01X7696160Y8330330D02*
Y8368170D01*
X7671460Y8392870D01*
Y8438540D01*
X7643000Y8467000D01*
X7471030D01*
G01X5460310Y10041630D02*
X5457640D01*
X5457130Y10041120D01*
X5397280D01*
X5361770Y10076630D01*
M02*
