G04 ================== begin FILE IDENTIFICATION RECORD ==================*
G04 Layout Name:  pcie-pcie_3.brd*
G04 Film Name:    PWR2L*
G04 File Format:  Gerber RS274X*
G04 File Origin:  Cadence Allegro 25.1-S010*
G04 Origin Date:  Mon May 11 22:08:53 2026*
G04 *
G04 Layer:  VIA CLASS/PWR_2*
G04 Layer:  PIN/PWR_2*
G04 Layer:  ETCH/PWR_2*
G04 *
G04 Offset:    (0.0000 0.0000)*
G04 Mirror:    No*
G04 Mode:      Positive*
G04 Rotation:  0*
G04 FullContactRelief:  No*
G04 UndefLineWidth:     0.1000*
G04 ================== end FILE IDENTIFICATION RECORD ====================*
%FSLAX25Y25*MOMM*%
%IR0*IPPOS*OFA0.00000B0.00000*MIA0B0*SFA1.00000B1.00000*%
%ADD12C,.6*%
%ADD11C,.7*%
%ADD15C,.35*%
%ADD10C,.45*%
%ADD16C,1.2*%
%ADD13C,1.37*%
%ADD14C,2.3622*%
%ADD17C,1.*%
%ADD23C,.6044*%
%ADD19C,.7044*%
%ADD20C,.8544*%
%ADD22C,1.6244*%
%ADD21C,1.6068*%
%ADD18C,2.6166*%
G75*
%LPD*%
G75*
G36*
G01X2249500Y22059500D02*
X9233800D01*
Y19185370D01*
G02X9219470Y19176110I-10160J4D01*
G03X9205000Y19179220I-14470J-32108D01*
G03Y19108780I0J-35220D01*
G03X9219470Y19111890I0J35218D01*
G02X9233800Y19102630I4170J-9264D01*
G01Y17178950D01*
G02X9215820Y17172470I-10160J6D01*
G03X9188700Y17185220I-27120J-22468D01*
G03Y17114780I0J-35220D01*
G03X9215820Y17127530I0J35218D01*
G02X9233800Y17121050I7820J-6486D01*
G01Y15158850D01*
G02X9215820Y15152370I-10160J6D01*
G03X9188700Y15165120I-27120J-22468D01*
G03Y15094680I0J-35220D01*
G03X9215820Y15107430I0J35218D01*
G02X9233800Y15100950I7820J-6486D01*
G01Y14506320D01*
X7732370D01*
G02X7724520Y14522930I0J10160D01*
G03X7732530Y14545290I-27204J22360D01*
G03X7697310Y14580510I-35220J0D01*
G03X7666180Y14561760I0J-35217D01*
G02X7648210I-8985J4746D01*
G03X7617080Y14580510I-31130J-16467D01*
G03X7581860Y14545290I0J-35220D01*
G03X7589870Y14522930I35214J0D01*
G02X7582020Y14506320I-7850J-6450D01*
G01X6834430D01*
X6810280Y14482170D01*
Y13449620D01*
X6805000D01*
G03Y13379180I0J-35220D01*
G01X6810280D01*
Y12953470D01*
X6807180Y12950370D01*
Y12119530D01*
X7458280Y11468430D01*
Y9017870D01*
X6787080Y8346670D01*
Y7305520D01*
G03Y7244880I17919J-30320D01*
G01Y5305520D01*
G03Y5244880I17919J-30320D01*
G01Y4976880D01*
G03Y4918920I20026J-28980D01*
G01Y3305520D01*
G03Y3244880I17919J-30320D01*
G01Y2847670D01*
X6782630Y2843220D01*
X5974570D01*
X5523670Y3294120D01*
X855580D01*
X752120Y3397580D01*
G02X753660Y3413210I7185J7183D01*
G03X769320Y3442500I-19562J29290D01*
G03X734100Y3477720I-35220J0D01*
G03X704810Y3462060I0J-35222D01*
G02X689180Y3460520I-8447J5645D01*
G01X511200Y3638500D01*
Y20321200D01*
X2249500Y22059500D01*
G37*
G36*
G01X6839700Y14493600D02*
X9233800D01*
Y13185370D01*
G02X9219470Y13176110I-10160J4D01*
G03X9205000Y13179220I-14470J-32108D01*
G03Y13108780I0J-35220D01*
G03X9219470Y13111890I0J35218D01*
G02X9233800Y13102630I4170J-9264D01*
G01Y10606680D01*
G02X9223570Y10596520I-10159J-1D01*
G01X9223300D01*
G03Y10511080I0J-42720D01*
G01X9223570D01*
G02X9233800Y10500920I71J-10159D01*
G01Y10453590D01*
G02X9218560Y10444800I-10159J7D01*
G03X9197200Y10450520I-21355J-37001D01*
G03Y10365080I0J-42720D01*
G03X9218560Y10370800I5J42721D01*
G02X9233800Y10362010I5081J-8797D01*
G01Y7046170D01*
G02X9219470Y7036910I-10160J4D01*
G03X9205000Y7040020I-14470J-32108D01*
G03Y6969580I0J-35220D01*
G03X9219470Y6972690I0J35218D01*
G02X9233800Y6963430I4170J-9264D01*
G01Y5046170D01*
G02X9219470Y5036910I-10160J4D01*
G03X9205000Y5040020I-14470J-32108D01*
G03Y4969580I0J-35220D01*
G03X9219470Y4972690I0J35218D01*
G02X9233800Y4963430I4170J-9264D01*
G01Y3046170D01*
G02X9219470Y3036910I-10160J4D01*
G03X9205000Y3040020I-14470J-32108D01*
G03X9169780Y3004800I0J-35220D01*
G03X9181260Y2978780I35228J0D01*
G02X9181600Y2964100I-6849J-7503D01*
G01X7868900Y1651400D01*
X6585100D01*
X6583400Y1653100D01*
X1458500D01*
X834200Y2277400D01*
Y3247400D01*
X868200Y3281400D01*
X5518400D01*
X5969300Y2830500D01*
X6787900D01*
X6799800Y2842400D01*
Y3234900D01*
G02X6804890Y3239980I5080J0D01*
G01X6805000D01*
G03Y3310420I0J35220D01*
G01X6804890D01*
G02X6799800Y3315500I-10J5080D01*
G01Y4902610D01*
G02X6809320Y4912750I10160J0D01*
G03Y4983050I-2220J35150D01*
G02X6799800Y4993190I640J10140D01*
G01Y5234900D01*
G02X6804890Y5239980I5080J0D01*
G01X6805000D01*
G03Y5310420I0J35220D01*
G01X6804890D01*
G02X6799800Y5315500I-10J5080D01*
G01Y7234900D01*
G02X6804890Y7239980I5080J0D01*
G01X6805000D01*
G03Y7310420I0J35220D01*
G01X6804890D01*
G02X6799800Y7315500I-10J5080D01*
G01Y8341400D01*
X7471000Y9012600D01*
Y11473700D01*
X6819900Y12124800D01*
Y12945100D01*
X6823000Y12948200D01*
Y13384130D01*
G03Y13444670I-17995J30270D01*
G01Y14476900D01*
X6839700Y14493600D01*
G37*
%LPC*%
G75*
G36*
G01X7648020Y20550030D02*
G02X7616890Y20531280I-31130J16467D01*
G02Y20601720I0J35220D01*
G02X7648020Y20582970I0J-35217D01*
G03X7665990I8985J4746D01*
G02X7697120Y20601720I31130J-16467D01*
G02Y20531280I0J-35220D01*
G02X7665990Y20550030I0J35217D01*
G03X7648020I-8985J-4746D01*
G37*
G36*
G01X8246010Y19531410D02*
G02X8214880Y19512660I-31130J16467D01*
G02Y19583100I0J35220D01*
G02X8246010Y19564350I0J-35217D01*
G03X8263980I8985J4746D01*
G02X8295110Y19583100I31130J-16467D01*
G02Y19512660I0J-35220D01*
G02X8263980Y19531410I0J35217D01*
G03X8246010I-8985J-4746D01*
G37*
G36*
G01X7746020D02*
G02X7714890Y19512660I-31130J16467D01*
G02Y19583100I0J35220D01*
G02X7746020Y19564350I0J-35217D01*
G03X7763990I8985J4746D01*
G02X7795120Y19583100I31130J-16467D01*
G02Y19512660I0J-35220D01*
G02X7763990Y19531410I0J35217D01*
G03X7746020I-8985J-4746D01*
G37*
G36*
G01X7629270Y18528580D02*
G02X7598140Y18509830I-31130J16467D01*
G02Y18580270I0J35220D01*
G02X7629270Y18561520I0J-35217D01*
G03X7647240I8985J4746D01*
G02X7678370Y18580270I31130J-16467D01*
G02Y18509830I0J-35220D01*
G02X7647240Y18528580I0J35217D01*
G03X7629270I-8985J-4746D01*
G37*
G36*
G01X8229720Y17537410D02*
G02X8198590Y17518660I-31130J16467D01*
G02Y17589100I0J35220D01*
G02X8229720Y17570350I0J-35217D01*
G03X8247690I8985J4746D01*
G02X8278820Y17589100I31130J-16467D01*
G02Y17518660I0J-35220D01*
G02X8247690Y17537410I0J35217D01*
G03X8229720I-8985J-4746D01*
G37*
G36*
G01X7729720D02*
G02X7698590Y17518660I-31130J16467D01*
G02Y17589100I0J35220D01*
G02X7729720Y17570350I0J-35217D01*
G03X7747690I8985J4746D01*
G02X7778820Y17589100I31130J-16467D01*
G02Y17518660I0J-35220D01*
G02X7747690Y17537410I0J35217D01*
G03X7729720I-8985J-4746D01*
G37*
G36*
G01X7629880Y16485610D02*
G02X7598750Y16466860I-31130J16467D01*
G02Y16537300I0J35220D01*
G02X7629880Y16518550I0J-35217D01*
G03X7647850I8985J4746D01*
G02X7678980Y16537300I31130J-16467D01*
G02Y16466860I0J-35220D01*
G02X7647850Y16485610I0J35217D01*
G03X7629880I-8985J-4746D01*
G37*
G36*
G01X8229720Y15517310D02*
G02X8198590Y15498560I-31130J16467D01*
G02Y15569000I0J35220D01*
G02X8229720Y15550250I0J-35217D01*
G03X8247690I8985J4746D01*
G02X8278820Y15569000I31130J-16467D01*
G02Y15498560I0J-35220D01*
G02X8247690Y15517310I0J35217D01*
G03X8229720I-8985J-4746D01*
G37*
G36*
G01X7729720D02*
G02X7698590Y15498560I-31130J16467D01*
G02Y15569000I0J35220D01*
G02X7729720Y15550250I0J-35217D01*
G03X7747690I8985J4746D01*
G02X7778820Y15569000I31130J-16467D01*
G02Y15498560I0J-35220D01*
G02X7747690Y15517310I0J35217D01*
G03X7729720I-8985J-4746D01*
G37*
G36*
G01X2997480Y14658670D02*
X3123330Y14784520D01*
X3884220D01*
Y13929070D01*
X6235120Y11578170D01*
Y10196130D01*
X6100620Y10061630D01*
G03X6100080Y10047850I7185J-7182D01*
G02X6110320Y10020100I-32481J-27750D01*
G02X6024880I-42720J0D01*
G02X6029340Y10039100I42719J-4D01*
G03X6020240Y10053780I-9100J4520D01*
G01X5381550D01*
G02X5341990I-19780J22858D01*
G01X5281550D01*
G02X5241990I-19780J22858D01*
G01X5181550D01*
G02X5161770Y10046410I-19780J22858D01*
G02X5152870Y10047750I0J30226D01*
G03X5139720Y10038040I-2990J-9710D01*
G01Y10015220D01*
G03X5152870Y10005510I10160J0D01*
G02X5161770Y10006850I8900J-28886D01*
G02Y9946410I0J-30220D01*
G02X5133840Y9965080I0J30226D01*
G03X5117270Y9968380I-9387J-3883D01*
G01X5109070Y9960180D01*
X5087120D01*
G02X5036420I-25350J16449D01*
G01X4901980D01*
G02X4851280I-25350J16449D01*
G01X4801980D01*
G02X4751280I-25350J16449D01*
G01X4701980D01*
G02X4651280I-25350J16449D01*
G01X4601980D01*
G02X4551280I-25350J16449D01*
G01X4501980D01*
G02X4451280I-25350J16449D01*
G01X4401980D01*
G02X4351280I-25350J16449D01*
G01X4301980D01*
G02X4251280I-25350J16449D01*
G01X4088110D01*
G03X4079270Y9945020I3J-10159D01*
G02X4083820Y9927700I-30671J-17315D01*
G02X4013380I-35220J0D01*
G02X4017930Y9945020I35221J5D01*
G03X4009090Y9960180I-8843J5001D01*
G01X3648130D01*
X3513110Y10095210D01*
G03X3495810Y10089010I-7186J-7185D01*
G02X3460760Y10057240I-35050J3449D01*
G02X3425540Y10092460I0J35220D01*
G02X3435780Y10117290I35224J0D01*
G03X3435540Y10131850I-7203J7163D01*
G02X3424470Y10157490I24158J25640D01*
G02X3428780Y10174370I35210J0D01*
G01X3430600Y10177710D01*
X2440120Y11168190D01*
G03X2422940Y11162820I-7185J-7181D01*
G02X2388280Y11133880I-34660J6285D01*
G02X2353060Y11169100I0J35220D01*
G02X2382000Y11203760I35225J0D01*
G03X2387370Y11220940I-1811J9995D01*
G01X2127310Y11481010D01*
G03X2110840Y11477950I-7184J-7186D01*
G02X2071800Y11452580I-39040J17353D01*
G02X2029080Y11495300I0J42720D01*
G02X2054450Y11534340I42723J0D01*
G03X2057510Y11550810I-4126J9286D01*
G01X2036320Y11571990D01*
X2036160Y11572120D01*
G02X2031220Y11577060I27640J32580D01*
G01X2031090Y11577220D01*
X1924780Y11683530D01*
Y13374570D01*
X1964430Y13414220D01*
X2678970D01*
X2729150Y13364040D01*
X2774230Y13409120D01*
X3719360D01*
G03X3726550Y13426460I3J10159D01*
G01X3553430Y13599580D01*
X3237330D01*
X2997480Y13839430D01*
Y14658670D01*
G37*
G36*
G01X1274950Y12855790D02*
G02X1309600Y12884720I34650J-6285D01*
G02Y12814280I0J-35220D01*
G02X1287800Y12821840I0J35211D01*
G03X1271510Y12815670I-6291J-7980D01*
G02X1236860Y12786740I-34650J6285D01*
G02Y12857180I0J35220D01*
G02X1258660Y12849620I0J-35211D01*
G03X1274950Y12855790I6291J7980D01*
G37*
G36*
G01X5809530Y12566820D02*
G02X5790780Y12597950I16467J31130D01*
G02X5861220I35220J0D01*
G02X5842470Y12566820I-35217J0D01*
G03Y12548850I4746J-8985D01*
G02X5861220Y12517720I-16467J-31130D01*
G02X5790780I-35220J0D01*
G02X5809530Y12548850I35217J0D01*
G03Y12566820I-4746J8985D01*
G37*
G36*
G01X1575000Y12670810D02*
G03X1560200Y12671400I-7677J-6655D01*
G02X1535500Y12661280I-24706J25098D01*
G02Y12731720I0J35220D01*
G02X1562100Y12719590I0J-35231D01*
G03X1576900Y12719000I7677J6655D01*
G02X1601600Y12729120I24706J-25098D01*
G02Y12658680I0J-35220D01*
G02X1575000Y12670810I0J35231D01*
G37*
G36*
G01X1207730Y12035440D02*
G03X1221410Y12043160I3672J9474D01*
G02X1256100Y12072320I34690J-6054D01*
G02Y12001880I0J-35220D01*
G02X1243370Y12004260I-3J35220D01*
G03X1229690Y11996540I-3672J-9474D01*
G02X1195000Y11967380I-34690J6054D01*
G02Y12037820I0J35220D01*
G02X1207730Y12035440I3J-35220D01*
G37*
G36*
G01X1782850Y11288720D02*
G03X1776950Y11303610I-8760J5143D01*
G02X1746280Y11344600I12056J40990D01*
G02X1831720I42720J0D01*
G02X1825840Y11322970I-42724J0D01*
G03X1831740Y11308080I8760J-5143D01*
G02X1862410Y11267090I-12056J-40990D01*
G02X1853610Y11241120I-42721J0D01*
G03X1857700Y11225590I8065J-6180D01*
G02X1883700Y11186280I-16717J-39310D01*
G02X1798260I-42720J0D01*
G02X1807060Y11212250I42721J0D01*
G03X1802970Y11227780I-8065J6180D01*
G02X1776970Y11267090I16717J39310D01*
G02X1782850Y11288720I42724J0D01*
G37*
G36*
G01X1689620Y10790440D02*
G03X1674800Y10790800I-7579J-6768D01*
G02X1649700Y10780280I-25106J24698D01*
G02Y10850720I0J35220D01*
G02X1675970Y10838960I0J-35222D01*
G03X1690790Y10838600I7579J6768D01*
G02X1715890Y10849120I25106J-24698D01*
G02X1741000Y10838590I-6J-35218D01*
G03X1755560Y10838660I7246J7124D01*
G02X1780910Y10849430I25350J-24449D01*
G02Y10778990I0J-35220D01*
G02X1755800Y10789520I6J35218D01*
G03X1741240Y10789450I-7246J-7124D01*
G02X1715890Y10778680I-25350J24449D01*
G02X1689620Y10790440I0J35222D01*
G37*
G36*
G01X1491530Y10203300D02*
G03X1478140Y10203640I-6889J-7467D01*
G02X1455600Y10195480I-22540J27051D01*
G02Y10265920I0J35220D01*
G02X1479470Y10256600I0J-35227D01*
G03X1492860Y10256260I6889J7467D01*
G02X1515400Y10264420I22540J-27051D01*
G02X1543000Y10251070I-6J-35217D01*
G03X1558760Y10250870I7961J6314D01*
G02X1585800Y10263520I27040J-22575D01*
G02X1611660Y10252210I0J-35219D01*
G03X1626310Y10251910I7469J6890D01*
G02X1651200Y10262220I24897J-24907D01*
G02X1678000Y10249850I0J-35217D01*
G03X1692580Y10248930I7735J6590D01*
G02X1716300Y10258120I23720J-26016D01*
G02Y10187680I0J-35220D01*
G02X1689500Y10200050I0J35217D01*
G03X1674920Y10200970I-7735J-6590D01*
G02X1651200Y10191780I-23720J26016D01*
G02X1625340Y10203090I0J35219D01*
G03X1610690Y10203390I-7469J-6890D01*
G02X1585800Y10193080I-24897J24907D01*
G02X1558200Y10206430I6J35217D01*
G03X1542440Y10206630I-7961J-6314D01*
G02X1515400Y10193980I-27040J22575D01*
G02X1491530Y10203300I0J35227D01*
G37*
G36*
G01X2862790Y10180070D02*
G03X2861350Y10194730I-7682J6646D01*
G02X2847790Y10222510I21663J27774D01*
G02X2918230I35220J0D01*
G02X2909620Y10199440I-35212J0D01*
G03X2911060Y10184780I7682J-6646D01*
G02X2924620Y10157000I-21663J-27774D01*
G02X2915400Y10133240I-35225J0D01*
G03X2916150Y10118790I7498J-6855D01*
G02X2927980Y10092460I-23386J-26330D01*
G02X2857540I-35220J0D01*
G02X2866760Y10116220I35225J0D01*
G03X2866010Y10130670I-7498J6855D01*
G02X2854180Y10157000I23386J26330D01*
G02X2862790Y10180070I35212J0D01*
G37*
G36*
G01X1361040Y10048250D02*
G03X1361190Y10063610I-6579J7745D01*
G02X1346780Y10095600I28304J31990D01*
G02X1432220I42720J0D01*
G02X1417160Y10063050I-42706J0D01*
G03X1417010Y10047690I6579J-7745D01*
G02X1431420Y10015700I-28304J-31990D01*
G02X1345980I-42720J0D01*
G02X1361040Y10048250I42706J0D01*
G37*
G36*
G01X1680670Y9986910D02*
G03X1684520Y10002860I-3895J9380D01*
G02X1674380Y10030500I32583J27633D01*
G02X1759820I42720J0D01*
G02X1733480Y9991040I-42728J0D01*
G03X1729630Y9975090I3895J-9380D01*
G02X1739770Y9947450I-32583J-27633D01*
G02X1654330I-42720J0D01*
G02X1680670Y9986910I42728J0D01*
G37*
G36*
G01X3480260Y9640290D02*
G03X3466670Y9640340I-6823J-7527D01*
G02X3443200Y9631380I-23470J26259D01*
G02Y9701820I0J35220D01*
G02X3466840Y9692710I0J-35227D01*
G03X3480430Y9692660I6823J7527D01*
G02X3503900Y9701620I23470J-26259D01*
G02Y9631180I0J-35220D01*
G02X3480260Y9640290I0J35227D01*
G37*
G36*
G01X3729680Y9266210D02*
G03X3740070Y9277090I256J10156D01*
G02X3739980Y9279600I35130J2516D01*
G02X3775200Y9244380I35220J0D01*
G02X3774320Y9244390I-40J35220D01*
G03X3763930Y9233510I-256J-10156D01*
G02X3764020Y9231000I-35130J-2516D01*
G02X3729250Y9195780I-35223J0D01*
G03X3719250Y9184970I137J-10157D01*
G02X3719320Y9182700I-35152J-2220D01*
G02X3648880I-35220J0D01*
G02X3683650Y9217920I35223J0D01*
G03X3693650Y9228730I-137J10157D01*
G02X3693580Y9231000I35152J2220D01*
G02X3728800Y9266220I35220J0D01*
G02X3729680Y9266210I40J-35220D01*
G37*
G36*
G01X5220550Y9392440D02*
G02X5190930Y9376280I-29620J19066D01*
G02Y9446720I0J35220D01*
G02X5220550Y9430560I0J-35226D01*
G03X5237630I8540J5499D01*
G02X5267250Y9446720I29620J-19066D01*
G02Y9376280I0J-35220D01*
G02X5237630Y9392440I0J35226D01*
G03X5220550I-8540J-5499D01*
G37*
G36*
G01X8246010Y3357200D02*
G02X8214880Y3338450I-31130J16467D01*
G02Y3408890I0J35220D01*
G02X8246010Y3390140I0J-35217D01*
G03X8263980I8985J4746D01*
G02X8295110Y3408890I31130J-16467D01*
G02Y3338450I0J-35220D01*
G02X8263980Y3357200I0J35217D01*
G03X8246010I-8985J-4746D01*
G37*
G36*
G01X7746020Y3385880D02*
G02X7714920Y3367180I-31100J16511D01*
G02Y3437620I0J35220D01*
G02X7746020Y3418920I0J-35211D01*
G03X7763970I8975J4771D01*
G02X7795070Y3437620I31100J-16511D01*
G02Y3367180I0J-35220D01*
G02X7763970Y3385880I0J35211D01*
G03X7746020I-8975J-4771D01*
G37*
G36*
G01X7649810Y4374280D02*
G02X7619400Y4356820I-30410J17752D01*
G02Y4427260I0J35220D01*
G02X7649810Y4409800I0J-35212D01*
G03X7667360I8775J5128D01*
G02X7697770Y4427260I30410J-17752D01*
G02Y4356820I0J-35220D01*
G02X7667360Y4374280I0J35212D01*
G03X7649810I-8775J-5128D01*
G37*
G36*
G01X7746020Y5392210D02*
G02X7714890Y5373460I-31130J16467D01*
G02Y5443900I0J35220D01*
G02X7746020Y5425150I0J-35217D01*
G03X7763990I8985J4746D01*
G02X7795120Y5443900I31130J-16467D01*
G02Y5373460I0J-35220D01*
G02X7763990Y5392210I0J35217D01*
G03X7746020I-8985J-4746D01*
G37*
G36*
G01X8246020D02*
G02X8214890Y5373460I-31130J16467D01*
G02Y5443900I0J35220D01*
G02X8246020Y5425150I0J-35217D01*
G03X8263990I8985J4746D01*
G02X8295120Y5443900I31130J-16467D01*
G02Y5373460I0J-35220D01*
G02X8263990Y5392210I0J35217D01*
G03X8246020I-8985J-4746D01*
G37*
G36*
G01X7647780Y6328950D02*
G02X7617070Y6310980I-30710J17256D01*
G02Y6381420I0J35220D01*
G02X7647780Y6363450I0J-35226D01*
G03X7665490I8855J4974D01*
G02X7696200Y6381420I30710J-17256D01*
G02Y6310980I0J-35220D01*
G02X7665490Y6328950I0J35226D01*
G03X7647780I-8855J-4974D01*
G37*
G36*
G01X7746020Y7392210D02*
G02X7714890Y7373460I-31130J16467D01*
G02Y7443900I0J35220D01*
G02X7746020Y7425150I0J-35217D01*
G03X7763990I8985J4746D01*
G02X7795120Y7443900I31130J-16467D01*
G02Y7373460I0J-35220D01*
G02X7763990Y7392210I0J35217D01*
G03X7746020I-8985J-4746D01*
G37*
G36*
G01X8246020D02*
G02X8214890Y7373460I-31130J16467D01*
G02Y7443900I0J35220D01*
G02X8246020Y7425150I0J-35217D01*
G03X8263990I8985J4746D01*
G02X8295120Y7443900I31130J-16467D01*
G02Y7373460I0J-35220D01*
G02X8263990Y7392210I0J35217D01*
G03X8246020I-8985J-4746D01*
G37*
G36*
G01X7649460Y8311270D02*
G02X7619840Y8295110I-29620J19066D01*
G02Y8365550I0J35220D01*
G02X7649460Y8349390I0J-35226D01*
G03X7666540I8540J5499D01*
G02X7696160Y8365550I29620J-19066D01*
G02Y8295110I0J-35220D01*
G02X7666540Y8311270I0J35226D01*
G03X7649460I-8540J-5499D01*
G37*
G36*
G01X7746020Y12994050D02*
G02X7714890Y12975300I-31130J16467D01*
G02Y13045740I0J35220D01*
G02X7746020Y13026990I0J-35217D01*
G03X7763990I8985J4746D01*
G02X7795120Y13045740I31130J-16467D01*
G02Y12975300I0J-35220D01*
G02X7763990Y12994050I0J35217D01*
G03X7746020I-8985J-4746D01*
G37*
G54D23*
X5261770Y9976630D03*
X5361770D03*
X5761770Y9876630D03*
X5661770D03*
X5463200Y9769400D03*
X5461770Y9876630D03*
X5261770D03*
X5361770D03*
X5261770Y9776630D03*
X5061770Y9876630D03*
X5161770D03*
X4776630D03*
X4876630D03*
X4576630D03*
X4676630D03*
X4376630D03*
X4476630D03*
X4176630Y9776630D03*
X4276630Y9876630D03*
X5465300Y9664100D03*
X5261770Y9676630D03*
G54D19*
X7331900Y20432700D03*
X6729700Y20359400D03*
X9105000Y20134400D03*
X9005000D03*
X8605000D03*
X8705000D03*
X8305000D03*
X8105000D03*
X7805000D03*
X7505000D03*
X6505000D03*
X6205000D03*
X3536300Y19889800D03*
X2408900Y19889200D03*
X3312580Y19758900D03*
X2605200Y19687000D03*
X8105000Y19551700D03*
X6628200Y19495900D03*
X5806100Y19479300D03*
X3312580Y19658300D03*
X6805000Y19414400D03*
X8805000Y19144000D03*
X8905000D03*
X8405000Y19094400D03*
X8505000Y19144000D03*
X8069700Y19117900D03*
X7848500Y19044300D03*
X7605000Y19108700D03*
X6624600Y18922300D03*
X1081900Y18768400D03*
X7458300Y18423200D03*
X8088700Y18214200D03*
X6707800Y18379900D03*
X9088700Y18140400D03*
X8988700D03*
X8688700D03*
X8588700D03*
X8288700D03*
X7788700D03*
X7488700D03*
X6488700D03*
X6188700D03*
X8088700Y17428600D03*
X6740600Y17493500D03*
X6567300Y17495700D03*
X5799300Y17498200D03*
X8924400Y17121800D03*
X8788700Y17150000D03*
X8388700D03*
X8488700D03*
X8069700Y17134100D03*
X7588700Y17150000D03*
X7809700Y17078500D03*
X6623900Y16930400D03*
X2099700Y16928800D03*
X1791000Y16942400D03*
X2346100Y16866700D03*
X966190Y16846010D03*
X664700Y16799500D03*
X2839000Y16553300D03*
X1441000Y16487400D03*
X7314300Y16416000D03*
X6704700Y16369400D03*
X2840800Y16377400D03*
X1558600Y16470900D03*
X1161500Y16390900D03*
X9088700Y16120300D03*
X8988700D03*
X8688700D03*
X8588700D03*
X8288700Y16216500D03*
X8088700Y16120300D03*
X7788700D03*
X7488700D03*
X6488700D03*
X6188700D03*
X2840800Y16205000D03*
X873400Y16208400D03*
X2840800Y16031700D03*
X1560200Y15914400D03*
X5724100Y15802800D03*
X1560200Y15742100D03*
X8928100Y15449600D03*
X8440000Y15511200D03*
X8088700Y15486000D03*
X7541100Y15440400D03*
X1565400Y15569600D03*
X8788700Y15420800D03*
X8488700Y15400300D03*
X6788700D03*
X6488700D03*
X1801300Y15252300D03*
X1550300Y15398100D03*
X8837200Y15006200D03*
X7888700Y15106700D03*
X6610000Y14925600D03*
X2522900Y14891100D03*
X2349600Y14890900D03*
X2038900Y14741800D03*
X2045700Y14593000D03*
X1583800Y14701400D03*
Y14608600D03*
X6667600Y14414000D03*
X6476000Y14197300D03*
X869500Y14339000D03*
X696200Y14338700D03*
X6205000Y14134400D03*
X1645000Y13960920D03*
X5795900Y13839200D03*
X1837400Y13766000D03*
X6654000Y13481000D03*
X6627400Y12923000D03*
X1878500Y13000000D03*
X1259300Y12929800D03*
X1308140Y12224960D03*
X1306600Y12117300D03*
X1715400Y11494400D03*
X1391800Y11344000D03*
X2301700Y11038000D03*
X1585840Y11084940D03*
X1455790Y11079290D03*
X1520600Y10817100D03*
X2734080Y10748320D03*
X1339900Y10716600D03*
X1908700Y10527500D03*
X2222940Y10128800D03*
X2223780Y9943900D03*
X3902900Y9873100D03*
X2223980Y9738700D03*
X2224880Y9840500D03*
X5286800Y9535200D03*
X4054400Y9659100D03*
X3584900Y9652100D03*
X2459900Y9599000D03*
X2540400Y9661900D03*
X2623800Y9678200D03*
X2223980Y9530100D03*
X2223480Y9634100D03*
X3797200Y9449000D03*
X5262900Y9085900D03*
X978100Y9103700D03*
X5320100Y9012900D03*
X1726700Y8858000D03*
X977600Y9022700D03*
X3291400Y8422300D03*
X3170400Y8530400D03*
X3391900Y8420200D03*
X1599600Y8217900D03*
X1346900Y8254300D03*
X1217300D03*
X873200Y8275600D03*
X6725000Y8171200D03*
X3592400Y8008100D03*
X3692400D03*
X3592400Y8108100D03*
X3692400D03*
X3492400Y8008100D03*
Y8108100D03*
X6505000Y7995200D03*
X6205000D03*
X3592400Y7908100D03*
X3692400D03*
X3492400D03*
X3297800Y7581500D03*
X3398600Y7580800D03*
X3291000Y7709500D03*
X3392400Y7711500D03*
X3017100Y7617400D03*
X3015540Y7731140D03*
X892500Y7730800D03*
X5156600Y7545100D03*
X4068200D03*
X6505000Y7275200D03*
X3339800Y7207900D03*
X3439800D03*
X3139800D03*
X3239800D03*
X3339800Y7107900D03*
X3439800D03*
X3139800D03*
X3239800D03*
X3069600Y7039200D03*
X6637200Y6786100D03*
X3257400Y6775100D03*
Y6875100D03*
Y6575100D03*
Y6675100D03*
X3159900Y6397800D03*
X6726700Y6225600D03*
X6505000Y5995200D03*
X6205000D03*
X2384200Y5960200D03*
X2129000Y6005100D03*
X1831400Y6018100D03*
X1029600Y5957800D03*
X826100Y5933000D03*
X5215900Y5513700D03*
X3982000D03*
X2876300Y5560300D03*
X1746700Y5529800D03*
X1452600Y5539200D03*
X6505000Y5275200D03*
X2878000Y5384400D03*
X1118700Y5381200D03*
X2879800Y5210200D03*
Y5034400D03*
X866100Y5157700D03*
X1483500Y4978500D03*
X2660900Y4645100D03*
X2760900D03*
X2660900Y4745100D03*
X2760900D03*
X2460900Y4645100D03*
X2560900D03*
X2460900Y4745100D03*
X2560900D03*
X2360900Y4645100D03*
Y4745100D03*
X1483100Y4677700D03*
X2660900Y4445100D03*
X2760900D03*
X2660900Y4545100D03*
X2760900D03*
X2460900Y4445100D03*
X2560900D03*
X2460900Y4545100D03*
X2560900D03*
X2360900Y4445100D03*
Y4545100D03*
X1597400Y4457800D03*
X1537300Y4583500D03*
X6725800Y4247500D03*
X6505000Y3995200D03*
X6205000D03*
X5287200Y3505400D03*
X3942300D03*
X2385900Y3460700D03*
X2203200Y3520400D03*
X1940200Y3515100D03*
X907400Y3441300D03*
X6505000Y3275200D03*
X1636100Y1976300D03*
Y2150400D03*
Y2322800D03*
X1634300Y2495400D03*
X2879700Y2634700D03*
X2881500Y2808800D03*
X6642000Y2778100D03*
X8005300Y2895600D03*
X1096400Y2912500D03*
X1459000Y3051600D03*
X1755500Y3041600D03*
X2881500Y2981200D03*
X7605000Y3004800D03*
X7905000D03*
X8097100Y2980100D03*
X8505000Y3004800D03*
X8405000D03*
X8905000D03*
X8805000D03*
X2881500Y3151900D03*
X8105000Y3330800D03*
X7505000Y3995200D03*
X7805000D03*
X8105000D03*
X8305000D03*
X8784500Y4067200D03*
X8605000Y3995200D03*
X9005000D03*
X9105000D03*
X7211200Y4465600D03*
X7546100Y4953400D03*
X7905000Y5004800D03*
X8005800Y4896600D03*
X8082800Y4989900D03*
X8505000Y5004800D03*
X8905000D03*
X8805000D03*
X8105000Y5338600D03*
X8499300Y5370800D03*
X7505000Y5995200D03*
X7805000D03*
X8105000D03*
X8305000D03*
X8779900Y6063100D03*
X8605000Y5995200D03*
X9005000D03*
X9105000D03*
X7203600Y6435500D03*
X8004400Y6897400D03*
X8465100Y6910500D03*
X7568600Y6944700D03*
X7905000Y7004800D03*
X8102500Y6982000D03*
X8505000Y7004800D03*
X8905000D03*
X8805000D03*
X8161700Y7332500D03*
X7805000Y7995200D03*
X8305000D03*
X8605000D03*
X9005000D03*
X9105000D03*
X7411300Y8032800D03*
X8186800Y8098900D03*
X8802700Y8094400D03*
X7286800Y8299900D03*
X9085600Y9447600D03*
X8113500Y9546500D03*
X8373500Y9575300D03*
X8933300Y10295500D03*
X8245900Y10799500D03*
X8933300Y10800200D03*
X7359200Y12385300D03*
X7429300Y12444700D03*
X7605000Y13144000D03*
X8109900Y13107100D03*
X8505000Y13144000D03*
X8405000D03*
X8763400Y13127700D03*
X8939000Y13117500D03*
X7905000Y13414400D03*
X8105000D03*
X7505000Y13864000D03*
X7805000Y14134400D03*
X8105000D03*
X8305000D03*
X8705000D03*
X8605000D03*
X9005000D03*
X9105000D03*
X7364500Y14437300D03*
G54D20*
X7059900Y20358800D03*
X5523400Y19583800D03*
X8078500Y19018800D03*
X7038000Y18377000D03*
X5549000Y17598700D03*
X8067000Y17019100D03*
X1024500Y16663200D03*
X7034900Y16346100D03*
X880300Y16386800D03*
X2252500Y15687500D03*
X2352500D03*
X2252500Y15787500D03*
X2352500D03*
X5468200Y15567500D03*
X2252500Y15487500D03*
X2352500D03*
X2252500Y15587500D03*
X2352500D03*
X2252500Y15387500D03*
X2352500D03*
X8072900Y15075400D03*
X2153200Y14972300D03*
X1941100Y14966100D03*
X2452400Y13949400D03*
Y14049400D03*
Y14149400D03*
X2352400Y13949400D03*
Y14049400D03*
Y14149400D03*
X5544200Y13581500D03*
X1557220Y13017400D03*
X1569000Y12037100D03*
X2073300Y11278500D03*
X2076600Y11386900D03*
X1714900Y11267100D03*
X1456200Y11274000D03*
X1521300Y11347500D03*
X1585300Y11274600D03*
X2170200Y11059900D03*
X3531600Y9962000D03*
X2459900Y9944000D03*
X1902700Y9943900D03*
X1849900Y10094700D03*
X1388100Y9918600D03*
X6312800Y9718900D03*
X3902200Y9784100D03*
X2370700Y9860600D03*
X1922900Y9840500D03*
X1929200Y9738700D03*
X1716100Y9812000D03*
X6005100Y9503000D03*
X3858300Y9659100D03*
X3043500Y9512200D03*
X1910400Y9530100D03*
X1911100Y9634100D03*
X1345600Y9074700D03*
X1273700Y9182200D03*
X1472600Y8157600D03*
X1345600Y8065100D03*
X1236000Y8029900D03*
X5465700Y7686600D03*
X1059500Y5724400D03*
X5561300Y5660100D03*
X1002900Y5440900D03*
X5705200Y3538800D03*
X8475900Y9777300D03*
X8954300Y9904800D03*
X8905200Y9807000D03*
X8373500Y9939500D03*
X8275700Y9995700D03*
X8373900Y10313900D03*
X9060200Y10327300D03*
X8522700Y10403500D03*
X8621400Y10597800D03*
X7917100Y13122700D03*
G54D22*
X878700Y12690800D03*
Y12436800D03*
Y12182800D03*
X874600Y11036400D03*
Y10782400D03*
Y10528400D03*
Y10274400D03*
Y10020400D03*
X809300Y8779100D03*
Y8525100D03*
G54D21*
X7370000Y19639200D03*
X7353700Y17645200D03*
Y15625100D03*
X7370000Y3500000D03*
Y5500000D03*
Y7500000D03*
Y13639200D03*
G54D18*
X3455200Y21329210D03*
X3035200D03*
X2615200D03*
X3455200Y20909210D03*
X3035200D03*
X2615200D03*
%LPD*%
G75*
G36*
G01X1969700Y13401500D02*
X2673700D01*
X2717880Y13357320D01*
Y13200230D01*
G02X2702500Y13191510I-10161J-2D01*
G03X2684400Y13196520I-18105J-30209D01*
G03Y13126080I0J-35220D01*
G03X2702500Y13131090I-5J35219D01*
G02X2717880Y13122370I5219J-8718D01*
G01Y12865460D01*
G02X2705030Y12855660I-10160J-2D01*
G03X2696820Y12856900I-9328J-33961D01*
G02X2687650Y12870650I331J10154D01*
G03X2689920Y12883100I-32952J12440D01*
G03X2619480I-35220J0D01*
G03X2653580Y12847900I35218J0D01*
G02X2662750Y12834150I-331J-10154D01*
G03X2660660Y12825280I32950J-12445D01*
G02X2651440Y12816190I-10106J1029D01*
G03X2619280Y12781100I3063J-35090D01*
G03X2654500Y12745880I35220J0D01*
G03X2689540Y12777520I0J35223D01*
G02X2698760Y12786610I10106J-1029D01*
G03X2705030Y12787740I-3086J35085D01*
G02X2717880Y12777940I2690J-9798D01*
G01Y12590030D01*
X2725900Y12582010D01*
Y12571300D01*
X4087600Y11209600D01*
X4098310D01*
X4110930Y11196980D01*
X4144960D01*
G02X4152930Y11180520I0J-10160D01*
G03X4146410Y11161770I23700J-18750D01*
G03X4206850I30220J0D01*
G03X4200330Y11180520I-30220J0D01*
G02X4208300Y11196980I7970J6300D01*
G01X4244960D01*
G02X4252930Y11180520I0J-10160D01*
G03X4246410Y11161770I23700J-18750D01*
G03X4306850I30220J0D01*
G03X4300330Y11180520I-30220J0D01*
G02X4308300Y11196980I7970J6300D01*
G01X4344960D01*
G02X4352930Y11180520I0J-10160D01*
G03X4346410Y11161770I23700J-18750D01*
G03X4406850I30220J0D01*
G03X4400330Y11180520I-30220J0D01*
G02X4408300Y11196980I7970J6300D01*
G01X4444960D01*
G02X4452930Y11180520I0J-10160D01*
G03X4446410Y11161770I23700J-18750D01*
G03X4506850I30220J0D01*
G03X4500330Y11180520I-30220J0D01*
G02X4508300Y11196980I7970J6300D01*
G01X4544960D01*
G02X4552930Y11180520I0J-10160D01*
G03X4546410Y11161770I23700J-18750D01*
G03X4606850I30220J0D01*
G03X4600330Y11180520I-30220J0D01*
G02X4608300Y11196980I7970J6300D01*
G01X4644960D01*
G02X4652930Y11180520I0J-10160D01*
G03X4646410Y11161770I23700J-18750D01*
G03X4706850I30220J0D01*
G03X4700330Y11180520I-30220J0D01*
G02X4708300Y11196980I7970J6300D01*
G01X4744960D01*
G02X4752930Y11180520I0J-10160D01*
G03X4746410Y11161770I23700J-18750D01*
G03X4806850I30220J0D01*
G03X4800330Y11180520I-30220J0D01*
G02X4808300Y11196980I7970J6300D01*
G01X4844960D01*
G02X4852930Y11180520I0J-10160D01*
G03X4846410Y11161770I23700J-18750D01*
G03X4906850I30220J0D01*
G03X4900330Y11180520I-30220J0D01*
G02X4908300Y11196980I7970J6300D01*
G01X5030100D01*
G02X5038070Y11180520I0J-10160D01*
G03X5031550Y11161770I23700J-18750D01*
G03X5091990I30220J0D01*
G03X5085470Y11180520I-30220J0D01*
G02X5093440Y11196980I7970J6300D01*
G01X5130100D01*
G02X5138070Y11180520I0J-10160D01*
G03X5131550Y11161770I23700J-18750D01*
G03X5191990I30220J0D01*
G03X5185470Y11180520I-30220J0D01*
G02X5193440Y11196980I7970J6300D01*
G01X5400030D01*
X5410480Y11186530D01*
Y10829720D01*
X4710560D01*
G02X4702020Y10845390I-1J10161D01*
G03X4706850Y10861770I-25388J16388D01*
G03X4646410I-30220J0D01*
G03X4651240Y10845390I30218J8D01*
G02X4642700Y10829720I-8539J-5509D01*
G01X4610560D01*
G02X4602020Y10845390I-1J10161D01*
G03X4606850Y10861770I-25388J16388D01*
G03X4546410I-30220J0D01*
G03X4551240Y10845390I30218J8D01*
G02X4542700Y10829720I-8539J-5509D01*
G01X4501280D01*
Y10699460D01*
G02X4487470Y10689980I-10159J1D01*
G03X4476630Y10691990I-10837J-28211D01*
G03Y10631550I0J-30220D01*
G03X4487470Y10633560I3J30221D01*
G02X4501280Y10624080I3651J-9481D01*
G01Y10514320D01*
G02X4487470Y10504840I-10159J1D01*
G03X4476630Y10506850I-10837J-28211D01*
G03Y10446410I0J-30220D01*
G03X4487470Y10448420I3J30221D01*
G02X4501280Y10438940I3651J-9481D01*
G01Y10414320D01*
G02X4487470Y10404840I-10159J1D01*
G03X4476630Y10406850I-10837J-28211D01*
G03Y10346410I0J-30220D01*
G03X4487470Y10348420I3J30221D01*
G02X4501280Y10338940I3651J-9481D01*
G01Y10327680D01*
X5086030D01*
X5127000Y10286710D01*
Y9996100D01*
X5103800Y9972900D01*
X5092150D01*
X5091970Y9977790D01*
G03X5031570I-30200J-1162D01*
G01X5031390Y9972900D01*
X4907010D01*
X4906830Y9977790D01*
G03X4846430I-30200J-1162D01*
G01X4846250Y9972900D01*
X4807010D01*
X4806830Y9977790D01*
G03X4746430I-30200J-1162D01*
G01X4746250Y9972900D01*
X4707010D01*
X4706830Y9977790D01*
G03X4646430I-30200J-1162D01*
G01X4646250Y9972900D01*
X4607010D01*
X4606830Y9977790D01*
G03X4546430I-30200J-1162D01*
G01X4546250Y9972900D01*
X4507010D01*
X4506830Y9977790D01*
G03X4446430I-30200J-1162D01*
G01X4446250Y9972900D01*
X4407010D01*
X4406830Y9977790D01*
G03X4346430I-30200J-1162D01*
G01X4346250Y9972900D01*
X4307010D01*
X4306830Y9977790D01*
G03X4246430I-30200J-1162D01*
G01X4246250Y9972900D01*
X4096220D01*
G02X4086120Y9984140I2J10159D01*
G03X4086320Y9987900I-35021J3748D01*
G03X4015880I-35220J0D01*
G03X4016080Y9984140I35221J-12D01*
G02X4005980Y9972900I-10102J-1081D01*
G01X3653400D01*
X3488880Y10137420D01*
X3490680Y10140750D01*
G03X3494910Y10157490I-30991J16736D01*
G03X3459690Y10192710I-35220J0D01*
G03X3442950Y10188480I-4J-35221D01*
G01X3439620Y10186680D01*
X2397350Y11228950D01*
G02X2400900Y11245620I7186J7183D01*
G03X2423500Y11278500I-12618J32880D01*
G03X2388280Y11313720I-35220J0D01*
G03X2355400Y11291120I0J-35218D01*
G02X2338730Y11287570I-9487J3636D01*
G01X2107440Y11518860D01*
X2107170Y11519260D01*
G03X2095760Y11530670I-35370J-23960D01*
G01X2095360Y11530940D01*
X2077410Y11548890D01*
G02X2080600Y11565420I7180J7187D01*
G03X2106520Y11604700I-16803J39280D01*
G03X2063800Y11647420I-42720J0D01*
G03X2024520Y11621500I0J-42723D01*
G02X2007990Y11618310I-9343J3990D01*
G01X1937500Y11688800D01*
Y12639310D01*
G02X1953760Y12647430I10160J-4D01*
G03X1974900Y12640380I21140J28170D01*
G03Y12710820I0J35220D01*
G03X1953760Y12703770I0J-35220D01*
G02X1937500Y12711890I-6100J8124D01*
G01Y12742720D01*
G02X1954320Y12750400I10161J6D01*
G03X1977400Y12741780I23080J26588D01*
G03Y12812220I0J35220D01*
G03X1954320Y12803600I0J-35208D01*
G02X1937500Y12811280I-6659J7674D01*
G01Y12844650D01*
G02X1954450Y12852210I10159J4D01*
G03X1978000Y12843180I23550J26194D01*
G03Y12913620I0J35220D01*
G03X1954450Y12904590I0J-35224D01*
G02X1937500Y12912150I-6791J7556D01*
G01Y13369300D01*
X1969700Y13401500D01*
G37*
G36*
G01X2779500Y13396400D02*
X3756610D01*
X5748970Y11404040D01*
G02X5746810Y11388030I-7185J-7181D01*
G03X5731550Y11361770I14965J-26260D01*
G03X5761770Y11331550I30220J0D01*
G03X5788030Y11346810I0J30225D01*
G02X5804040Y11348970I8829J-5025D01*
G01X5915680Y11237330D01*
Y10314770D01*
X5904430Y10303520D01*
X5475610D01*
X5474580Y10304000D01*
G03X5448960I-12810J-27364D01*
G01X5447930Y10303520D01*
X5375610D01*
X5374580Y10304000D01*
G03X5348960I-12810J-27364D01*
G01X5347930Y10303520D01*
X5275610D01*
X5274580Y10304000D01*
G03X5248960I-12810J-27364D01*
G01X5247930Y10303520D01*
X5175610D01*
X5174580Y10304000D01*
G03X5161770Y10306850I-12810J-27364D01*
G03X5140610Y10298200I0J-30206D01*
G01X5137020Y10294680D01*
X5091300Y10340400D01*
X4907470D01*
G02X4899710Y10357120I-3J10159D01*
G03X4906850Y10376630I-23085J19510D01*
G03X4846410I-30220J0D01*
G03X4853550Y10357120I30225J0D01*
G02X4845790Y10340400I-7757J-6561D01*
G01X4707470D01*
G02X4699710Y10357120I-3J10159D01*
G03X4706850Y10376630I-23085J19510D01*
G03X4646410I-30220J0D01*
G03X4653550Y10357120I30225J0D01*
G02X4645790Y10340400I-7757J-6561D01*
G01X4607470D01*
G02X4599710Y10357120I-3J10159D01*
G03X4606850Y10376630I-23085J19510D01*
G03X4546410I-30220J0D01*
G03X4553550Y10357120I30225J0D01*
G02X4545790Y10340400I-7757J-6561D01*
G01X4514000D01*
Y10817000D01*
X5421700D01*
X5423200Y10818500D01*
Y10933080D01*
G02X5440510Y10940300I10161J-1D01*
G03X5461770Y10931550I21266J21468D01*
G03Y10991990I0J30220D01*
G03X5440510Y10983240I6J-30218D01*
G02X5423200Y10990460I-7149J7221D01*
G01Y11191800D01*
X5405300Y11209700D01*
X4116200D01*
X3879590Y11446310D01*
G02X3882230Y11462590I7179J7190D01*
G03X3901720Y11494100I-15727J31510D01*
G03X3894740Y11515150I-35231J0D01*
G02X3896390Y11529040I8144J6076D01*
G03X3911820Y11561900I-27287J32866D01*
G03X3826380I-42720J0D01*
G03X3839370Y11531220I42725J0D01*
G02X3839960Y11517250I-7070J-7296D01*
G03X3834990Y11509830I26540J-23151D01*
G02X3818710Y11507190I-9090J4539D01*
G01X2730600Y12595300D01*
Y12816950D01*
X2730640Y12817270D01*
G03X2730920Y12821700I-34940J4432D01*
G03X2730640Y12826130I-35220J-2D01*
G01X2730600Y12826450D01*
Y13347500D01*
X2779500Y13396400D01*
G37*
G36*
G01X3128600Y14771800D02*
X3871500D01*
Y13923800D01*
X6222400Y11572900D01*
Y10201400D01*
X6087500Y10066500D01*
X5402150D01*
G02X5391990Y10076650I0J10160D01*
G03X5331550I-30220J-20D01*
G02X5321390Y10066500I-10160J10D01*
G01X5302150D01*
G02X5291990Y10076650I0J10160D01*
G03X5231550I-30220J-20D01*
G02X5221390Y10066500I-10160J10D01*
G01X5202150D01*
G02X5191990Y10076650I0J10160D01*
G03X5183200Y10097940I-30221J-18D01*
G01Y10155320D01*
G03Y10197940I-21436J21310D01*
G01Y10255320D01*
G03X5191990Y10276630I-21436J21310D01*
G03X5191840Y10279630I-30220J-7D01*
G02X5201950Y10290800I10110J1010D01*
G01X5221590D01*
G02X5231700Y10279630I0J-10160D01*
G03X5231550Y10276630I30070J-3007D01*
G03X5291990I30220J0D01*
G03X5291840Y10279630I-30220J-7D01*
G02X5301950Y10290800I10110J1010D01*
G01X5321590D01*
G02X5331700Y10279630I0J-10160D01*
G03X5331550Y10276630I30070J-3007D01*
G03X5391990I30220J0D01*
G03X5391840Y10279630I-30220J-7D01*
G02X5401950Y10290800I10110J1010D01*
G01X5421590D01*
G02X5431700Y10279630I0J-10160D01*
G03X5431550Y10276630I30070J-3007D01*
G03X5491990I30220J0D01*
G03X5491840Y10279630I-30220J-7D01*
G02X5501950Y10290800I10110J1010D01*
G01X5909700D01*
X5928400Y10309500D01*
Y11242600D01*
X3558700Y13612300D01*
X3242600D01*
X3010200Y13844700D01*
Y14653400D01*
X3128600Y14771800D01*
G37*
%LPC*%
G75*
G36*
G01X3754410Y10521640D02*
G02X3727700Y10509380I-26710J22966D01*
G02Y10579820I0J35220D01*
G02X3756790Y10564450I0J-35214D01*
G03X3772890Y10563560I8391J5728D01*
G02X3799600Y10575820I26710J-22966D01*
G02X3834820Y10540600I0J-35220D01*
G02X3833670Y10531690I-35218J16D01*
G03X3846700Y10519480I9830J-2568D01*
G02X3857800Y10521270I11086J-33432D01*
G02X3822580Y10486050I0J-35220D01*
G02X3823730Y10494960I35218J-16D01*
G03X3810700Y10507170I-9830J2568D01*
G02X3799600Y10505380I-11086J33432D01*
G02X3770510Y10520750I0J35214D01*
G03X3754410Y10521640I-8391J-5728D01*
G37*
G36*
G01X2975510Y10773100D02*
G02X2966300Y10771880I-9190J34003D01*
G02X3001520Y10807100I0J35220D01*
G02X3000090Y10797170I-35219J4D01*
G03X3012490Y10784500I9746J-2865D01*
G02X3021700Y10785720I9190J-34003D01*
G02X3029130Y10784930I12J-35221D01*
G03X3041280Y10796570I2137J9931D01*
G02X3040780Y10802500I34721J5914D01*
G02X3111220I35220J0D01*
G02X3109350Y10791180I-35219J4D01*
G03X3121260Y10778010I9621J-3270D01*
G02X3129200Y10778920I7954J-34308D01*
G02X3093980Y10743700I0J-35220D01*
G02X3095850Y10755020I35219J-4D01*
G03X3083940Y10768190I-9621J3270D01*
G02X3076000Y10767280I-7954J34308D01*
G02X3068570Y10768070I-12J35221D01*
G03X3056420Y10756430I-2137J-9931D01*
G02X3056920Y10750500I-34721J-5914D01*
G02X2986480I-35220J0D01*
G02X2987910Y10760430I35219J-4D01*
G03X2975510Y10773100I-9746J2865D01*
G37*
G54D23*
X4276630Y10076630D03*
X4176630D03*
X4476630D03*
X4376630D03*
X4676630D03*
X4576630D03*
X4876630D03*
X4776630D03*
X5061770D03*
X4176630Y10176630D03*
X4276630Y10276630D03*
Y10176630D03*
X4476630Y10276630D03*
X4376630D03*
X4476630Y10176630D03*
X4376630D03*
X4676630D03*
X4576630Y10276630D03*
X4676630D03*
X4876630Y10176630D03*
X4776630Y10276630D03*
X5061770D03*
X4276630Y10476630D03*
X4176630D03*
X4276630Y10376630D03*
X4376630Y10476630D03*
Y10376630D03*
X4176630Y10661770D03*
X4276630D03*
X4376630D03*
X4064900Y10768700D03*
X4176630Y10861770D03*
X4276630D03*
Y10761770D03*
X4476630Y10861770D03*
X4376630Y10761770D03*
X4176630Y11061770D03*
X4276630D03*
X4176630Y10961770D03*
X4276630D03*
X4376630Y11061770D03*
X4476630Y10961770D03*
X4376630D03*
X4476630Y11061770D03*
X4676630D03*
X4576630Y10961770D03*
Y11061770D03*
X4876630D03*
X4776630D03*
Y10961770D03*
X5161770Y11061770D03*
X5061770Y10961770D03*
Y11061770D03*
X5261770Y10961770D03*
X3964200Y11270300D03*
X4676630Y10476630D03*
X4576630D03*
X4776630D03*
X5061770D03*
X5161770Y10376630D03*
X5361770D03*
X5261770D03*
X5461770Y10476630D03*
X5561770D03*
X5461770Y10376630D03*
X5761770D03*
X4576630Y10661770D03*
X4676630D03*
X4876630D03*
X5161770D03*
X5361770D03*
X5261770D03*
X4776630Y10761770D03*
X5061770D03*
X5761770Y10861770D03*
X5561770Y10961770D03*
X5661770Y10976630D03*
X4276630Y11261770D03*
X4476630D03*
X4376630D03*
X4676630D03*
X4576630D03*
X4876630D03*
X4776630D03*
X5161770D03*
Y11361770D03*
X5061770Y11261770D03*
X5361770D03*
X5261770D03*
X5461770D03*
X5661770D03*
X5461770Y10176630D03*
X5561770D03*
X5661770D03*
X5761770D03*
G54D19*
X3659500Y10064100D03*
X3450360Y10287540D03*
X3529600Y10314400D03*
X3442800Y10417580D03*
X3781700Y10350700D03*
X3727000Y10440080D03*
X3308120Y10744820D03*
X2837700Y10965400D03*
X3355500Y10963700D03*
X3578800D03*
X3298900Y11084940D03*
X2386080Y11386900D03*
X3665560Y11319660D03*
X2386080Y11495300D03*
Y11604700D03*
X2654900Y12679600D03*
X3996700Y11628100D03*
X2800360Y12716560D03*
X3462400Y12818300D03*
X3460400Y13027800D03*
X3460700Y12923100D03*
X6035200Y11317600D03*
X5974900Y11213300D03*
X3304000Y13796300D03*
X3387260Y14342640D03*
G54D20*
X3904200Y10027100D03*
X3594700Y10441900D03*
X3880400Y10756600D03*
X3880510Y10858190D03*
X3883700Y10969500D03*
X3875700Y11184500D03*
X3743200Y11270100D03*
X3742900Y11369900D03*
%LPD*%
G75*
G54D10*
X734100Y3442500D03*
X696200Y14338700D03*
X664700Y16799500D03*
X907400Y3441300D03*
X866100Y5157700D03*
X826100Y5933000D03*
X892500Y7730800D03*
X873200Y8275600D03*
X869500Y14339000D03*
X873400Y16208400D03*
X1096400Y2912500D03*
X1118700Y5381200D03*
X1029600Y5957800D03*
X977600Y9022700D03*
X978100Y9103700D03*
X1161500Y16390900D03*
X966190Y16846010D03*
X1081900Y18768400D03*
X1217300Y8254300D03*
X1346900D03*
X1339900Y10716600D03*
X1195000Y12002600D03*
X1308140Y12224960D03*
X1306600Y12117300D03*
X1256100Y12037100D03*
X1309600Y12849500D03*
X1236860Y12821960D03*
X1259300Y12929800D03*
X1459000Y3051600D03*
X1537300Y4583500D03*
X1483100Y4677700D03*
X1483500Y4978500D03*
X1452600Y5539200D03*
X1585800Y10228300D03*
X1515400Y10229200D03*
X1455600Y10230700D03*
X1520600Y10817100D03*
X1455790Y11079290D03*
X1585840Y11084940D03*
X1391800Y11344000D03*
X1535500Y12696500D03*
X1583800Y14701400D03*
Y14608600D03*
X1550300Y15398100D03*
X1565400Y15569600D03*
X1560200Y15742100D03*
Y15914400D03*
X1558600Y16470900D03*
X1441000Y16487400D03*
X1636100Y1976300D03*
Y2150400D03*
Y2322800D03*
X1634300Y2495400D03*
X1755500Y3041600D03*
X1597400Y4457800D03*
X1746700Y5529800D03*
X1599600Y8217900D03*
X1726700Y8858000D03*
X1651200Y10227000D03*
X1716300Y10222900D03*
X1649700Y10815500D03*
X1715890Y10813900D03*
X1780910Y10814210D03*
X1715400Y11494400D03*
X1601600Y12693900D03*
X1645000Y13960920D03*
X1791000Y16942400D03*
X1940200Y3515100D03*
X1831400Y6018100D03*
X1908700Y10527500D03*
X1977400Y12777000D03*
X1974900Y12675600D03*
X1878500Y13000000D03*
X1978000Y12878400D03*
X1837400Y13766000D03*
X1801300Y15252300D03*
X2203200Y3520400D03*
X2129000Y6005100D03*
X2223980Y9530100D03*
X2223480Y9634100D03*
X2223980Y9738700D03*
X2224880Y9840500D03*
X2223780Y9943900D03*
X2222940Y10128800D03*
X2095800Y12542900D03*
X2195800D03*
X2038900Y14741800D03*
X2045700Y14593000D03*
X2099700Y16928800D03*
X2385900Y3460700D03*
X2360900Y4445100D03*
Y4545100D03*
Y4645100D03*
Y4745100D03*
X2384200Y5960200D03*
X2301700Y11038000D03*
X2388280Y11169100D03*
X2386080Y11386900D03*
X2388280Y11278500D03*
X2386080Y11495300D03*
Y11604700D03*
X2312600Y12624800D03*
X2295800Y12542900D03*
X2395800D03*
X2312600Y12724800D03*
Y12824800D03*
Y12924800D03*
X2349600Y14890900D03*
X2346100Y16866700D03*
X2408900Y19889200D03*
X2460900Y4445100D03*
X2560900D03*
X2460900Y4545100D03*
X2560900D03*
X2460900Y4645100D03*
X2560900D03*
X2460900Y4745100D03*
X2560900D03*
X2459900Y9599000D03*
X2540400Y9661900D03*
X2623800Y9678200D03*
X2495800Y12542900D03*
X2522900Y14891100D03*
X2605200Y19687000D03*
X2660900Y4445100D03*
X2760900D03*
X2660900Y4545100D03*
X2760900D03*
X2660900Y4645100D03*
X2760900D03*
X2660900Y4745100D03*
X2760900D03*
X2734080Y10748320D03*
X2837700Y10965400D03*
X2654500Y12781100D03*
X2654900Y12679600D03*
X2800360Y12716560D03*
X2695700Y12821700D03*
X2654700Y12883100D03*
X2684400Y13161300D03*
X2840800Y16031700D03*
Y16205000D03*
Y16377400D03*
X2839000Y16553300D03*
X2879700Y2634700D03*
X2881500Y2808800D03*
Y2981200D03*
Y3151900D03*
X2879800Y5210200D03*
Y5034400D03*
X2878000Y5384400D03*
X2876300Y5560300D03*
X3069600Y7039200D03*
X3017100Y7617400D03*
X3015540Y7731140D03*
X2892760Y10092460D03*
X2883010Y10222510D03*
X2889400Y10157000D03*
X3021700Y10750500D03*
X2966300Y10807100D03*
X2982200Y12650000D03*
X3064900Y12747500D03*
Y12847500D03*
Y12947500D03*
Y13047500D03*
X3159900Y6397800D03*
X3257400Y6575100D03*
Y6675100D03*
Y6775100D03*
Y6875100D03*
X3139800Y7107900D03*
X3239800D03*
X3139800Y7207900D03*
X3239800D03*
X3170400Y8530400D03*
X3129200Y10743700D03*
X3076000Y10802500D03*
X3082200Y12650000D03*
X3182200D03*
X3282200D03*
X3339800Y7107900D03*
X3439800D03*
X3339800Y7207900D03*
X3439800D03*
X3297800Y7581500D03*
X3398600Y7580800D03*
X3291000Y7709500D03*
X3392400Y7711500D03*
X3492400Y7908100D03*
Y8008100D03*
Y8108100D03*
X3391900Y8420200D03*
X3291400Y8422300D03*
X3443200Y9666600D03*
X3460760Y10092460D03*
X3459690Y10157490D03*
X3450360Y10287540D03*
X3442800Y10417580D03*
X3308120Y10744820D03*
X3355500Y10963700D03*
X3298900Y11084940D03*
X3462400Y12818300D03*
X3460700Y12923100D03*
X3460400Y13027800D03*
X3421100Y13912700D03*
X3304000Y13796300D03*
X3421100Y14012700D03*
Y14112700D03*
Y14212700D03*
X3387260Y14342640D03*
X3312580Y19658300D03*
Y19758900D03*
X3592400Y7908100D03*
X3692400D03*
X3592400Y8008100D03*
X3692400D03*
X3592400Y8108100D03*
X3692400D03*
X3684100Y9182700D03*
X3584900Y9652100D03*
X3503900Y9666400D03*
X3659500Y10064100D03*
X3529600Y10314400D03*
X3578800Y10963700D03*
X3665560Y11319660D03*
X3536300Y19889800D03*
X3728800Y9231000D03*
X3775200Y9279600D03*
X3797200Y9449000D03*
X3902900Y9873100D03*
X3727000Y10440080D03*
X3781700Y10350700D03*
X3799600Y10540600D03*
X3857800Y10486050D03*
X3727700Y10544600D03*
X3866500Y11494100D03*
X3942300Y3505400D03*
X3982000Y5513700D03*
X4068200Y7545100D03*
X4054400Y9659100D03*
X4051100Y9987900D03*
X4048600Y9927700D03*
X3996700Y11628100D03*
X4564990Y632500D03*
X4864990Y632510D03*
X4964990Y1176100D03*
X5064990Y1173600D03*
X5156600Y7545100D03*
X5190930Y9411500D03*
X5364990Y560010D03*
X5219100Y634500D03*
X5287200Y3505400D03*
X5215900Y5513700D03*
X5320100Y9012900D03*
X5262900Y9085900D03*
X5267250Y9411500D03*
X5286800Y9535200D03*
X5564990Y560510D03*
X5826000Y12597950D03*
Y12517720D03*
X5795900Y13839200D03*
X5724100Y15802800D03*
X5799300Y17498200D03*
X5806100Y19479300D03*
X5865010Y632510D03*
X5974890Y909020D03*
X6035200Y11317600D03*
X5974900Y11213300D03*
X6182900Y638700D03*
X6055120Y909020D03*
X6205000Y3995200D03*
Y5995200D03*
Y7995200D03*
Y14134400D03*
X6188700Y16120300D03*
Y18140400D03*
X6205000Y20134400D03*
X6465010Y632510D03*
X6642000Y2778100D03*
X6505000Y3275200D03*
Y3995200D03*
Y5275200D03*
Y5995200D03*
X6637200Y6786100D03*
X6505000Y7275200D03*
Y7995200D03*
X6627400Y12923000D03*
X6654000Y13481000D03*
X6476000Y14197300D03*
X6667600Y14414000D03*
X6610000Y14925600D03*
X6488700Y15400300D03*
Y16120300D03*
X6623900Y16930400D03*
X6567300Y17495700D03*
X6488700Y18140400D03*
X6624600Y18922300D03*
X6628200Y19495900D03*
X6505000Y20134400D03*
X6683600Y635300D03*
X6805000Y3275200D03*
X6725800Y4247500D03*
X6807100Y4947900D03*
X6805000Y5275200D03*
X6726700Y6225600D03*
X6805000Y7275200D03*
X6725000Y8171200D03*
X6805000Y13414400D03*
X6788700Y15400300D03*
X6704700Y16369400D03*
X6740600Y17493500D03*
X6707800Y18379900D03*
X6805000Y19414400D03*
X6729700Y20359400D03*
X7065010Y632510D03*
X6965010D03*
X7211200Y4465600D03*
X7203600Y6435500D03*
X7286800Y8299900D03*
X7314300Y16416000D03*
X7365010Y632510D03*
X7465010D03*
X7505000Y3995200D03*
Y5995200D03*
X7411300Y8032800D03*
X7359200Y12385300D03*
X7429300Y12444700D03*
X7505000Y13864000D03*
X7364500Y14437300D03*
X7488700Y16120300D03*
Y18140400D03*
X7458300Y18423200D03*
X7505000Y20134400D03*
X7331900Y20432700D03*
X7605000Y3004800D03*
X7714920Y3402400D03*
X7619400Y4392040D03*
X7697770D03*
X7546100Y4953400D03*
X7714890Y5408680D03*
X7696200Y6346200D03*
X7617070D03*
X7568600Y6944700D03*
X7714890Y7408680D03*
X7619840Y8330330D03*
X7696160D03*
X7714890Y13010520D03*
X7605000Y13144000D03*
X7617080Y14545290D03*
X7697310D03*
X7698590Y15533780D03*
X7541100Y15440400D03*
X7598750Y16502080D03*
X7678980D03*
X7588700Y17150000D03*
X7698590Y17553880D03*
X7598140Y18545050D03*
X7678370D03*
X7605000Y19108700D03*
X7714890Y19547880D03*
X7616890Y20566500D03*
X7697120D03*
X7765010Y632510D03*
X7905000Y3004800D03*
X7795070Y3402400D03*
X7805000Y3995200D03*
X7905000Y5004800D03*
X7795120Y5408680D03*
X7805000Y5995200D03*
X7905000Y7004800D03*
X7795120Y7408680D03*
X7805000Y7995200D03*
X7795120Y13010520D03*
X7905000Y13414400D03*
X7805000Y14134400D03*
X7888700Y15106700D03*
X7778820Y15533780D03*
X7788700Y16120300D03*
X7809700Y17078500D03*
X7778820Y17553880D03*
X7788700Y18140400D03*
X7848500Y19044300D03*
X7795120Y19547880D03*
X7805000Y20134400D03*
X8065010Y632510D03*
X8005300Y2895600D03*
X8097100Y2980100D03*
X8105000Y3330800D03*
Y3995200D03*
X8005800Y4896600D03*
X8082800Y4989900D03*
X8105000Y5338600D03*
Y5995200D03*
X8004400Y6897400D03*
X8102500Y6982000D03*
X8161700Y7332500D03*
X8113500Y9546500D03*
X8109900Y13107100D03*
X8105000Y13414400D03*
Y14134400D03*
X8088700Y15486000D03*
Y16120300D03*
X8069700Y17134100D03*
X8088700Y17428600D03*
Y18214200D03*
X8069700Y19117900D03*
X8105000Y19551700D03*
Y20134400D03*
X8365010Y632510D03*
X8295110Y3373670D03*
X8214880D03*
X8305000Y3995200D03*
X8295120Y5408680D03*
X8214890D03*
X8305000Y5995200D03*
X8295120Y7408680D03*
X8214890D03*
X8305000Y7995200D03*
X8186800Y8098900D03*
X8373500Y9575300D03*
X8245900Y10799500D03*
X8305000Y14134400D03*
X8278820Y15533780D03*
X8198590D03*
X8288700Y16216500D03*
X8198590Y17553880D03*
X8278820D03*
X8288700Y18140400D03*
X8295110Y19547880D03*
X8214880D03*
X8305000Y20134400D03*
X8465010Y632510D03*
X8405000Y3004800D03*
X8505000D03*
Y5004800D03*
X8499300Y5370800D03*
X8465100Y6910500D03*
X8505000Y7004800D03*
X8405000Y13144000D03*
X8505000D03*
X8488700Y15400300D03*
X8440000Y15511200D03*
X8588700Y16120300D03*
X8388700Y17150000D03*
X8488700D03*
X8588700Y18140400D03*
X8405000Y19094400D03*
X8505000Y19144000D03*
X8765010Y632510D03*
X8605000Y3995200D03*
X8784500Y4067200D03*
X8605000Y5995200D03*
X8779900Y6063100D03*
X8605000Y7995200D03*
X8763400Y13127700D03*
X8605000Y14134400D03*
X8705000D03*
X8788700Y15420800D03*
X8688700Y16120300D03*
X8788700Y17150000D03*
X8688700Y18140400D03*
X8605000Y20134400D03*
X8705000D03*
X8865010Y632510D03*
X8805000Y3004800D03*
X8905000D03*
X9005000Y3995200D03*
X8805000Y5004800D03*
X8905000D03*
X9005000Y5995200D03*
X8805000Y7004800D03*
X8905000D03*
X9005000Y7995200D03*
X8802700Y8094400D03*
X8933300Y10295500D03*
Y10800200D03*
X8939000Y13117500D03*
X9005000Y14134400D03*
X8837200Y15006200D03*
X8928100Y15449600D03*
X8988700Y16120300D03*
X8924400Y17121800D03*
X8988700Y18140400D03*
X8805000Y19144000D03*
X8905000D03*
X9005000Y20134400D03*
X9165010Y632510D03*
X9205000Y3004800D03*
X9105000Y3995200D03*
X9205000Y5004800D03*
X9105000Y5995200D03*
X9205000Y7004800D03*
X9105000Y7995200D03*
X9085600Y9447600D03*
X9205000Y13144000D03*
X9105000Y14134400D03*
X9188700Y15129900D03*
X9088700Y16120300D03*
X9188700Y17150000D03*
X9088700Y18140400D03*
X9205000Y19144000D03*
X9105000Y20134400D03*
X9265010Y632510D03*
X9405000Y3995200D03*
Y5995200D03*
Y7995200D03*
X9329600Y9644800D03*
X9405000Y14134400D03*
X9388700Y16120300D03*
Y18140400D03*
X9405000Y20134400D03*
X9565000Y632510D03*
X9505000Y3004800D03*
Y5004800D03*
Y7004800D03*
X9559080Y9950280D03*
X9505000Y13144000D03*
X9488700Y15129900D03*
Y17150000D03*
X9505000Y19144000D03*
X9765000Y632510D03*
X9805000Y3004800D03*
X9705000Y3995200D03*
X9805000Y5004800D03*
X9705000Y5995200D03*
X9805000Y7004800D03*
X9705000Y7995200D03*
X9805000Y13144000D03*
X9705000Y14134400D03*
X9788700Y15129900D03*
X9688700Y16120300D03*
X9788700Y17150000D03*
X9688700Y18140400D03*
X9805000Y19144000D03*
X9705000Y20134400D03*
X10065000Y632510D03*
X9905000Y3004800D03*
X10005000Y3995200D03*
X9905000Y5004800D03*
X10005000Y5995200D03*
X9905000Y7004800D03*
X10005000Y7995200D03*
X9905000Y13144000D03*
X10005000Y14134400D03*
X9888700Y15129900D03*
X9988700Y16120300D03*
X9888700Y17150000D03*
X9988700Y18140400D03*
X9905000Y19144000D03*
X10005000Y20134400D03*
X10165000Y632510D03*
X10205000Y3004800D03*
X10105000Y3995200D03*
X10205000Y5004800D03*
X10105000Y5995200D03*
X10205000Y7004800D03*
X10105000Y7995200D03*
X10205000Y13144000D03*
X10105000Y14134400D03*
X10188700Y15129900D03*
X10088700Y16120300D03*
X10188700Y17150000D03*
X10088700Y18140400D03*
X10205000Y19144000D03*
X10105000Y20134400D03*
X10465000Y632510D03*
X10305000Y3004800D03*
X10405000Y3995200D03*
X10305000Y5004800D03*
X10405000Y5995200D03*
X10305000Y7004800D03*
X10405000Y7995200D03*
X10305000Y13144000D03*
X10405000Y14134400D03*
X10288700Y15129900D03*
X10388700Y16120300D03*
X10488700D03*
X10288700Y17150000D03*
X10388700Y18140400D03*
X10488700D03*
X10305000Y19144000D03*
X10405000Y20134400D03*
X10565000Y632510D03*
X10605000Y3004800D03*
X10705000D03*
X10505000Y3995200D03*
X10605000Y5004800D03*
X10705000D03*
X10505000Y5995200D03*
X10605000Y7004800D03*
X10705000D03*
X10505000Y7995200D03*
X10705000Y13144000D03*
X10605000D03*
X10505000Y14134400D03*
X10688700Y15129900D03*
X10588700D03*
Y17150000D03*
X10688700D03*
X10705000Y19144000D03*
X10605000D03*
X10505000Y20134400D03*
X10865000Y632510D03*
X10805000Y3995200D03*
X10905000D03*
X10805000Y5995200D03*
X10905000D03*
X10805000Y7995200D03*
X10905000D03*
X10805000Y14134400D03*
X10905000D03*
X10788700Y16120300D03*
X10888700D03*
X10788700Y18140400D03*
X10888700D03*
X10805000Y20134400D03*
X10905000D03*
X10965000Y632510D03*
X11005000Y3004800D03*
Y5004800D03*
Y7004800D03*
Y13144000D03*
X10988700Y15129900D03*
Y17150000D03*
X11005000Y19144000D03*
X11265000Y632510D03*
X11205000Y3004800D03*
Y3995200D03*
Y5004800D03*
Y5995200D03*
Y7004800D03*
Y7995200D03*
Y13144000D03*
Y14134400D03*
X11188700Y15129900D03*
Y16120300D03*
Y17150000D03*
Y18140400D03*
X11205000Y19144000D03*
Y20134400D03*
X11365000Y632510D03*
X11505000Y3004800D03*
X11405000Y3995200D03*
X11505000Y5004800D03*
X11405000Y5995200D03*
X11505000Y7004800D03*
X11405000Y7995200D03*
X11505000Y13144000D03*
X11405000Y14134400D03*
X11488700Y15129900D03*
X11388700Y16120300D03*
X11488700Y17150000D03*
X11388700Y18140400D03*
X11505000Y19144000D03*
X11405000Y20134400D03*
X11765000Y632510D03*
X11665000D03*
X11605000Y3004800D03*
X11705000Y3995200D03*
X11605000Y5004800D03*
X11705000Y5995200D03*
X11605000Y7004800D03*
X11705000Y7995200D03*
X11605000Y13144000D03*
X11705000Y14134400D03*
X11588700Y15129900D03*
X11688700Y16120300D03*
X11588700Y17150000D03*
X11688700Y18140400D03*
X11605000Y19144000D03*
X11705000Y20134400D03*
X11905000Y3004800D03*
X11805000Y3995200D03*
X11905000Y5004800D03*
X11805000Y5995200D03*
X11905000Y7004800D03*
X11805000Y7995200D03*
X11905000Y13144000D03*
X11805000Y14134400D03*
X11888700Y15129900D03*
X11788700Y16120300D03*
X11888700Y17150000D03*
X11788700Y18140400D03*
X11905000Y19144000D03*
X11805000Y20134400D03*
X12165000Y632510D03*
X12065000D03*
X12005000Y3004800D03*
X12105000Y3995200D03*
X12005000Y5004800D03*
X12105000Y5995200D03*
X12005000Y7004800D03*
X12105000Y7995200D03*
X12005000Y13144000D03*
X12105000Y14134400D03*
X11988700Y15129900D03*
X12088700Y16120300D03*
X12188700D03*
X11988700Y17150000D03*
X12088700Y18140400D03*
X12188700D03*
X12005000Y19144000D03*
X12105000Y20134400D03*
X12305000Y3004800D03*
X12405000D03*
X12205000Y3995200D03*
X12305000Y5004800D03*
X12405000D03*
X12205000Y5995200D03*
X12305000Y7004800D03*
X12405000D03*
X12205000Y7995200D03*
X12405000Y13144000D03*
X12305000D03*
X12205000Y14134400D03*
X12388700Y15129900D03*
X12288700D03*
X12388700Y17150000D03*
X12288700D03*
X12305000Y19144000D03*
X12405000D03*
X12205000Y20134400D03*
X12565000Y632510D03*
X12465000D03*
X12605000Y3995200D03*
X12505000D03*
Y5995200D03*
X12605000D03*
X12505000Y7995200D03*
X12605000D03*
X12505000Y14134400D03*
X12605000D03*
X12488700Y16120300D03*
X12588700D03*
X12488700Y18140400D03*
X12588700D03*
X12605000Y20134400D03*
X12505000D03*
X12805000Y3004800D03*
X12705000D03*
X12805000Y5004800D03*
X12705000D03*
Y7004800D03*
X12805000D03*
Y13144000D03*
X12705000D03*
X12788700Y15129900D03*
X12688700D03*
Y17150000D03*
X12788700D03*
X12705000Y19144000D03*
X12805000D03*
X12865000Y632510D03*
X12905000Y3995200D03*
X13005000D03*
X12905000Y5995200D03*
X13005000D03*
X12905000Y7995200D03*
X13005000D03*
X12905000Y14134400D03*
X13005000D03*
X12888700Y16120300D03*
X12988700D03*
X12888700Y18140400D03*
X12988700D03*
X13005000Y20134400D03*
X12905000D03*
X13105000Y3004800D03*
X13205000D03*
Y5004800D03*
X13105000D03*
Y7004800D03*
X13205000D03*
Y13144000D03*
X13105000D03*
X13188700Y15129900D03*
X13088700D03*
X13188700Y17150000D03*
X13088700D03*
X13105000Y19144000D03*
X13205000D03*
X13305000Y3995200D03*
X13405000D03*
X13305000Y5995200D03*
X13405000D03*
X13305000Y7995200D03*
X13405000D03*
X13305000Y14134400D03*
X13405000D03*
X13288700Y16120300D03*
X13388700D03*
X13288700Y18140400D03*
X13388700D03*
X13405000Y20134400D03*
X13305000D03*
X13605000Y3004800D03*
X13505000D03*
Y5004800D03*
X13605000D03*
X13505000Y7004800D03*
X13605000D03*
Y13144000D03*
X13505000D03*
X13588700Y15129900D03*
X13488700D03*
X13588700Y17150000D03*
X13488700D03*
X13505000Y19144000D03*
X13605000D03*
X13705000Y3995200D03*
X13805000D03*
X13705000Y5995200D03*
X13805000D03*
X13705000Y7995200D03*
X13805000D03*
X13705000Y14134400D03*
X13805000D03*
X13888700Y15129900D03*
X13688700Y16120300D03*
X13788700D03*
X13888700Y17150000D03*
X13688700Y18140400D03*
X13788700D03*
X13705000Y20134400D03*
X13805000D03*
X14005000Y3004800D03*
X13905000D03*
Y5004800D03*
X14005000D03*
X13905000Y7004800D03*
X14005000D03*
Y13144000D03*
X13905000D03*
X13988700Y15129900D03*
X14088700Y16120300D03*
X13988700Y17150000D03*
X14088700Y18140400D03*
X13905000Y19144000D03*
X14005000D03*
X14305000Y3004800D03*
X14105000Y3995200D03*
X14205000D03*
X14305000Y5004800D03*
X14105000Y5995200D03*
X14205000D03*
X14305000Y7004800D03*
X14105000Y7995200D03*
X14205000D03*
X14305000Y13144000D03*
X14105000Y14134400D03*
X14205000D03*
X14288700Y15129900D03*
X14188700Y16120300D03*
X14288700Y17150000D03*
X14188700Y18140400D03*
X14305000Y19144000D03*
X14205000Y20134400D03*
X14105000D03*
X14505000Y3995200D03*
Y5995200D03*
Y7995200D03*
Y14134400D03*
X14488700Y16120300D03*
Y18140400D03*
X14505000Y20134400D03*
X15563100Y10130400D03*
Y11080800D03*
G54D11*
X625900Y13146200D03*
X725900D03*
X625900Y13246200D03*
X725900D03*
X625900Y13346200D03*
X725900D03*
X625900Y13446200D03*
X725900D03*
X625900Y13546200D03*
X725900D03*
X625900Y13646200D03*
X725900D03*
X625900Y13746200D03*
X725900D03*
X825900Y13146200D03*
X925900D03*
X825900Y13246200D03*
X925900D03*
X825900Y13346200D03*
X925900D03*
X825900Y13446200D03*
X925900D03*
X825900Y13546200D03*
X925900D03*
X825900Y13646200D03*
X925900D03*
X825900Y13746200D03*
X925900D03*
X887300Y20007700D03*
Y20107700D03*
Y20207700D03*
Y20307700D03*
Y20407700D03*
Y20507700D03*
Y20607700D03*
Y20707700D03*
Y20807700D03*
Y20907700D03*
X1025900Y13146200D03*
X1125900D03*
X1025900Y13246200D03*
X1125900D03*
X1025900Y13346200D03*
X1125900D03*
X1025900Y13446200D03*
X1125900D03*
X1025900Y13546200D03*
X1125900D03*
X1025900Y13646200D03*
X1125900D03*
X1025900Y13746200D03*
X1125900D03*
X987300Y20007700D03*
X1087300D03*
X987300Y20107700D03*
X1087300D03*
X987300Y20207700D03*
X1087300D03*
X987300Y20307700D03*
X1087300D03*
X987300Y20407700D03*
X1087300D03*
X987300Y20507700D03*
X1087300D03*
X987300Y20607700D03*
X1087300D03*
X987300Y20707700D03*
X1087300D03*
X987300Y20807700D03*
X1087300D03*
X987300Y20907700D03*
X1087300D03*
X1356200Y7613000D03*
Y7713000D03*
Y7813000D03*
Y7913000D03*
X1225900Y13146200D03*
X1325900D03*
X1225900Y13246200D03*
X1325900D03*
X1225900Y13346200D03*
X1325900D03*
X1225900Y13446200D03*
X1325900D03*
X1225900Y13546200D03*
X1325900D03*
X1225900Y13646200D03*
X1325900D03*
X1225900Y13746200D03*
X1325900D03*
X1187300Y20007700D03*
X1287300D03*
X1387300D03*
X1187300Y20107700D03*
X1287300D03*
X1387300D03*
X1187300Y20207700D03*
X1287300D03*
X1387300D03*
X1187300Y20307700D03*
X1287300D03*
X1387300D03*
X1187300Y20407700D03*
X1287300D03*
X1387300D03*
X1187300Y20507700D03*
X1287300D03*
X1387300D03*
X1187300Y20607700D03*
X1287300D03*
X1387300D03*
X1187300Y20707700D03*
X1287300D03*
X1387300D03*
X1187300Y20807700D03*
X1287300D03*
X1387300D03*
X1187300Y20907700D03*
X1287300D03*
X1387300D03*
X1456200Y7613000D03*
X1556200D03*
X1456200Y7713000D03*
X1556200D03*
X1456200Y7813000D03*
X1556200D03*
X1456200Y7913000D03*
X1556200D03*
X1425900Y13146200D03*
Y13246200D03*
Y13346200D03*
Y13446200D03*
Y13546200D03*
Y13646200D03*
Y13746200D03*
X1487300Y20007700D03*
X1587300D03*
X1487300Y20107700D03*
X1587300D03*
X1487300Y20207700D03*
X1587300D03*
X1487300Y20307700D03*
X1587300D03*
X1487300Y20407700D03*
X1587300D03*
X1487300Y20507700D03*
X1587300D03*
X1487300Y20607700D03*
X1587300D03*
X1487300Y20707700D03*
X1587300D03*
X1487300Y20807700D03*
X1587300D03*
X1487300Y20907700D03*
X1587300D03*
X1633680Y15062200D03*
X1687300Y20007700D03*
X1787300D03*
X1687300Y20107700D03*
X1787300D03*
X1687300Y20207700D03*
X1787300D03*
X1687300Y20307700D03*
X1787300D03*
X1687300Y20407700D03*
X1787300D03*
X1687300Y20507700D03*
X1787300D03*
X1687300Y20607700D03*
X1787300D03*
X1687300Y20707700D03*
X1787300D03*
X1687300Y20807700D03*
X1787300D03*
X1687300Y20907700D03*
X1787300D03*
X4649000Y235400D03*
X6151100Y2943500D03*
X6163700Y4947900D03*
X6307000Y6806500D03*
X6297200Y12923500D03*
X6279800Y14934100D03*
X6293700Y16959300D03*
X6294400Y18931700D03*
G54D12*
X918300Y2959000D03*
X880300Y16386800D03*
X1062600Y3224300D03*
X1002900Y5440900D03*
X1059500Y5724400D03*
X1024500Y16663200D03*
X1345600Y8065100D03*
X1236000Y8029900D03*
X1345600Y9074700D03*
X1273700Y9182200D03*
X1472600Y8157600D03*
X1389500Y10095600D03*
X1388700Y10015700D03*
X1388100Y9918600D03*
X1456200Y11274000D03*
X1521300Y11347500D03*
X1585300Y11274600D03*
X1569000Y12037100D03*
X1557220Y13017400D03*
X1716100Y9812000D03*
X1697050Y9947450D03*
X1717100Y10030500D03*
X1714900Y11267100D03*
X1789000Y11344600D03*
X1910400Y9530100D03*
X1911100Y9634100D03*
X1922900Y9840500D03*
X1929200Y9738700D03*
X1902700Y9943900D03*
X1849900Y10094700D03*
X1819690Y11267090D03*
X1840980Y11186280D03*
X1941100Y14966100D03*
X2170200Y11059900D03*
X2073300Y11278500D03*
X2076600Y11386900D03*
X2071800Y11495300D03*
X2063800Y11604700D03*
X2153200Y14972300D03*
X2283900Y1966600D03*
X2383900D03*
X2283900Y2066600D03*
X2383900D03*
X2283900Y2166600D03*
X2383900D03*
X2283900Y2266600D03*
X2383900D03*
X2283900Y2366600D03*
X2383900D03*
X2370700Y9860600D03*
X2352400Y13949400D03*
Y14049400D03*
Y14149400D03*
X2252500Y15387500D03*
X2352500D03*
X2252500Y15487500D03*
X2352500D03*
X2252500Y15587500D03*
X2352500D03*
X2252500Y15687500D03*
X2352500D03*
X2252500Y15787500D03*
X2352500D03*
X2459900Y9944000D03*
X2452400Y13949400D03*
Y14049400D03*
Y14149400D03*
X3043500Y9512200D03*
X3531600Y9962000D03*
X3594700Y10441900D03*
X3858300Y9659100D03*
X3902200Y9784100D03*
X3904200Y10027100D03*
X3880400Y10756600D03*
X3883700Y10969500D03*
X3880510Y10858190D03*
X3875700Y11184500D03*
X3742900Y11369900D03*
X3743200Y11270100D03*
X3869100Y11561900D03*
X5315300Y254300D03*
X5464990Y396510D03*
X5561300Y5660100D03*
X5465700Y7686600D03*
X5544200Y13581500D03*
X5468200Y15567500D03*
X5549000Y17598700D03*
X5523400Y19583800D03*
X5705200Y3538800D03*
X6005100Y9503000D03*
X6067600Y10020100D03*
X6312800Y9718900D03*
X7056000Y4234300D03*
X7056900Y6212900D03*
X7055200Y8186500D03*
X7066800Y14337500D03*
X7034900Y16346100D03*
X7038000Y18377000D03*
X7059900Y20358800D03*
X7917100Y13122700D03*
X8072900Y15075400D03*
X8067000Y17019100D03*
X8078500Y19018800D03*
X8275700Y9995700D03*
X8373500Y9939500D03*
X8373900Y10313900D03*
X8475900Y9777300D03*
X8522700Y10403500D03*
X8621400Y10597800D03*
X8905200Y9807000D03*
X8954300Y9904800D03*
X9060200Y10327300D03*
X9197200Y10407800D03*
X9223300Y10553800D03*
X9366200Y9806800D03*
X9485800Y10517200D03*
G54D13*
X809300Y8525100D03*
Y8779100D03*
X874600Y10020400D03*
Y10274400D03*
Y10528400D03*
Y10782400D03*
Y11036400D03*
X878700Y12182800D03*
Y12436800D03*
Y12690800D03*
G54D14*
X2615200Y20909210D03*
Y21329210D03*
X3035200Y20909210D03*
Y21329210D03*
X3455200Y20909210D03*
Y21329210D03*
G54D15*
X4064900Y10768700D03*
X3964200Y11270300D03*
X4276630Y9876630D03*
X4176630Y9776630D03*
X4276630Y10076630D03*
Y9976630D03*
X4176630Y10076630D03*
Y10176630D03*
X4276630Y10276630D03*
Y10176630D03*
Y10476630D03*
Y10376630D03*
X4176630Y10476630D03*
X4276630Y10661770D03*
X4176630D03*
Y10861770D03*
X4276630D03*
Y10761770D03*
Y11161770D03*
Y11061770D03*
X4176630D03*
Y11161770D03*
Y10961770D03*
X4276630D03*
Y11261770D03*
X4376630Y9876630D03*
X4476630D03*
X4376630Y10076630D03*
X4476630Y9976630D03*
X4376630D03*
X4476630Y10076630D03*
Y10276630D03*
X4376630D03*
Y10176630D03*
X4476630D03*
Y10376630D03*
X4376630D03*
X4476630Y10476630D03*
X4376630D03*
Y10661770D03*
X4476630D03*
Y10861770D03*
X4376630Y10761770D03*
X4476630Y11061770D03*
Y11161770D03*
X4376630Y11061770D03*
Y11161770D03*
Y10961770D03*
X4476630D03*
Y11261770D03*
X4376630D03*
X4676630Y9876630D03*
X4576630D03*
X4676630Y9976630D03*
Y10076630D03*
X4576630D03*
Y9976630D03*
Y10176630D03*
Y10276630D03*
X4676630Y10176630D03*
Y10276630D03*
Y10376630D03*
Y10476630D03*
X4576630D03*
Y10376630D03*
Y10661770D03*
X4676630D03*
X4576630Y10861770D03*
X4676630Y10761770D03*
Y10861770D03*
X4576630Y10961770D03*
X4676630Y11161770D03*
X4576630D03*
X4676630Y11061770D03*
X4576630D03*
X4676630Y10961770D03*
Y11261770D03*
X4576630D03*
X4876630Y9876630D03*
X4776630D03*
X4876630Y10076630D03*
X4776630Y9976630D03*
X4876630D03*
X4776630Y10076630D03*
X4876630Y10276630D03*
X4776630Y10176630D03*
X4876630D03*
X4776630Y10276630D03*
X4876630Y10476630D03*
X4776630Y10376630D03*
X4876630D03*
X4776630Y10476630D03*
Y10661770D03*
X4876630D03*
Y10761770D03*
X4776630D03*
Y11061770D03*
X4876630Y11161770D03*
X4776630D03*
X4876630Y11061770D03*
Y10961770D03*
X4776630D03*
X4876630Y11261770D03*
X4776630D03*
X5061770Y9876630D03*
X5161770D03*
Y9976630D03*
X5061770Y10076630D03*
X5161770D03*
X5061770Y9976630D03*
X5161770Y10276630D03*
X5061770D03*
Y10176630D03*
X5161770D03*
X5061770Y10376630D03*
X5161770Y10476630D03*
X5061770D03*
X5161770Y10376630D03*
X5061770Y10661770D03*
X5161770D03*
Y10761770D03*
X5061770Y10861770D03*
Y10761770D03*
X5161770Y10961770D03*
X5061770Y11161770D03*
X5161770D03*
X5061770Y11061770D03*
X5161770D03*
X5061770Y10961770D03*
Y11261770D03*
X5161770Y11361770D03*
Y11261770D03*
X5261770Y9676630D03*
Y9776630D03*
Y9876630D03*
X5361770D03*
Y9976630D03*
X5261770Y10076630D03*
Y9976630D03*
X5361770Y10076630D03*
Y10276630D03*
X5261770D03*
Y10176630D03*
X5361770Y10376630D03*
X5261770D03*
X5361770Y10661770D03*
X5261770D03*
X5361770Y10961770D03*
X5261770D03*
X5361770Y11261770D03*
X5261770D03*
X5465300Y9664100D03*
X5463200Y9769400D03*
X5461770Y9876630D03*
Y10276630D03*
X5561770Y10176630D03*
X5461770D03*
Y10376630D03*
X5561770Y10476630D03*
X5461770D03*
X5561770Y10961770D03*
X5461770D03*
Y11261770D03*
X5661770Y9876630D03*
X5761770D03*
X5661770Y10176630D03*
X5761770D03*
Y10376630D03*
Y10861770D03*
X5661770Y10976630D03*
X5761770Y11361770D03*
X5661770Y11261770D03*
G54D16*
X7353700Y15625100D03*
Y17645200D03*
X7370000Y3500000D03*
Y5500000D03*
Y7500000D03*
Y13639200D03*
Y19639200D03*
X14685000Y3500000D03*
Y5500000D03*
Y7500000D03*
Y13639200D03*
X14668700Y15625100D03*
Y17645200D03*
X14685000Y19639200D03*
G54D17*
G01X2615200Y20773300D02*
Y20909210D01*
G01D02*
Y21045120D01*
G01X2479290Y20909210D02*
X2615200D01*
G01D02*
X2751110D01*
G01X3035200Y20773300D02*
Y20909210D01*
G01D02*
Y21045120D01*
G01X2899290Y20909210D02*
X3035200D01*
G01D02*
X3171110D01*
G01X3455200Y20773300D02*
Y20909210D01*
G01D02*
Y21045120D01*
G01X3319290Y20909210D02*
X3455200D01*
G01D02*
X3591110D01*
M02*
