G04 ================== begin FILE IDENTIFICATION RECORD ==================*
G04 Layout Name:  pcie-pcie_3.brd*
G04 Film Name:    BOARD*
G04 File Format:  Gerber RS274X*
G04 File Origin:  Cadence Allegro 25.1-S010*
G04 Origin Date:  Mon May 11 22:08:53 2026*
G04 *
G04 Layer:  BOARD GEOMETRY/OUTLINE*
G04 Layer:  BOARD GEOMETRY/DESIGN_OUTLINE*
G04 *
G04 Offset:    (0.0000 0.0000)*
G04 Mirror:    No*
G04 Mode:      Positive*
G04 Rotation:  0*
G04 FullContactRelief:  No*
G04 UndefLineWidth:     0.1000*
G04 ================== end FILE IDENTIFICATION RECORD ====================*
%FSLAX25Y25*MOMM*%
%IR0*IPPOS*OFA0.00000B0.00000*MIA0B0*SFA1.00000B1.00000*%
%ADD10C,.1*%
G75*
%LPD*%
G75*
G54D10*
G01X14160390Y824990D02*
X14147700D01*
X14142230D01*
G03X13966970Y649730I0J-175260D01*
G01Y520190D01*
G03X14142230Y344930I175260J0D01*
G01X14472940D01*
G02X14475480Y342390I0J-2540D01*
G01Y83920D01*
G02X14475130Y82640I-2536J6D01*
G01X14336490Y-154190D01*
G02X14334300Y-155450I-2194J1280D01*
G01X13205480D01*
Y311990D01*
G03X12931190Y314870I-137160J3D01*
G01X12931160Y289460D01*
Y-450010D01*
X8120000D01*
Y287860D01*
X8118550Y312340D01*
X8110880Y335640D01*
X8097540Y356210D01*
X8079360Y372690D01*
X8057590Y383970D01*
X8033660Y389330D01*
X8009150Y388420D01*
X7985710Y381250D01*
X7964850Y368350D01*
X7947990Y350520D01*
X7936230Y329010D01*
X7930360Y305210D01*
X7930000Y287860D01*
Y-450010D01*
X5810000D01*
Y287860D01*
X5808550Y312340D01*
X5800880Y335640D01*
X5787540Y356210D01*
X5769360Y372690D01*
X5747590Y383970D01*
X5723660Y389330D01*
X5699150Y388420D01*
X5675710Y381250D01*
X5654850Y368350D01*
X5637990Y350520D01*
X5626230Y329010D01*
X5620360Y305210D01*
X5620000Y287860D01*
Y-450010D01*
X4499990D01*
Y629180D01*
X4498900Y663220D01*
X4491530Y696440D01*
X4478120Y727710D01*
X4459150Y755980D01*
X4435250Y780210D01*
X4407280Y799620D01*
X4376220Y813510D01*
X4343100Y821390D01*
X4309110Y823010D01*
X4275400Y818290D01*
X4243150Y807390D01*
X4213480Y790730D01*
X4187420Y768830D01*
X4165850Y742490D01*
X4149550Y712620D01*
X4139060Y680240D01*
X4134760Y646480D01*
X4134990Y629180D01*
Y0D01*
X3334990D01*
Y824990D01*
X1500000D01*
Y0D01*
X0D01*
Y22359600D01*
X16170000D01*
Y825000D01*
X14969990Y824990D01*
X14160390D01*
G01D02*
X14147700D01*
X14142230D01*
G03X13966970Y649730I0J-175260D01*
G01Y520190D01*
G03X14142230Y344930I175260J0D01*
G01X14472940D01*
G02X14475480Y342390I0J-2540D01*
G01Y83920D01*
G02X14475130Y82640I-2536J6D01*
G01X14336490Y-154190D01*
G02X14334300Y-155450I-2194J1280D01*
G01X13205480D01*
Y311990D01*
G03X12931190Y314870I-137160J3D01*
G01X12931160Y289460D01*
Y-450010D01*
X8120000D01*
Y287860D01*
X8118550Y312340D01*
X8110880Y335640D01*
X8097540Y356210D01*
X8079360Y372690D01*
X8057590Y383970D01*
X8033660Y389330D01*
X8009150Y388420D01*
X7985710Y381250D01*
X7964850Y368350D01*
X7947990Y350520D01*
X7936230Y329010D01*
X7930360Y305210D01*
X7930000Y287860D01*
Y-450010D01*
X5810000D01*
Y287860D01*
X5808550Y312340D01*
X5800880Y335640D01*
X5787540Y356210D01*
X5769360Y372690D01*
X5747590Y383970D01*
X5723660Y389330D01*
X5699150Y388420D01*
X5675710Y381250D01*
X5654850Y368350D01*
X5637990Y350520D01*
X5626230Y329010D01*
X5620360Y305210D01*
X5620000Y287860D01*
Y-450010D01*
X4499990D01*
Y629180D01*
X4498900Y663220D01*
X4491530Y696440D01*
X4478120Y727710D01*
X4459150Y755980D01*
X4435250Y780210D01*
X4407280Y799620D01*
X4376220Y813510D01*
X4343100Y821390D01*
X4309110Y823010D01*
X4275400Y818290D01*
X4243150Y807390D01*
X4213480Y790730D01*
X4187420Y768830D01*
X4165850Y742490D01*
X4149550Y712620D01*
X4139060Y680240D01*
X4134760Y646480D01*
X4134990Y629180D01*
Y0D01*
X3334990D01*
Y824990D01*
X1500000D01*
Y0D01*
X0D01*
Y22359600D01*
X16170000D01*
Y825000D01*
X14969990Y824990D01*
X14160390D01*
G01X8835520Y-2253740D02*
Y-2050540D01*
X8896480D01*
X8916800Y-2060700D01*
X8932040Y-2084410D01*
X8937120Y-2111500D01*
X8932040Y-2138590D01*
X8919340Y-2158910D01*
X8896480Y-2169080D01*
X8835520D01*
G01X9059040Y-2050540D02*
X9120000D01*
G01X9089520D02*
Y-2253740D01*
G01X9059040D02*
X9120000D01*
G01X9287640D02*
X9292720Y-2209720D01*
X9300340Y-2172460D01*
X9310500Y-2138590D01*
X9323200Y-2101340D01*
X9343520Y-2050540D01*
X9241920D01*
G01X9551800Y-2067480D02*
X9536560Y-2057310D01*
X9518780Y-2050540D01*
X9498460D01*
X9475600Y-2060700D01*
X9457820Y-2077630D01*
X9445120Y-2097960D01*
X9434960Y-2131820D01*
X9432420Y-2162300D01*
X9437500Y-2192780D01*
X9445120Y-2213100D01*
X9460360Y-2233420D01*
X9478140Y-2246970D01*
X9495920Y-2253740D01*
X9513700D01*
X9531480Y-2246970D01*
X9546720Y-2236810D01*
X9559420Y-2223270D01*
G01X9655940Y-2230040D02*
X9673720Y-2246970D01*
X9694040Y-2253740D01*
X9714360Y-2246970D01*
X9732140Y-2226650D01*
X9744840Y-2196170D01*
X9749920Y-2165690D01*
Y-2128440D01*
X9744840Y-2097960D01*
X9732140Y-2070860D01*
X9716900Y-2057310D01*
X9699120Y-2050540D01*
X9678800Y-2057310D01*
X9663560Y-2070860D01*
X9653400Y-2091180D01*
X9648320Y-2118280D01*
X9653400Y-2141980D01*
X9666100Y-2165690D01*
X9681340Y-2179240D01*
X9699120Y-2182620D01*
X9719440Y-2175850D01*
X9734680Y-2158910D01*
X9749920Y-2128440D01*
G01X9848980Y-2253740D02*
X9955660Y-2050540D01*
G01X9848980D02*
X9955660Y-2253740D01*
G01X10049640Y-2213100D02*
X10064880Y-2236810D01*
X10085200Y-2250350D01*
X10108060Y-2253740D01*
X10128380Y-2250350D01*
X10148700Y-2233420D01*
X10161400Y-2213100D01*
X10163940Y-2192780D01*
X10158860Y-2169080D01*
X10141080Y-2152140D01*
X10123300Y-2145370D01*
X10100440D01*
G01X10123300D02*
X10138540Y-2135210D01*
X10151240Y-2118280D01*
X10156320Y-2097960D01*
X10151240Y-2077630D01*
X10138540Y-2060700D01*
X10115680Y-2050540D01*
X10092820Y-2053930D01*
X10069960Y-2067480D01*
G01X10323960Y-2152140D02*
X10374760D01*
Y-2213100D01*
X10359520Y-2233420D01*
X10341740Y-2246970D01*
X10316340Y-2253740D01*
X10290940Y-2246970D01*
X10273160Y-2233420D01*
X10257920Y-2213100D01*
X10247760Y-2189390D01*
X10242680Y-2162300D01*
Y-2138590D01*
X10247760Y-2118280D01*
X10257920Y-2094560D01*
X10273160Y-2074250D01*
X10288400Y-2060700D01*
X10308720Y-2050540D01*
X10326500D01*
X10346820Y-2057310D01*
X10362060Y-2070860D01*
G01X10511920Y-2253740D02*
X10529700Y-2250350D01*
X10550020Y-2240200D01*
X10562720Y-2223270D01*
X10567800Y-2199550D01*
X10562720Y-2175850D01*
X10547480Y-2155530D01*
X10524620Y-2145370D01*
X10499220D01*
X10483980Y-2138590D01*
X10471280Y-2121660D01*
X10466200Y-2097960D01*
X10473820Y-2074250D01*
X10491600Y-2057310D01*
X10511920Y-2050540D01*
X10532240Y-2057310D01*
X10550020Y-2074250D01*
X10557640Y-2097960D01*
X10552560Y-2121660D01*
X10539860Y-2138590D01*
X10524620Y-2145370D01*
X10499220D01*
X10476360Y-2155530D01*
X10461120Y-2175850D01*
X10456040Y-2199550D01*
X10461120Y-2223270D01*
X10473820Y-2240200D01*
X10494140Y-2250350D01*
X10511920Y-2253740D01*
G01X10715120Y-2050540D02*
X10694800Y-2057310D01*
X10679560Y-2074250D01*
X10669400Y-2094560D01*
X10661780Y-2121660D01*
X10659240Y-2152140D01*
X10661780Y-2182620D01*
X10669400Y-2209720D01*
X10679560Y-2230040D01*
X10694800Y-2246970D01*
X10715120Y-2253740D01*
X10735440Y-2246970D01*
X10750680Y-2230040D01*
X10760840Y-2209720D01*
X10768460Y-2182620D01*
X10771000Y-2152140D01*
X10768460Y-2121660D01*
X10760840Y-2094560D01*
X10750680Y-2074250D01*
X10735440Y-2057310D01*
X10715120Y-2050540D01*
G01X10918320Y-2253740D02*
X10936100Y-2250350D01*
X10956420Y-2240200D01*
X10969120Y-2223270D01*
X10974200Y-2199550D01*
X10969120Y-2175850D01*
X10953880Y-2155530D01*
X10931020Y-2145370D01*
X10905620D01*
X10890380Y-2138590D01*
X10877680Y-2121660D01*
X10872600Y-2097960D01*
X10880220Y-2074250D01*
X10898000Y-2057310D01*
X10918320Y-2050540D01*
X10938640Y-2057310D01*
X10956420Y-2074250D01*
X10964040Y-2097960D01*
X10958960Y-2121660D01*
X10946260Y-2138590D01*
X10931020Y-2145370D01*
X10905620D01*
X10882760Y-2155530D01*
X10867520Y-2175850D01*
X10862440Y-2199550D01*
X10867520Y-2223270D01*
X10880220Y-2240200D01*
X10900540Y-2250350D01*
X10918320Y-2253740D01*
G01X11136760Y-2152140D02*
X11187560D01*
Y-2213100D01*
X11172320Y-2233420D01*
X11154540Y-2246970D01*
X11129140Y-2253740D01*
X11103740Y-2246970D01*
X11085960Y-2233420D01*
X11070720Y-2213100D01*
X11060560Y-2189390D01*
X11055480Y-2162300D01*
Y-2138590D01*
X11060560Y-2118280D01*
X11070720Y-2094560D01*
X11085960Y-2074250D01*
X11101200Y-2060700D01*
X11121520Y-2050540D01*
X11139300D01*
X11159620Y-2057310D01*
X11174860Y-2070860D01*
G01X11273920Y-2253740D02*
Y-2050540D01*
X11334880D01*
X11355200Y-2060700D01*
X11370440Y-2084410D01*
X11375520Y-2111500D01*
X11370440Y-2138590D01*
X11357740Y-2158910D01*
X11334880Y-2169080D01*
X11273920D01*
G01X11464420Y-2253740D02*
X11527920Y-2050540D01*
X11591420Y-2253740D01*
G01X11568560Y-2182620D02*
X11487280D01*
G01X11654920Y-2321470D02*
X11807320D01*
G01X11870820Y-2050540D02*
X11934320Y-2253740D01*
X11997820Y-2050540D01*
G01X12137520Y-2253740D02*
Y-2050540D01*
X12107040Y-2091180D01*
G01Y-2253740D02*
X12168000D01*
G01X12264520Y-2321470D02*
X12416920D01*
G01X12543920Y-2050540D02*
X12523600Y-2057310D01*
X12508360Y-2074250D01*
X12498200Y-2094560D01*
X12490580Y-2121660D01*
X12488040Y-2152140D01*
X12490580Y-2182620D01*
X12498200Y-2209720D01*
X12508360Y-2230040D01*
X12523600Y-2246970D01*
X12543920Y-2253740D01*
X12564240Y-2246970D01*
X12579480Y-2230040D01*
X12589640Y-2209720D01*
X12597260Y-2182620D01*
X12599800Y-2152140D01*
X12597260Y-2121660D01*
X12589640Y-2094560D01*
X12579480Y-2074250D01*
X12564240Y-2057310D01*
X12543920Y-2050540D01*
M02*
