G04 ================== begin FILE IDENTIFICATION RECORD ==================*
G04 Layout Name:  pcie-pcie_3.brd*
G04 Film Name:    GND2L*
G04 File Format:  Gerber RS274X*
G04 File Origin:  Cadence Allegro 25.1-S010*
G04 Origin Date:  Mon May 11 22:08:53 2026*
G04 *
G04 Layer:  VIA CLASS/GND_2*
G04 Layer:  PIN/GND_2*
G04 Layer:  ETCH/GND_2*
G04 *
G04 Offset:    (0.0000 0.0000)*
G04 Mirror:    No*
G04 Mode:      Positive*
G04 Rotation:  0*
G04 FullContactRelief:  No*
G04 UndefLineWidth:     0.1000*
G04 ================== end FILE IDENTIFICATION RECORD ====================*
%FSLAX25Y25*MOMM*%
%IR0*IPPOS*OFA0.00000B0.00000*MIA0B0*SFA1.00000B1.00000*%
%ADD12C,.6*%
%ADD11C,.7*%
%ADD15C,.35*%
%ADD10C,.45*%
%ADD16C,1.2*%
%ADD13C,1.37*%
%ADD14C,2.3622*%
%ADD22C,.6044*%
%ADD17C,.7044*%
%ADD18C,.8544*%
%ADD20C,.9544*%
%ADD19C,1.6244*%
%ADD21C,1.6068*%
G75*
%LPD*%
G75*
G36*
G01X7837700Y20805800D02*
X14141100D01*
X14653100Y20293800D01*
Y19712940D01*
G03Y19565460I31907J-73740D01*
G01Y17724110D01*
X14649250Y17723150D01*
G03Y17567250I19450J-77950D01*
G01X14653100Y17566290D01*
Y15704010D01*
X14649250Y15703050D01*
G03Y15547150I19450J-77950D01*
G01X14653100Y15546190D01*
Y13712940D01*
G03Y13565460I31907J-73740D01*
G01Y7573740D01*
G03Y7426260I31907J-73740D01*
G01Y5573740D01*
G03Y5426260I31907J-73740D01*
G01Y3573740D01*
G03Y3426260I31907J-73740D01*
G01Y1726400D01*
X14474900Y1548200D01*
X1819500D01*
X511200Y2856500D01*
Y9093100D01*
X761200Y9343100D01*
X1708910D01*
X1721530Y9330480D01*
X2961370D01*
X3108120Y9477230D01*
Y10212270D01*
X2766270Y10554120D01*
X2748380D01*
X2510300Y10792200D01*
X2176390D01*
X2163770Y10804820D01*
X1826280D01*
G02X1816120Y10814810I0J10161D01*
G03X1780910Y10849430I-35210J-595D01*
G03X1755560Y10838660I0J-35219D01*
G02X1741000Y10838590I-7314J7054D01*
G03X1715890Y10849120I-25116J-24688D01*
G03X1690790Y10838600I6J-35218D01*
G02X1675970Y10838960I-7241J7128D01*
G03X1649700Y10850720I-26270J-23462D01*
G03X1614480Y10815500I0J-35220D01*
G01Y10815100D01*
G02X1604320Y10804820I-10158J-121D01*
G01X1565930D01*
G02X1555780Y10815450I-1J10160D01*
G03X1555820Y10817100I-35179J1678D01*
G03X1485380I-35220J0D01*
G03X1485420Y10815450I35219J28D01*
G02X1475270Y10804820I-10149J-470D01*
G01X1265720D01*
Y12003040D01*
X1268950Y12004310D01*
G03Y12069890I-12847J32790D01*
G01X1265720Y12071160D01*
Y12083900D01*
G02X1282760Y12091380I10161J2D01*
G03X1306600Y12082080I23840J25906D01*
G03Y12152520I0J35220D01*
G03X1282760Y12143220I0J-35206D01*
G02X1265720Y12150700I-6879J7478D01*
G01Y12193040D01*
G02X1283100Y12200190I10159J4D01*
G03X1308140Y12189740I25040J24775D01*
G03X1343360Y12224960I0J35220D01*
G03X1323350Y12256720I-35210J0D01*
G02X1320560Y12273070I4393J9163D01*
G01X1782970Y12735480D01*
X2267220D01*
G02X2277380Y12725200I2J-10159D01*
G01Y12724800D01*
G03X2347820I35220J0D01*
G01Y12725200D01*
G02X2357980Y12735480I10158J121D01*
G01X2755830D01*
G02X2765800Y12723360I2J-10159D01*
G03X2765140Y12716560I34561J-6787D01*
G03X2835580I35220J0D01*
G03X2834920Y12723360I-35221J13D01*
G02X2844890Y12735480I9968J1961D01*
G01X3031640D01*
X3033010Y12732560D01*
G03X3096790I31890J14933D01*
G01X3098160Y12735480D01*
X3526030D01*
X3819430Y12442080D01*
Y10754720D01*
X3819380Y10754670D01*
Y10680430D01*
X3864230Y10635580D01*
X3975770D01*
X4031620Y10691430D01*
Y10735590D01*
G02X4047600Y10743920I10159J4D01*
G03X4064900Y10738480I17300J24788D01*
G03Y10798920I0J30220D01*
G03X4047600Y10793480I0J-30228D01*
G02X4031620Y10801810I-5821J8326D01*
G01Y11511280D01*
X4112000D01*
Y8915300D01*
X3542900Y8346200D01*
X2872100D01*
X2814500Y8288600D01*
Y7028890D01*
X2811580Y7025960D01*
Y6501060D01*
G03X2820250Y6497460I5080J-5D01*
G01X2830530Y6507740D01*
X3890330D01*
X5076690Y7694100D01*
X5322180D01*
Y3543390D01*
G02X5306460Y3534890I-10159J2D01*
G03X5287200Y3540620I-19260J-29504D01*
G03Y3470180I0J-35220D01*
G03X5306460Y3475910I0J35234D01*
G02X5322180Y3467410I5561J-8502D01*
G01Y3276030D01*
X5777930Y2820280D01*
X6609840D01*
G02X6617040Y2802950I3J-10159D01*
G03X6606780Y2778100I24964J-24850D01*
G03X6677220I35220J0D01*
G03X6666960Y2802950I-35224J0D01*
G02X6674160Y2820280I7197J7171D01*
G01X7649070D01*
X7845420Y3016630D01*
Y9013680D01*
X9547970D01*
X9658120Y9123830D01*
Y11038470D01*
X9395800Y11300790D01*
X9381130Y11286120D01*
X7845420D01*
Y15075680D01*
G02X7862990Y15082620I10158J-5D01*
G03X7888700Y15071480I25703J24083D01*
G03Y15141920I0J35220D01*
G03X7862990Y15130780I-7J-35223D01*
G02X7845420Y15137720I-7412J6945D01*
G01Y19004050D01*
G02X7850250Y19009120I5079J-3D01*
G03Y19079480I-1754J35180D01*
G02X7845420Y19084550I249J5073D01*
G01Y20779370D01*
X7837600Y20787190D01*
Y20805700D01*
X7837700Y20805800D01*
G37*
G36*
G01X5255100Y20796100D02*
X7810700D01*
X7832700Y20774100D01*
Y20176250D01*
G02X7818610Y20166880I-10161J1D01*
G03X7805000Y20169620I-13619J-32478D01*
G03Y20099180I0J-35220D01*
G03X7818610Y20101920I-9J35218D01*
G02X7832700Y20092550I3929J-9371D01*
G01Y19584040D01*
G02X7816400Y19575940I-10161J-3D01*
G03X7795120Y19583100I-21285J-28058D01*
G03X7763990Y19564350I0J-35217D01*
G02X7746020I-8985J4746D01*
G03X7714890Y19583100I-31130J-16467D01*
G03Y19512660I0J-35220D01*
G03X7746020Y19531410I0J35217D01*
G02X7763990I8985J-4746D01*
G03X7795120Y19512660I31130J16467D01*
G03X7816400Y19519820I-5J35218D01*
G02X7832700Y19511720I6139J-8097D01*
G01Y19075780D01*
G03Y19012820I15805J-31480D01*
G01Y18170630D01*
G02X7814960Y18163870I-10160J5D01*
G03X7788700Y18175620I-26260J-23469D01*
G03Y18105180I0J-35220D01*
G03X7814960Y18116930I0J35219D01*
G02X7832700Y18110170I7580J-6765D01*
G01Y17122030D01*
G02X7819670Y17112280I-10159J-4D01*
G03X7809700Y17113720I-9968J-33780D01*
G03Y17043280I0J-35220D01*
G03X7819670Y17044720I2J35220D01*
G02X7832700Y17034970I2871J-9746D01*
G01Y16150530D01*
G02X7814960Y16143770I-10160J5D01*
G03X7788700Y16155520I-26260J-23469D01*
G03Y16085080I0J-35220D01*
G03X7814960Y16096830I0J35219D01*
G02X7832700Y16090070I7580J-6765D01*
G01Y14176250D01*
G02X7818610Y14166880I-10161J1D01*
G03X7805000Y14169620I-13619J-32478D01*
G03Y14099180I0J-35220D01*
G03X7818610Y14101920I-9J35218D01*
G02X7832700Y14092550I3929J-9371D01*
G01Y13046680D01*
G02X7816400Y13038580I-10161J-3D01*
G03X7795120Y13045740I-21285J-28058D01*
G03X7763990Y13026990I0J-35217D01*
G02X7746020I-8985J4746D01*
G03X7714890Y13045740I-31130J-16467D01*
G03Y12975300I0J-35220D01*
G03X7746020Y12994050I0J35217D01*
G02X7763990I8985J-4746D01*
G03X7795120Y12975300I31130J16467D01*
G03X7816400Y12982460I-5J35218D01*
G02X7832700Y12974360I6139J-8097D01*
G01Y11273400D01*
X9386400D01*
X9395800Y11282800D01*
X9645400Y11033200D01*
Y9129100D01*
X9542700Y9026400D01*
X7832700D01*
Y8037050D01*
G02X7818610Y8027680I-10161J1D01*
G03X7805000Y8030420I-13619J-32478D01*
G03Y7959980I0J-35220D01*
G03X7818610Y7962720I-9J35218D01*
G02X7832700Y7953350I3929J-9371D01*
G01Y7444840D01*
G02X7816400Y7436740I-10161J-3D01*
G03X7795120Y7443900I-21285J-28058D01*
G03X7763990Y7425150I0J-35217D01*
G02X7746020I-8985J4746D01*
G03X7714890Y7443900I-31130J-16467D01*
G03Y7373460I0J-35220D01*
G03X7746020Y7392210I0J35217D01*
G02X7763990I8985J-4746D01*
G03X7795120Y7373460I31130J16467D01*
G03X7816400Y7380620I-5J35218D01*
G02X7832700Y7372520I6139J-8097D01*
G01Y6037050D01*
G02X7818610Y6027680I-10161J1D01*
G03X7805000Y6030420I-13619J-32478D01*
G03Y5959980I0J-35220D01*
G03X7818610Y5962720I-9J35218D01*
G02X7832700Y5953350I3929J-9371D01*
G01Y5444840D01*
G02X7816400Y5436740I-10161J-3D01*
G03X7795120Y5443900I-21285J-28058D01*
G03X7763990Y5425150I0J-35217D01*
G02X7746020I-8985J4746D01*
G03X7714890Y5443900I-31130J-16467D01*
G03Y5373460I0J-35220D01*
G03X7746020Y5392210I0J35217D01*
G02X7763990I8985J-4746D01*
G03X7795120Y5373460I31130J16467D01*
G03X7816400Y5380620I-5J35218D01*
G02X7832700Y5372520I6139J-8097D01*
G01Y4037050D01*
G02X7818610Y4027680I-10161J1D01*
G03X7805000Y4030420I-13619J-32478D01*
G03Y3959980I0J-35220D01*
G03X7818610Y3962720I-9J35218D01*
G02X7832700Y3953350I3929J-9371D01*
G01Y3438520D01*
G02X7816390Y3430430I-10161J-1D01*
G03X7795070Y3437620I-21325J-28028D01*
G03X7763970Y3418920I0J-35211D01*
G02X7746020I-8975J4771D01*
G03X7714920Y3437620I-31100J-16511D01*
G03Y3367180I0J-35220D01*
G03X7746020Y3385880I0J35211D01*
G02X7763970I8975J-4771D01*
G03X7795070Y3367180I31100J16511D01*
G03X7816390Y3374370I-5J35218D01*
G02X7832700Y3366280I6149J-8089D01*
G01Y3021900D01*
X7643800Y2833000D01*
X5783200D01*
X5334900Y3281300D01*
Y7694100D01*
X5918700Y8277900D01*
Y8536110D01*
X5930320Y8547730D01*
Y10511370D01*
X5918700Y10522990D01*
Y11526500D01*
X5916200Y11524000D01*
X5531890D01*
X5528570Y11527320D01*
X4310830D01*
X4307510Y11524000D01*
X4019100D01*
X4018900Y11523800D01*
Y10696700D01*
X3970500Y10648300D01*
X3869500D01*
X3832100Y10685700D01*
Y10749400D01*
X3832150Y10749450D01*
Y11455710D01*
G02X3847730Y11464300I10160J-4D01*
G03X3866500Y11458880I18770J29791D01*
G03Y11529320I0J35220D01*
G03X3847730Y11523900I0J-35211D01*
G02X3832150Y11532490I-5420J8594D01*
G01Y12447350D01*
X3531300Y12748200D01*
X3100390D01*
X3099760Y12752550D01*
G03X3030040I-34860J-5055D01*
G01X3029410Y12748200D01*
X2815870D01*
X2814870Y12748650D01*
G03X2800360Y12751780I-14515J-32089D01*
G03X2785850Y12748650I5J-35219D01*
G01X2784850Y12748200D01*
X2693770D01*
G02X2684980Y12763450I2J10159D01*
G03X2689540Y12777520I-30479J17652D01*
G02X2698760Y12786610I10106J-1029D01*
G03X2730920Y12821700I-3063J35090D01*
G03X2696820Y12856900I-35218J0D01*
G02X2687650Y12870650I331J10154D01*
G03X2689920Y12883100I-32952J12440D01*
G03X2619480I-35220J0D01*
G03X2653580Y12847900I35218J0D01*
G02X2662750Y12834150I-331J-10154D01*
G03X2660660Y12825280I32950J-12445D01*
G02X2651440Y12816190I-10106J1029D01*
G03X2619280Y12781100I3063J-35090D01*
G03X2624020Y12763450I35231J0D01*
G02X2615230Y12748200I-8792J-5091D01*
G01X2338920D01*
G03X2286280I-26320J-23394D01*
G01X2018770D01*
G02X2009510Y12762530I4J10160D01*
G03X2012620Y12777000I-32108J14470D01*
G03X1942180I-35220J0D01*
G03X1945290Y12762530I35218J0D01*
G02X1936030Y12748200I-9264J-4170D01*
G01X1785000D01*
X1781350Y12751850D01*
X1253000Y12223500D01*
Y12072430D01*
X1248950Y12071590D01*
G03X1221410Y12043160I7155J-34485D01*
G02X1207730Y12035440I-10008J1754D01*
G03X1195000Y12037820I-12727J-32840D01*
G03Y11967380I0J-35220D01*
G03X1229690Y11996540I0J35214D01*
G02X1243370Y12004260I10008J-1754D01*
G03X1248950Y12002610I12743J32835D01*
G01X1253000Y12001770D01*
Y10792100D01*
X1495790D01*
G03X1545410I24810J25004D01*
G01X1623380D01*
G03X1676020I26320J23394D01*
G01X1688230D01*
G03X1743550I27660J21795D01*
G01X1753400D01*
X1754910Y10790450D01*
G03X1780910Y10778990I26000J23764D01*
G03X1808330Y10792100I0J35230D01*
G01X2158500D01*
X2189900Y10760700D01*
Y10659800D01*
X2308300Y10541400D01*
X2761000D01*
X3095400Y10207000D01*
Y9482500D01*
X2956100Y9343200D01*
X1726800D01*
X939600Y10130400D01*
X563400D01*
X514700Y10179100D01*
Y16793800D01*
X628600Y16907700D01*
X1366700D01*
X5255100Y20796100D01*
G37*
G36*
G01X5515300Y10530500D02*
X5893200D01*
X5917600Y10506100D01*
Y8553000D01*
X3885060Y6520460D01*
X2824300D01*
Y7020700D01*
X2855800Y7052300D01*
X3024320D01*
G02X3034450Y7041480I-7J-10158D01*
G03X3034380Y7039200I35152J-2220D01*
G03X3104820I35220J0D01*
G03X3104750Y7041480I-35222J60D01*
G02X3114880Y7052300I10137J662D01*
G01X3517300D01*
X4015670Y7550670D01*
G02X4033000Y7543840I7178J-7189D01*
G03X4068200Y7509880I35200J1263D01*
G03X4103420Y7545100I0J35220D01*
G03X4069460Y7580300I-35223J0D01*
G02X4062630Y7597630I359J10152D01*
G01X5114300Y8649300D01*
Y10018700D01*
X5121100Y10025500D01*
X5617600D01*
Y10426800D01*
X5600100Y10444300D01*
X5515300D01*
Y10530500D01*
G37*
G36*
G01X4982700Y11331400D02*
X5113400D01*
X5114200Y11330600D01*
Y10036590D01*
X5101580Y10023970D01*
Y10004040D01*
G02X5083960Y9997140I-10161J-1D01*
G03X5061770Y10006850I-22190J-20500D01*
G03Y9946410I0J-30220D01*
G03X5083960Y9956120I0J30210D01*
G02X5101580Y9949220I7459J-6899D01*
G01Y8654570D01*
X3512030Y7065020D01*
X3093550D01*
G03X3045650I-23950J-25811D01*
G01X2868580D01*
X2850700Y7082900D01*
Y7612200D01*
X2882900Y7644400D01*
X2974960D01*
G02X2984390Y7630470I-2J-10158D01*
G03X2981880Y7617400I32712J-13058D01*
G03X3052320I35220J0D01*
G03X3049810Y7630470I-35222J12D01*
G02X3059240Y7644400I9432J3772D01*
G01X3653800D01*
X4676700Y8667300D01*
Y9846090D01*
X4681040Y9846730D01*
G03Y9906530I-4414J29900D01*
G01X4676700Y9907170D01*
Y9946090D01*
X4681040Y9946730D01*
G03Y10006530I-4414J29900D01*
G01X4676700Y10007170D01*
Y10046090D01*
X4681040Y10046730D01*
G03Y10106530I-4414J29900D01*
G01X4676700Y10107170D01*
Y10146090D01*
X4681040Y10146730D01*
G03Y10206530I-4414J29900D01*
G01X4676700Y10207170D01*
Y10246090D01*
X4681040Y10246730D01*
G03Y10306530I-4414J29900D01*
G01X4676700Y10307170D01*
Y10346090D01*
X4681040Y10346730D01*
G03Y10406530I-4414J29900D01*
G01X4676700Y10407170D01*
Y10446090D01*
X4681040Y10446730D01*
G03Y10506530I-4414J29900D01*
G01X4676700Y10507170D01*
Y10631230D01*
X4681040Y10631870D01*
G03Y10691670I-4414J29900D01*
G01X4676700Y10692310D01*
Y10731230D01*
X4681040Y10731870D01*
G03Y10791670I-4414J29900D01*
G01X4676700Y10792310D01*
Y10831230D01*
X4681040Y10831870D01*
G03Y10891670I-4414J29900D01*
G01X4676700Y10892310D01*
Y10931230D01*
X4681040Y10931870D01*
G03Y10991670I-4414J29900D01*
G01X4676700Y10992310D01*
Y11025400D01*
X4683650Y11032350D01*
X4684910Y11032710D01*
G03X4705690Y11053490I-8280J29060D01*
G01X4706050Y11054750D01*
X4783650Y11132350D01*
X4784910Y11132710D01*
G03X4805690Y11153490I-8280J29060D01*
G01X4806050Y11154750D01*
X4883650Y11232350D01*
X4884910Y11232710D01*
G03X4905690Y11253490I-8280J29060D01*
G01X4906050Y11254750D01*
X4982700Y11331400D01*
G37*
G36*
G01X4316100Y11514600D02*
X5523300D01*
X5721000Y11316900D01*
Y10825400D01*
X5515300D01*
X5514900Y10825000D01*
X5515200Y10824700D01*
Y10543220D01*
X5502580D01*
Y10431580D01*
X5594830D01*
X5604880Y10421530D01*
Y10038220D01*
X5390620D01*
G02X5383360Y10055490I0J10161D01*
G03X5391990Y10076630I-21577J21140D01*
G03X5331550I-30220J0D01*
G03X5340180Y10055490I30207J0D01*
G02X5332920Y10038220I-7260J-7109D01*
G01X5290620D01*
G02X5283360Y10055490I0J10161D01*
G03X5291990Y10076630I-21577J21140D01*
G03X5231550I-30220J0D01*
G03X5240180Y10055490I30207J0D01*
G02X5232920Y10038220I-7260J-7109D01*
G01X5190620D01*
G02X5183360Y10055490I0J10161D01*
G03X5191990Y10076630I-21577J21140D01*
G03X5161770Y10106850I-30220J0D01*
G03X5143290Y10100540I0J-30216D01*
G02X5126920Y10108580I-6210J8041D01*
G01Y10144680D01*
G02X5143290Y10152720I10160J-1D01*
G03X5161770Y10146410I18480J23906D01*
G03Y10206850I0J30220D01*
G03X5143290Y10200540I0J-30216D01*
G02X5126920Y10208580I-6210J8041D01*
G01Y10244680D01*
G02X5143290Y10252720I10160J-1D01*
G03X5161770Y10246410I18480J23906D01*
G03Y10306850I0J30220D01*
G03X5143290Y10300540I0J-30216D01*
G02X5126920Y10308580I-6210J8041D01*
G01Y10344680D01*
G02X5143290Y10352720I10160J-1D01*
G03X5161770Y10346410I18480J23906D01*
G03Y10406850I0J30220D01*
G03X5143290Y10400540I0J-30216D01*
G02X5126920Y10408580I-6210J8041D01*
G01Y10444680D01*
G02X5143290Y10452720I10160J-1D01*
G03X5161770Y10446410I18480J23906D01*
G03Y10506850I0J30220D01*
G03X5143290Y10500540I0J-30216D01*
G02X5126920Y10508580I-6210J8041D01*
G01Y10629820D01*
G02X5143290Y10637860I10160J-1D01*
G03X5161770Y10631550I18480J23906D01*
G03Y10691990I0J30220D01*
G03X5143290Y10685680I0J-30216D01*
G02X5126920Y10693720I-6210J8041D01*
G01Y10729820D01*
G02X5143290Y10737860I10160J-1D01*
G03X5161770Y10731550I18480J23906D01*
G03Y10791990I0J30220D01*
G03X5143290Y10785680I0J-30216D01*
G02X5126920Y10793720I-6210J8041D01*
G01Y10929820D01*
G02X5143290Y10937860I10160J-1D01*
G03X5161770Y10931550I18480J23906D01*
G03Y10991990I0J30220D01*
G03X5143290Y10985680I0J-30216D01*
G02X5126920Y10993720I-6210J8041D01*
G01Y11029820D01*
G02X5143290Y11037860I10160J-1D01*
G03X5161770Y11031550I18480J23906D01*
G03Y11091990I0J30220D01*
G03X5143290Y11085680I0J-30216D01*
G02X5126920Y11093720I-6210J8041D01*
G01Y11129820D01*
G02X5143290Y11137860I10160J-1D01*
G03X5161770Y11131550I18480J23906D01*
G03Y11191990I0J30220D01*
G03X5143290Y11185680I0J-30216D01*
G02X5126920Y11193720I-6210J8041D01*
G01Y11229820D01*
G02X5143290Y11237860I10160J-1D01*
G03X5161770Y11231550I18480J23906D01*
G03Y11291990I0J30220D01*
G03X5143290Y11285680I0J-30216D01*
G02X5126920Y11293720I-6210J8041D01*
G01Y11335870D01*
X5118670Y11344120D01*
X4977430D01*
X4914340Y11281020D01*
G02X4899470Y11281560I-7184J7187D01*
G03X4876630Y11291990I-22840J-19793D01*
G03X4846410Y11261770I0J-30220D01*
G03X4856840Y11238930I30223J0D01*
G02X4857380Y11224060I-6647J-7686D01*
G01X4814340Y11181020D01*
G02X4799470Y11181560I-7184J7187D01*
G03X4776630Y11191990I-22840J-19793D01*
G03X4746410Y11161770I0J-30220D01*
G03X4756840Y11138930I30223J0D01*
G02X4757380Y11124060I-6647J-7686D01*
G01X4714340Y11081020D01*
G02X4699470Y11081560I-7184J7187D01*
G03X4676630Y11091990I-22840J-19793D01*
G03X4646410Y11061770I0J-30220D01*
G03X4661450Y11035640I30219J0D01*
G01X4663980Y11034170D01*
Y10989370D01*
X4661450Y10987900D01*
G03Y10935640I15179J-26130D01*
G01X4663980Y10934170D01*
Y10889370D01*
X4661450Y10887900D01*
G03Y10835640I15179J-26130D01*
G01X4663980Y10834170D01*
Y10789370D01*
X4661450Y10787900D01*
G03Y10735640I15179J-26130D01*
G01X4663980Y10734170D01*
Y10689370D01*
X4661450Y10687900D01*
G03Y10635640I15179J-26130D01*
G01X4663980Y10634170D01*
Y10504230D01*
X4661450Y10502760D01*
G03Y10450500I15179J-26130D01*
G01X4663980Y10449030D01*
Y10404230D01*
X4661450Y10402760D01*
G03Y10350500I15179J-26130D01*
G01X4663980Y10349030D01*
Y10304230D01*
X4661450Y10302760D01*
G03Y10250500I15179J-26130D01*
G01X4663980Y10249030D01*
Y10204230D01*
X4661450Y10202760D01*
G03Y10150500I15179J-26130D01*
G01X4663980Y10149030D01*
Y10104230D01*
X4661450Y10102760D01*
G03Y10050500I15179J-26130D01*
G01X4663980Y10049030D01*
Y10004230D01*
X4661450Y10002760D01*
G03Y9950500I15179J-26130D01*
G01X4663980Y9949030D01*
Y9904230D01*
X4661450Y9902760D01*
G03Y9850500I15179J-26130D01*
G01X4663980Y9849030D01*
Y8672570D01*
X3648530Y7657120D01*
X2870280D01*
X2852500Y7674900D01*
Y8307600D01*
X3556500D01*
X4142160Y8893260D01*
Y9744390D01*
G02X4158440Y9752500I10160J-1D01*
G03X4176630Y9746410I18190J24121D01*
G03Y9806850I0J30220D01*
G03X4158440Y9800760I0J-30211D01*
G02X4142160Y9808870I-6120J8111D01*
G01Y10044390D01*
G02X4158440Y10052500I10160J-1D01*
G03X4176630Y10046410I18190J24121D01*
G03Y10106850I0J30220D01*
G03X4158440Y10100760I0J-30211D01*
G02X4142160Y10108870I-6120J8111D01*
G01Y10144390D01*
G02X4158440Y10152500I10160J-1D01*
G03X4176630Y10146410I18190J24121D01*
G03Y10206850I0J30220D01*
G03X4158440Y10200760I0J-30211D01*
G02X4142160Y10208870I-6120J8111D01*
G01Y10444390D01*
G02X4158440Y10452500I10160J-1D01*
G03X4176630Y10446410I18190J24121D01*
G03Y10506850I0J30220D01*
G03X4158440Y10500760I0J-30211D01*
G02X4142160Y10508870I-6120J8111D01*
G01Y10629530D01*
G02X4158440Y10637640I10160J-1D01*
G03X4176630Y10631550I18190J24121D01*
G03Y10691990I0J30220D01*
G03X4158440Y10685900I0J-30211D01*
G02X4142160Y10694010I-6120J8111D01*
G01Y10829530D01*
G02X4158440Y10837640I10160J-1D01*
G03X4176630Y10831550I18190J24121D01*
G03Y10891990I0J30220D01*
G03X4158440Y10885900I0J-30211D01*
G02X4142160Y10894010I-6120J8111D01*
G01Y10929530D01*
G02X4158440Y10937640I10160J-1D01*
G03X4176630Y10931550I18190J24121D01*
G03Y10991990I0J30220D01*
G03X4158440Y10985900I0J-30211D01*
G02X4142160Y10994010I-6120J8111D01*
G01Y11029530D01*
G02X4158440Y11037640I10160J-1D01*
G03X4176630Y11031550I18190J24121D01*
G03Y11091990I0J30220D01*
G03X4158440Y11085900I0J-30211D01*
G02X4142160Y11094010I-6120J8111D01*
G01Y11129530D01*
G02X4158440Y11137640I10160J-1D01*
G03X4176630Y11131550I18190J24121D01*
G03Y11191990I0J30220D01*
G03X4158440Y11185900I0J-30211D01*
G02X4142160Y11194010I-6120J8111D01*
G01Y11340660D01*
X4316100Y11514600D01*
G37*
%LPC*%
G75*
G36*
G01X3729680Y9266210D02*
G03X3740070Y9277090I256J10156D01*
G02X3739980Y9279600I35130J2516D01*
G02X3775200Y9244380I35220J0D01*
G02X3774320Y9244390I-40J35220D01*
G03X3763930Y9233510I-256J-10156D01*
G02X3764020Y9231000I-35130J-2516D01*
G02X3729250Y9195780I-35223J0D01*
G03X3719250Y9184970I137J-10157D01*
G02X3719320Y9182700I-35152J-2220D01*
G02X3648880I-35220J0D01*
G02X3683650Y9217920I35223J0D01*
G03X3693650Y9228730I-137J10157D01*
G02X3693580Y9231000I35152J2220D01*
G02X3728800Y9266220I35220J0D01*
G02X3729680Y9266210I40J-35220D01*
G37*
G36*
G01X3480260Y9640290D02*
G03X3466670Y9640340I-6823J-7527D01*
G02X3443200Y9631380I-23470J26259D01*
G02Y9701820I0J35220D01*
G02X3466840Y9692710I0J-35227D01*
G03X3480430Y9692660I6823J7527D01*
G02X3503900Y9701620I23470J-26259D01*
G02Y9631180I0J-35220D01*
G02X3480260Y9640290I0J35227D01*
G37*
G36*
G01X4023250Y9952150D02*
G03X4023810Y9965630I-7309J7055D01*
G02X4015880Y9987900I27292J22265D01*
G02X4086320I35220J0D01*
G02X4076450Y9963450I-35219J0D01*
G03X4075890Y9949970I7309J-7055D01*
G02X4083820Y9927700I-27292J-22265D01*
G02X4013380I-35220J0D01*
G02X4023250Y9952150I35219J0D01*
G37*
G36*
G01X3435780Y10117290D02*
G03X3435540Y10131850I-7203J7163D01*
G02X3424470Y10157490I24158J25640D01*
G02X3494910I35220J0D01*
G02X3484670Y10132660I-35224J0D01*
G03X3484910Y10118100I7203J-7163D01*
G02X3495980Y10092460I-24158J-25640D01*
G02X3425540I-35220J0D01*
G02X3435780Y10117290I35224J0D01*
G37*
G36*
G01X8246010Y3357200D02*
G02X8214880Y3338450I-31130J16467D01*
G02Y3408890I0J35220D01*
G02X8246010Y3390140I0J-35217D01*
G03X8263980I8985J4746D01*
G02X8295110Y3408890I31130J-16467D01*
G02Y3338450I0J-35220D01*
G02X8263980Y3357200I0J35217D01*
G03X8246010I-8985J-4746D01*
G37*
G36*
G01X8246020Y5392210D02*
G02X8214890Y5373460I-31130J16467D01*
G02Y5443900I0J35220D01*
G02X8246020Y5425150I0J-35217D01*
G03X8263990I8985J4746D01*
G02X8295120Y5443900I31130J-16467D01*
G02Y5373460I0J-35220D01*
G02X8263990Y5392210I0J35217D01*
G03X8246020I-8985J-4746D01*
G37*
G36*
G01Y7392210D02*
G02X8214890Y7373460I-31130J16467D01*
G02Y7443900I0J35220D01*
G02X8246020Y7425150I0J-35217D01*
G03X8263990I8985J4746D01*
G02X8295120Y7443900I31130J-16467D01*
G02Y7373460I0J-35220D01*
G02X8263990Y7392210I0J35217D01*
G03X8246020I-8985J-4746D01*
G37*
G36*
G01X1414980Y7937040D02*
G02X1497420I41220J-24036D01*
G03X1514980I8780J5116D01*
G02X1556200Y7960720I41220J-24036D01*
G02X1603920Y7913000I0J-47720D01*
G02X1580240Y7871780I-47716J0D01*
G03Y7854220I5116J-8780D01*
G02Y7771780I-24036J-41220D01*
G03Y7754220I5116J-8780D01*
G02Y7671780I-24036J-41220D01*
G03Y7654220I5116J-8780D01*
G02X1603920Y7613000I-24036J-41220D01*
G02X1556200Y7565280I-47720J0D01*
G02X1514980Y7588960I0J47716D01*
G03X1497420I-8780J-5116D01*
G02X1414980I-41220J24036D01*
G03X1397420I-8780J-5116D01*
G02X1356200Y7565280I-41220J24036D01*
G02X1308480Y7613000I0J47720D01*
G02X1332160Y7654220I47716J0D01*
G03Y7671780I-5116J8780D01*
G02Y7754220I24036J41220D01*
G03Y7771780I-5116J8780D01*
G02Y7854220I24036J41220D01*
G03Y7871780I-5116J8780D01*
G02X1308480Y7913000I24036J41220D01*
G02X1356200Y7960720I47720J0D01*
G02X1397420Y7937040I0J-47716D01*
G03X1414980I8780J5116D01*
G37*
G36*
G01X3754410Y10521640D02*
G02X3727700Y10509380I-26710J22966D01*
G02Y10579820I0J35220D01*
G02X3756790Y10564450I0J-35214D01*
G03X3772890Y10563560I8391J5728D01*
G02X3799600Y10575820I26710J-22966D01*
G02X3834820Y10540600I0J-35220D01*
G02X3833670Y10531690I-35218J16D01*
G03X3846700Y10519480I9830J-2568D01*
G02X3857800Y10521270I11086J-33432D01*
G02X3822580Y10486050I0J-35220D01*
G02X3823730Y10494960I35218J-16D01*
G03X3810700Y10507170I-9830J2568D01*
G02X3799600Y10505380I-11086J33432D01*
G02X3770510Y10520750I0J35214D01*
G03X3754410Y10521640I-8391J-5728D01*
G37*
G36*
G01X2975510Y10773100D02*
G02X2966300Y10771880I-9190J34003D01*
G02X3001520Y10807100I0J35220D01*
G02X3000090Y10797170I-35219J4D01*
G03X3012490Y10784500I9746J-2865D01*
G02X3021700Y10785720I9190J-34003D01*
G02X3029130Y10784930I12J-35221D01*
G03X3041280Y10796570I2137J9931D01*
G02X3040780Y10802500I34721J5914D01*
G02X3111220I35220J0D01*
G02X3109350Y10791180I-35219J4D01*
G03X3121260Y10778010I9621J-3270D01*
G02X3129200Y10778920I7954J-34308D01*
G02X3093980Y10743700I0J-35220D01*
G02X3095850Y10755020I35219J-4D01*
G03X3083940Y10768190I-9621J3270D01*
G02X3076000Y10767280I-7954J34308D01*
G02X3068570Y10768070I-12J35221D01*
G03X3056420Y10756430I-2137J-9931D01*
G02X3056920Y10750500I-34721J-5914D01*
G02X2986480I-35220J0D01*
G02X2987910Y10760430I35219J-4D01*
G03X2975510Y10773100I-9746J2865D01*
G37*
G36*
G01X8229720Y15517310D02*
G02X8198590Y15498560I-31130J16467D01*
G02Y15569000I0J35220D01*
G02X8229720Y15550250I0J-35217D01*
G03X8247690I8985J4746D01*
G02X8278820Y15569000I31130J-16467D01*
G02Y15498560I0J-35220D01*
G02X8247690Y15517310I0J35217D01*
G03X8229720I-8985J-4746D01*
G37*
G36*
G01Y17537410D02*
G02X8198590Y17518660I-31130J16467D01*
G02Y17589100I0J35220D01*
G02X8229720Y17570350I0J-35217D01*
G03X8247690I8985J4746D01*
G02X8278820Y17589100I31130J-16467D01*
G02Y17518660I0J-35220D01*
G02X8247690Y17537410I0J35217D01*
G03X8229720I-8985J-4746D01*
G37*
G36*
G01X8246010Y19531410D02*
G02X8214880Y19512660I-31130J16467D01*
G02Y19583100I0J35220D01*
G02X8246010Y19564350I0J-35217D01*
G03X8263980I8985J4746D01*
G02X8295110Y19583100I31130J-16467D01*
G02Y19512660I0J-35220D01*
G02X8263980Y19531410I0J35217D01*
G03X8246010I-8985J-4746D01*
G37*
G36*
G01X2862790Y10180070D02*
G03X2861350Y10194730I-7682J6646D01*
G02X2847790Y10222510I21663J27774D01*
G02X2918230I35220J0D01*
G02X2909620Y10199440I-35212J0D01*
G03X2911060Y10184780I7682J-6646D01*
G02X2924620Y10157000I-21663J-27774D01*
G02X2915400Y10133240I-35225J0D01*
G03X2916150Y10118790I7498J-6855D01*
G02X2927980Y10092460I-23386J-26330D01*
G02X2857540I-35220J0D01*
G02X2866760Y10116220I35225J0D01*
G03X2866010Y10130670I-7498J6855D01*
G02X2854180Y10157000I23386J26330D01*
G02X2862790Y10180070I35212J0D01*
G37*
G36*
G01X1491530Y10203300D02*
G03X1478140Y10203640I-6889J-7467D01*
G02X1455600Y10195480I-22540J27051D01*
G02Y10265920I0J35220D01*
G02X1479470Y10256600I0J-35227D01*
G03X1492860Y10256260I6889J7467D01*
G02X1515400Y10264420I22540J-27051D01*
G02X1543000Y10251070I-6J-35217D01*
G03X1558760Y10250870I7961J6314D01*
G02X1585800Y10263520I27040J-22575D01*
G02X1611660Y10252210I0J-35219D01*
G03X1626310Y10251910I7469J6890D01*
G02X1651200Y10262220I24897J-24907D01*
G02X1678000Y10249850I0J-35217D01*
G03X1692580Y10248930I7735J6590D01*
G02X1716300Y10258120I23720J-26016D01*
G02Y10187680I0J-35220D01*
G02X1689500Y10200050I0J35217D01*
G03X1674920Y10200970I-7735J-6590D01*
G02X1651200Y10191780I-23720J26016D01*
G02X1625340Y10203090I0J35219D01*
G03X1610690Y10203390I-7469J-6890D01*
G02X1585800Y10193080I-24897J24907D01*
G02X1558200Y10206430I6J35217D01*
G03X1542440Y10206630I-7961J-6314D01*
G02X1515400Y10193980I-27040J22575D01*
G02X1491530Y10203300I0J35227D01*
G37*
G36*
G01X1575000Y12670810D02*
G03X1560200Y12671400I-7677J-6655D01*
G02X1535500Y12661280I-24706J25098D01*
G02Y12731720I0J35220D01*
G02X1562100Y12719590I0J-35231D01*
G03X1576900Y12719000I7677J6655D01*
G02X1601600Y12729120I24706J-25098D01*
G02Y12658680I0J-35220D01*
G02X1575000Y12670810I0J35231D01*
G37*
G36*
G01X7649810Y4374280D02*
G02X7619400Y4356820I-30410J17752D01*
G02Y4427260I0J35220D01*
G02X7649810Y4409800I0J-35212D01*
G03X7667360I8775J5128D01*
G02X7697770Y4427260I30410J-17752D01*
G02Y4356820I0J-35220D01*
G02X7667360Y4374280I0J35212D01*
G03X7649810I-8775J-5128D01*
G37*
G36*
G01X7647780Y6328950D02*
G02X7617070Y6310980I-30710J17256D01*
G02Y6381420I0J35220D01*
G02X7647780Y6363450I0J-35226D01*
G03X7665490I8855J4974D01*
G02X7696200Y6381420I30710J-17256D01*
G02Y6310980I0J-35220D01*
G02X7665490Y6328950I0J35226D01*
G03X7647780I-8855J-4974D01*
G37*
G36*
G01X7649460Y8311270D02*
G02X7619840Y8295110I-29620J19066D01*
G02Y8365550I0J35220D01*
G02X7649460Y8349390I0J-35226D01*
G03X7666540I8540J5499D01*
G02X7696160Y8365550I29620J-19066D01*
G02Y8295110I0J-35220D01*
G02X7666540Y8311270I0J35226D01*
G03X7649460I-8540J-5499D01*
G37*
G36*
G01X5809530Y12566820D02*
G02X5790780Y12597950I16467J31130D01*
G02X5861220I35220J0D01*
G02X5842470Y12566820I-35217J0D01*
G03Y12548850I4746J-8985D01*
G02X5861220Y12517720I-16467J-31130D01*
G02X5790780I-35220J0D01*
G02X5809530Y12548850I35217J0D01*
G03Y12566820I-4746J8985D01*
G37*
G36*
G01X1274950Y12855790D02*
G02X1309600Y12884720I34650J-6285D01*
G02Y12814280I0J-35220D01*
G02X1287800Y12821840I0J35211D01*
G03X1271510Y12815670I-6291J-7980D01*
G02X1236860Y12786740I-34650J6285D01*
G02Y12857180I0J35220D01*
G02X1258660Y12849620I0J-35211D01*
G03X1274950Y12855790I6291J7980D01*
G37*
G36*
G01X1284680Y13770240D02*
G02X1367120I41220J-24036D01*
G03X1384680I8780J5116D01*
G02X1425900Y13793920I41220J-24036D01*
G02X1473620Y13746200I0J-47720D01*
G02X1449940Y13704980I-47716J0D01*
G03Y13687420I5116J-8780D01*
G02Y13604980I-24036J-41220D01*
G03Y13587420I5116J-8780D01*
G02Y13504980I-24036J-41220D01*
G03Y13487420I5116J-8780D01*
G02Y13404980I-24036J-41220D01*
G03Y13387420I5116J-8780D01*
G02Y13304980I-24036J-41220D01*
G03Y13287420I5116J-8780D01*
G02Y13204980I-24036J-41220D01*
G03Y13187420I5116J-8780D01*
G02X1473620Y13146200I-24036J-41220D01*
G02X1425900Y13098480I-47720J0D01*
G02X1384680Y13122160I0J47716D01*
G03X1367120I-8780J-5116D01*
G02X1284680I-41220J24036D01*
G03X1267120I-8780J-5116D01*
G02X1184680I-41220J24036D01*
G03X1167120I-8780J-5116D01*
G02X1084680I-41220J24036D01*
G03X1067120I-8780J-5116D01*
G02X984680I-41220J24036D01*
G03X967120I-8780J-5116D01*
G02X884680I-41220J24036D01*
G03X867120I-8780J-5116D01*
G02X784680I-41220J24036D01*
G03X767120I-8780J-5116D01*
G02X684680I-41220J24036D01*
G03X667120I-8780J-5116D01*
G02X625900Y13098480I-41220J24036D01*
G02X578180Y13146200I0J47720D01*
G02X601860Y13187420I47716J0D01*
G03Y13204980I-5116J8780D01*
G02Y13287420I24036J41220D01*
G03Y13304980I-5116J8780D01*
G02Y13387420I24036J41220D01*
G03Y13404980I-5116J8780D01*
G02Y13487420I24036J41220D01*
G03Y13504980I-5116J8780D01*
G02Y13587420I24036J41220D01*
G03Y13604980I-5116J8780D01*
G02Y13687420I24036J41220D01*
G03Y13704980I-5116J8780D01*
G02X578180Y13746200I24036J41220D01*
G02X625900Y13793920I47720J0D01*
G02X667120Y13770240I0J-47716D01*
G03X684680I8780J5116D01*
G02X767120I41220J-24036D01*
G03X784680I8780J5116D01*
G02X867120I41220J-24036D01*
G03X884680I8780J5116D01*
G02X967120I41220J-24036D01*
G03X984680I8780J5116D01*
G02X1067120I41220J-24036D01*
G03X1084680I8780J5116D01*
G02X1167120I41220J-24036D01*
G03X1184680I8780J5116D01*
G02X1267120I41220J-24036D01*
G03X1284680I8780J5116D01*
G37*
G36*
G01X7648210Y14528820D02*
G02X7617080Y14510070I-31130J16467D01*
G02Y14580510I0J35220D01*
G02X7648210Y14561760I0J-35217D01*
G03X7666180I8985J4746D01*
G02X7697310Y14580510I31130J-16467D01*
G02Y14510070I0J-35220D01*
G02X7666180Y14528820I0J35217D01*
G03X7648210I-8985J-4746D01*
G37*
G36*
G01X7729720Y15517310D02*
G02X7698590Y15498560I-31130J16467D01*
G02Y15569000I0J35220D01*
G02X7729720Y15550250I0J-35217D01*
G03X7747690I8985J4746D01*
G02X7778820Y15569000I31130J-16467D01*
G02Y15498560I0J-35220D01*
G02X7747690Y15517310I0J35217D01*
G03X7729720I-8985J-4746D01*
G37*
G36*
G01X7629880Y16485610D02*
G02X7598750Y16466860I-31130J16467D01*
G02Y16537300I0J35220D01*
G02X7629880Y16518550I0J-35217D01*
G03X7647850I8985J4746D01*
G02X7678980Y16537300I31130J-16467D01*
G02Y16466860I0J-35220D01*
G02X7647850Y16485610I0J35217D01*
G03X7629880I-8985J-4746D01*
G37*
G36*
G01X7729720Y17537410D02*
G02X7698590Y17518660I-31130J16467D01*
G02Y17589100I0J35220D01*
G02X7729720Y17570350I0J-35217D01*
G03X7747690I8985J4746D01*
G02X7778820Y17589100I31130J-16467D01*
G02Y17518660I0J-35220D01*
G02X7747690Y17537410I0J35217D01*
G03X7729720I-8985J-4746D01*
G37*
G36*
G01X7629270Y18528580D02*
G02X7598140Y18509830I-31130J16467D01*
G02Y18580270I0J35220D01*
G02X7629270Y18561520I0J-35217D01*
G03X7647240I8985J4746D01*
G02X7678370Y18580270I31130J-16467D01*
G02Y18509830I0J-35220D01*
G02X7647240Y18528580I0J35217D01*
G03X7629270I-8985J-4746D01*
G37*
G36*
G01X7648020Y20550030D02*
G02X7616890Y20531280I-31130J16467D01*
G02Y20601720I0J35220D01*
G02X7648020Y20582970I0J-35217D01*
G03X7665990I8985J4746D01*
G02X7697120Y20601720I31130J-16467D01*
G02Y20531280I0J-35220D01*
G02X7665990Y20550030I0J35217D01*
G03X7648020I-8985J-4746D01*
G37*
G36*
G01X5220550Y9392440D02*
G02X5190930Y9376280I-29620J19066D01*
G02Y9446720I0J35220D01*
G02X5220550Y9430560I0J-35226D01*
G03X5237630I8540J5499D01*
G02X5267250Y9446720I29620J-19066D01*
G02Y9376280I0J-35220D01*
G02X5237630Y9392440I0J35226D01*
G03X5220550I-8540J-5499D01*
G37*
G54D22*
X3964200Y11270300D03*
X5761770Y10376630D03*
Y10176630D03*
X5661770D03*
X5261770Y9976630D03*
X5361770D03*
X5161770D03*
X5761770Y9876630D03*
X5661770D03*
X5463200Y9769400D03*
X5461770Y9876630D03*
X5261770D03*
X5361770D03*
X5261770Y9776630D03*
X5161770Y9876630D03*
X5465300Y9664100D03*
X5261770Y9676630D03*
X4776630Y9876630D03*
X4876630Y10076630D03*
Y9976630D03*
X4776630Y10076630D03*
Y9976630D03*
X5061770Y10076630D03*
X4876630Y10176630D03*
Y10276630D03*
X4776630D03*
Y10176630D03*
X5061770Y10276630D03*
Y10176630D03*
X4876630Y10376630D03*
X4776630Y10476630D03*
X4876630D03*
X4776630Y10376630D03*
X5061770D03*
Y10476630D03*
X4776630Y10661770D03*
X4876630D03*
X5061770D03*
X4876630Y10761770D03*
X4776630D03*
X5061770D03*
Y10861770D03*
X4876630Y11061770D03*
Y11161770D03*
Y10961770D03*
X4776630Y11061770D03*
Y10961770D03*
X5061770D03*
Y11061770D03*
Y11161770D03*
X4276630Y9876630D03*
X4476630D03*
X4376630D03*
X4576630D03*
X4276630Y10076630D03*
Y9976630D03*
X4476630D03*
Y10076630D03*
X4376630D03*
Y9976630D03*
X4576630Y10076630D03*
Y9976630D03*
X4276630Y10276630D03*
Y10176630D03*
X4476630Y10276630D03*
X4376630D03*
X4476630Y10176630D03*
X4576630Y10276630D03*
Y10176630D03*
X5261770D03*
X5361770Y10276630D03*
X5261770D03*
X5461770D03*
Y10176630D03*
X4276630Y10476630D03*
Y10376630D03*
X4376630Y10476630D03*
X4476630D03*
X4376630Y10376630D03*
X4476630D03*
X4576630Y10476630D03*
Y10376630D03*
X5361770D03*
X5261770D03*
X5461770Y10476630D03*
Y10376630D03*
X4276630Y10661770D03*
X4376630D03*
X4476630D03*
X4576630D03*
X5361770D03*
X5261770D03*
X4276630Y10861770D03*
Y10761770D03*
X4476630Y10861770D03*
X4376630Y10761770D03*
X4576630Y10861770D03*
X4276630Y11161770D03*
Y11061770D03*
Y10961770D03*
X4376630Y11061770D03*
X4476630Y10961770D03*
Y11061770D03*
Y11161770D03*
X4376630D03*
X4676630D03*
X4576630Y10961770D03*
Y11061770D03*
Y11161770D03*
X5361770Y10961770D03*
X5261770D03*
X5461770D03*
X5661770Y10976630D03*
X4276630Y11261770D03*
X4476630D03*
X4376630D03*
X4676630D03*
X4576630D03*
X4776630D03*
X5161770Y11361770D03*
X5361770Y11261770D03*
X5261770D03*
X5461770D03*
X5661770D03*
G54D17*
X1636100Y1976300D03*
Y2150400D03*
Y2322800D03*
X1634300Y2495400D03*
X2879700Y2634700D03*
X2881500Y2808800D03*
X1096400Y2912500D03*
X1459000Y3051600D03*
X1755500Y3041600D03*
X2881500Y2981200D03*
X7905000Y3004800D03*
X8097100Y2980100D03*
X8505000Y3004800D03*
X8405000D03*
X8905000D03*
X8805000D03*
X9205000D03*
X9505000D03*
X9805000D03*
X9905000D03*
X10205000D03*
X10305000D03*
X10705000D03*
X10605000D03*
X11005000D03*
X11205000D03*
X11505000D03*
X11605000D03*
X11905000D03*
X12005000D03*
X12405000D03*
X12305000D03*
X12705000D03*
X12805000D03*
X13205000D03*
X13105000D03*
X13505000D03*
X13605000D03*
X13905000D03*
X14005000D03*
X14305000D03*
X2881500Y3151900D03*
X734100Y3442500D03*
X907400Y3441300D03*
X1940200Y3515100D03*
X2203200Y3520400D03*
X2385900Y3460700D03*
X3942300Y3505400D03*
X8105000Y3330800D03*
Y3995200D03*
X8305000D03*
X8784500Y4067200D03*
X8605000Y3995200D03*
X9005000D03*
X9105000D03*
X9405000D03*
X9705000D03*
X10005000D03*
X10105000D03*
X10405000D03*
X10505000D03*
X10905000D03*
X10805000D03*
X11205000D03*
X11405000D03*
X11705000D03*
X11805000D03*
X12105000D03*
X12205000D03*
X12505000D03*
X12605000D03*
X13005000D03*
X12905000D03*
X13405000D03*
X13305000D03*
X13805000D03*
X13705000D03*
X14205000D03*
X14105000D03*
X14505000D03*
X1537300Y4583500D03*
X1597400Y4457800D03*
X1483100Y4677700D03*
X1483500Y4978500D03*
X7905000Y5004800D03*
X8082800Y4989900D03*
X8505000Y5004800D03*
X8905000D03*
X8805000D03*
X9205000D03*
X9505000D03*
X9805000D03*
X9905000D03*
X10205000D03*
X10305000D03*
X10705000D03*
X10605000D03*
X11005000D03*
X11205000D03*
X11505000D03*
X11605000D03*
X11905000D03*
X12005000D03*
X12405000D03*
X12305000D03*
X12705000D03*
X12805000D03*
X13105000D03*
X13205000D03*
X13605000D03*
X13505000D03*
X14005000D03*
X13905000D03*
X14305000D03*
X866100Y5157700D03*
X2879800Y5034400D03*
Y5210200D03*
X1118700Y5381200D03*
X2878000Y5384400D03*
X8105000Y5338600D03*
X8499300Y5370800D03*
X1452600Y5539200D03*
X1746700Y5529800D03*
X2876300Y5560300D03*
X3982000Y5513700D03*
X5215900D03*
X826100Y5933000D03*
X1029600Y5957800D03*
X1831400Y6018100D03*
X2129000Y6005100D03*
X2384200Y5960200D03*
X8105000Y5995200D03*
X8305000D03*
X8779900Y6063100D03*
X8605000Y5995200D03*
X9005000D03*
X9105000D03*
X9405000D03*
X9705000D03*
X10005000D03*
X10105000D03*
X10405000D03*
X10505000D03*
X10905000D03*
X10805000D03*
X11205000D03*
X11405000D03*
X11705000D03*
X11805000D03*
X12105000D03*
X12205000D03*
X12605000D03*
X12505000D03*
X13005000D03*
X12905000D03*
X13405000D03*
X13305000D03*
X13805000D03*
X13705000D03*
X14205000D03*
X14105000D03*
X14505000D03*
X3159900Y6397800D03*
X8465100Y6910500D03*
X7905000Y7004800D03*
X8102500Y6982000D03*
X8505000Y7004800D03*
X8905000D03*
X8805000D03*
X9205000D03*
X9505000D03*
X9805000D03*
X9905000D03*
X10205000D03*
X10305000D03*
X10705000D03*
X10605000D03*
X11005000D03*
X11205000D03*
X11505000D03*
X11605000D03*
X11905000D03*
X12005000D03*
X12405000D03*
X12305000D03*
X12805000D03*
X12705000D03*
X13205000D03*
X13105000D03*
X13605000D03*
X13505000D03*
X14005000D03*
X13905000D03*
X14305000D03*
X8161700Y7332500D03*
X5156600Y7545100D03*
X892500Y7730800D03*
X8305000Y7995200D03*
X8605000D03*
X9005000D03*
X9105000D03*
X9405000D03*
X9705000D03*
X10005000D03*
X10105000D03*
X10405000D03*
X10505000D03*
X10905000D03*
X10805000D03*
X11205000D03*
X11405000D03*
X11705000D03*
X11805000D03*
X12105000D03*
X12205000D03*
X12605000D03*
X12505000D03*
X13005000D03*
X12905000D03*
X13405000D03*
X13305000D03*
X13805000D03*
X13705000D03*
X14205000D03*
X14105000D03*
X14505000D03*
X8186800Y8098900D03*
X8802700Y8094400D03*
X873200Y8275600D03*
X1217300Y8254300D03*
X1346900D03*
X1599600Y8217900D03*
X3391900Y8420200D03*
X3170400Y8530400D03*
X3291400Y8422300D03*
X977600Y9022700D03*
X1726700Y8858000D03*
X978100Y9103700D03*
X3797200Y9449000D03*
X3584900Y9652100D03*
X4054400Y9659100D03*
X3902900Y9873100D03*
X3659500Y10064100D03*
X3450360Y10287540D03*
X3529600Y10314400D03*
X3442800Y10417580D03*
X3781700Y10350700D03*
X3727000Y10440080D03*
X2734080Y10748320D03*
X3308120Y10744820D03*
X2837700Y10965400D03*
X3355500Y10963700D03*
X3578800D03*
X1455790Y11079290D03*
X1585840Y11084940D03*
X2388280Y11169100D03*
X2301700Y11038000D03*
X3298900Y11084940D03*
X1391800Y11344000D03*
X2388280Y11278500D03*
X2386080Y11386900D03*
X3665560Y11319660D03*
X1715400Y11494400D03*
X2386080Y11495300D03*
Y11604700D03*
X2195800Y12542900D03*
X2095800D03*
X2395800D03*
X2295800D03*
X2312600Y12624800D03*
X2495800Y12542900D03*
X2982200Y12650000D03*
X3282200D03*
X3182200D03*
X3082200D03*
X1974900Y12675600D03*
X2654900Y12679600D03*
X8109900Y13107100D03*
X8505000Y13144000D03*
X8405000D03*
X8763400Y13127700D03*
X8939000Y13117500D03*
X9205000Y13144000D03*
X9505000D03*
X9805000D03*
X9905000D03*
X10205000D03*
X10305000D03*
X10605000D03*
X10705000D03*
X11005000D03*
X11205000D03*
X11505000D03*
X11605000D03*
X11905000D03*
X12005000D03*
X12305000D03*
X12405000D03*
X12705000D03*
X12805000D03*
X13105000D03*
X13205000D03*
X13505000D03*
X13605000D03*
X13905000D03*
X14005000D03*
X14305000D03*
X7905000Y13414400D03*
X8105000D03*
Y14134400D03*
X8305000D03*
X8705000D03*
X8605000D03*
X9005000D03*
X9105000D03*
X9405000D03*
X9705000D03*
X10005000D03*
X10105000D03*
X10405000D03*
X10505000D03*
X10905000D03*
X10805000D03*
X11205000D03*
X11405000D03*
X11705000D03*
X11805000D03*
X12105000D03*
X12205000D03*
X12605000D03*
X12505000D03*
X13005000D03*
X12905000D03*
X13405000D03*
X13305000D03*
X13805000D03*
X13705000D03*
X14205000D03*
X14105000D03*
X14505000D03*
X8837200Y15006200D03*
X9188700Y15129900D03*
X9488700D03*
X9788700D03*
X9888700D03*
X10188700D03*
X10288700D03*
X10588700D03*
X10688700D03*
X10988700D03*
X11188700D03*
X11488700D03*
X11588700D03*
X11888700D03*
X11988700D03*
X12288700D03*
X12388700D03*
X12688700D03*
X12788700D03*
X13088700D03*
X13188700D03*
X13488700D03*
X13588700D03*
X13888700D03*
X13988700D03*
X14288700D03*
X8488700Y15400300D03*
X8788700Y15420800D03*
X8088700Y15486000D03*
X8440000Y15511200D03*
X8928100Y15449600D03*
X8088700Y16120300D03*
X8288700Y16216500D03*
X8588700Y16120300D03*
X8688700D03*
X8988700D03*
X9088700D03*
X9388700D03*
X9688700D03*
X9988700D03*
X10088700D03*
X10488700D03*
X10388700D03*
X10888700D03*
X10788700D03*
X11188700D03*
X11388700D03*
X11688700D03*
X11788700D03*
X12188700D03*
X12088700D03*
X12588700D03*
X12488700D03*
X12988700D03*
X12888700D03*
X13388700D03*
X13288700D03*
X13788700D03*
X13688700D03*
X14088700D03*
X14188700D03*
X14488700D03*
X8069700Y17134100D03*
X8488700Y17150000D03*
X8388700D03*
X8788700D03*
X8924400Y17121800D03*
X9188700Y17150000D03*
X9488700D03*
X9788700D03*
X9888700D03*
X10188700D03*
X10288700D03*
X10688700D03*
X10588700D03*
X10988700D03*
X11188700D03*
X11488700D03*
X11588700D03*
X11888700D03*
X11988700D03*
X12288700D03*
X12388700D03*
X12788700D03*
X12688700D03*
X13088700D03*
X13188700D03*
X13488700D03*
X13588700D03*
X13888700D03*
X13988700D03*
X14288700D03*
X8088700Y17428600D03*
X8288700Y18140400D03*
X8588700D03*
X8688700D03*
X8988700D03*
X9088700D03*
X9388700D03*
X9688700D03*
X9988700D03*
X10088700D03*
X10488700D03*
X10388700D03*
X10888700D03*
X10788700D03*
X11188700D03*
X11388700D03*
X11688700D03*
X11788700D03*
X12188700D03*
X12088700D03*
X12588700D03*
X12488700D03*
X12988700D03*
X12888700D03*
X13388700D03*
X13288700D03*
X13788700D03*
X13688700D03*
X14088700D03*
X14188700D03*
X14488700D03*
X8088700Y18214200D03*
X8069700Y19117900D03*
X8505000Y19144000D03*
X8405000Y19094400D03*
X8905000Y19144000D03*
X8805000D03*
X9205000D03*
X9505000D03*
X9805000D03*
X9905000D03*
X10205000D03*
X10305000D03*
X10605000D03*
X10705000D03*
X11005000D03*
X11205000D03*
X11505000D03*
X11605000D03*
X11905000D03*
X12005000D03*
X12405000D03*
X12305000D03*
X12805000D03*
X12705000D03*
X13205000D03*
X13105000D03*
X13605000D03*
X13505000D03*
X14005000D03*
X13905000D03*
X14305000D03*
X8105000Y19551700D03*
Y20134400D03*
X8305000D03*
X8705000D03*
X8605000D03*
X9005000D03*
X9105000D03*
X9405000D03*
X9705000D03*
X10005000D03*
X10105000D03*
X10405000D03*
X10505000D03*
X10905000D03*
X10805000D03*
X11205000D03*
X11405000D03*
X11705000D03*
X11805000D03*
X12105000D03*
X12205000D03*
X12505000D03*
X12605000D03*
X12905000D03*
X13005000D03*
X13305000D03*
X13405000D03*
X13805000D03*
X13705000D03*
X14105000D03*
X14205000D03*
X14505000D03*
X7605000Y3004800D03*
X6505000Y3275200D03*
X6805000D03*
X6205000Y3995200D03*
X6505000D03*
X7505000D03*
X6725800Y4247500D03*
X7211200Y4465600D03*
X6807100Y4947900D03*
X7546100Y4953400D03*
X6505000Y5275200D03*
X6805000D03*
X6205000Y5995200D03*
X6505000D03*
X7505000D03*
X6726700Y6225600D03*
X7203600Y6435500D03*
X6637200Y6786100D03*
X7568600Y6944700D03*
X6505000Y7275200D03*
X6805000D03*
X6205000Y7995200D03*
X6505000D03*
X6725000Y8171200D03*
X7411300Y8032800D03*
X7286800Y8299900D03*
X9085600Y9447600D03*
X2223480Y9634100D03*
X2223980Y9530100D03*
X2623800Y9678200D03*
X2540400Y9661900D03*
X2459900Y9599000D03*
X8113500Y9546500D03*
X8373500Y9575300D03*
X9329600Y9644800D03*
X2224880Y9840500D03*
X2223980Y9738700D03*
X2223780Y9943900D03*
X9559080Y9950280D03*
X2222940Y10128800D03*
X8933300Y10295500D03*
X1908700Y10527500D03*
X1339900Y10716600D03*
X8245900Y10799500D03*
X8933300Y10800200D03*
X6035200Y11317600D03*
X5974900Y11213300D03*
X3996700Y11628100D03*
X7359200Y12385300D03*
X7429300Y12444700D03*
X2312600Y12824800D03*
X3064900Y12847500D03*
X3462400Y12818300D03*
X1259300Y12929800D03*
X1978000Y12878400D03*
X1878500Y13000000D03*
X2312600Y12924800D03*
X3064900Y13047500D03*
Y12947500D03*
X3460400Y13027800D03*
X3460700Y12923100D03*
X6627400Y12923000D03*
X2684400Y13161300D03*
X7605000Y13144000D03*
X6654000Y13481000D03*
X6805000Y13414400D03*
X1837400Y13766000D03*
X3304000Y13796300D03*
X3421100Y13912700D03*
X5795900Y13839200D03*
X7505000Y13864000D03*
X1645000Y13960920D03*
X3421100Y14112700D03*
Y14012700D03*
X6205000Y14134400D03*
X696200Y14338700D03*
X869500Y14339000D03*
X3387260Y14342640D03*
X3421100Y14212700D03*
X6476000Y14197300D03*
X6667600Y14414000D03*
X7364500Y14437300D03*
X1583800Y14608600D03*
Y14701400D03*
X2045700Y14593000D03*
X2038900Y14741800D03*
X2349600Y14890900D03*
X2522900Y14891100D03*
X6610000Y14925600D03*
X1550300Y15398100D03*
X1801300Y15252300D03*
X6488700Y15400300D03*
X6788700D03*
X1565400Y15569600D03*
X7541100Y15440400D03*
X1560200Y15742100D03*
X5724100Y15802800D03*
X1560200Y15914400D03*
X2840800Y16031700D03*
X873400Y16208400D03*
X2840800Y16205000D03*
X6188700Y16120300D03*
X6488700D03*
X7488700D03*
X1161500Y16390900D03*
X1558600Y16470900D03*
X2840800Y16377400D03*
X6704700Y16369400D03*
X7314300Y16416000D03*
X1441000Y16487400D03*
X2839000Y16553300D03*
X664700Y16799500D03*
X966190Y16846010D03*
X2346100Y16866700D03*
X1791000Y16942400D03*
X2099700Y16928800D03*
X6623900Y16930400D03*
X7588700Y17150000D03*
X5799300Y17498200D03*
X6567300Y17495700D03*
X6740600Y17493500D03*
X6188700Y18140400D03*
X6488700D03*
X7488700D03*
X6707800Y18379900D03*
X7458300Y18423200D03*
X6624600Y18922300D03*
X7605000Y19108700D03*
X6805000Y19414400D03*
X5806100Y19479300D03*
X6628200Y19495900D03*
X6205000Y20134400D03*
X6505000D03*
X7505000D03*
X6729700Y20359400D03*
X7331900Y20432700D03*
X5286800Y9535200D03*
X5262900Y9085900D03*
X5320100Y9012900D03*
X3398600Y7580800D03*
X3297800Y7581500D03*
X3015540Y7731140D03*
X3392400Y7711500D03*
X3291000Y7709500D03*
G54D18*
X2383900Y1966600D03*
X2283900D03*
X2383900Y2266600D03*
X2283900D03*
X2383900Y2166600D03*
X2283900D03*
X2383900Y2066600D03*
X2283900D03*
X2383900Y2366600D03*
X2283900D03*
X918300Y2959000D03*
X1062600Y3224300D03*
X7056000Y4234300D03*
X7056900Y6212900D03*
X7055200Y8186500D03*
X2352400Y14149400D03*
Y14049400D03*
Y13949400D03*
X2452400Y14149400D03*
Y14049400D03*
Y13949400D03*
X7066800Y14337500D03*
X1941100Y14966100D03*
X2153200Y14972300D03*
G54D20*
X6151100Y2943500D03*
X6163700Y4947900D03*
X6307000Y6806500D03*
X6297200Y12923500D03*
X6279800Y14934100D03*
X1633680Y15062200D03*
X6293700Y16959300D03*
X6294400Y18931700D03*
G54D19*
X809300Y8525100D03*
Y8779100D03*
X874600Y10274400D03*
Y10528400D03*
Y10782400D03*
Y11036400D03*
X878700Y12182800D03*
Y12436800D03*
Y12690800D03*
G54D21*
X7370000Y3500000D03*
Y5500000D03*
Y7500000D03*
Y13639200D03*
X7353700Y15625100D03*
Y17645200D03*
X7370000Y19639200D03*
%LPD*%
G75*
G54D10*
X734100Y3442500D03*
X696200Y14338700D03*
X664700Y16799500D03*
X907400Y3441300D03*
X866100Y5157700D03*
X826100Y5933000D03*
X892500Y7730800D03*
X873200Y8275600D03*
X869500Y14339000D03*
X873400Y16208400D03*
X1096400Y2912500D03*
X1118700Y5381200D03*
X1029600Y5957800D03*
X977600Y9022700D03*
X978100Y9103700D03*
X1161500Y16390900D03*
X966190Y16846010D03*
X1081900Y18768400D03*
X1217300Y8254300D03*
X1346900D03*
X1339900Y10716600D03*
X1195000Y12002600D03*
X1308140Y12224960D03*
X1306600Y12117300D03*
X1256100Y12037100D03*
X1309600Y12849500D03*
X1236860Y12821960D03*
X1259300Y12929800D03*
X1459000Y3051600D03*
X1537300Y4583500D03*
X1483100Y4677700D03*
X1483500Y4978500D03*
X1452600Y5539200D03*
X1585800Y10228300D03*
X1515400Y10229200D03*
X1455600Y10230700D03*
X1520600Y10817100D03*
X1455790Y11079290D03*
X1585840Y11084940D03*
X1391800Y11344000D03*
X1535500Y12696500D03*
X1583800Y14701400D03*
Y14608600D03*
X1550300Y15398100D03*
X1565400Y15569600D03*
X1560200Y15742100D03*
Y15914400D03*
X1558600Y16470900D03*
X1441000Y16487400D03*
X1636100Y1976300D03*
Y2150400D03*
Y2322800D03*
X1634300Y2495400D03*
X1755500Y3041600D03*
X1597400Y4457800D03*
X1746700Y5529800D03*
X1599600Y8217900D03*
X1726700Y8858000D03*
X1651200Y10227000D03*
X1716300Y10222900D03*
X1649700Y10815500D03*
X1715890Y10813900D03*
X1780910Y10814210D03*
X1715400Y11494400D03*
X1601600Y12693900D03*
X1645000Y13960920D03*
X1791000Y16942400D03*
X1940200Y3515100D03*
X1831400Y6018100D03*
X1908700Y10527500D03*
X1977400Y12777000D03*
X1974900Y12675600D03*
X1878500Y13000000D03*
X1978000Y12878400D03*
X1837400Y13766000D03*
X1801300Y15252300D03*
X2203200Y3520400D03*
X2129000Y6005100D03*
X2223980Y9530100D03*
X2223480Y9634100D03*
X2223980Y9738700D03*
X2224880Y9840500D03*
X2223780Y9943900D03*
X2222940Y10128800D03*
X2095800Y12542900D03*
X2195800D03*
X2038900Y14741800D03*
X2045700Y14593000D03*
X2099700Y16928800D03*
X2385900Y3460700D03*
X2360900Y4445100D03*
Y4545100D03*
Y4645100D03*
Y4745100D03*
X2384200Y5960200D03*
X2301700Y11038000D03*
X2388280Y11169100D03*
X2386080Y11386900D03*
X2388280Y11278500D03*
X2386080Y11495300D03*
Y11604700D03*
X2312600Y12624800D03*
X2295800Y12542900D03*
X2395800D03*
X2312600Y12724800D03*
Y12824800D03*
Y12924800D03*
X2349600Y14890900D03*
X2346100Y16866700D03*
X2408900Y19889200D03*
X2460900Y4445100D03*
X2560900D03*
X2460900Y4545100D03*
X2560900D03*
X2460900Y4645100D03*
X2560900D03*
X2460900Y4745100D03*
X2560900D03*
X2459900Y9599000D03*
X2540400Y9661900D03*
X2623800Y9678200D03*
X2495800Y12542900D03*
X2522900Y14891100D03*
X2605200Y19687000D03*
X2660900Y4445100D03*
X2760900D03*
X2660900Y4545100D03*
X2760900D03*
X2660900Y4645100D03*
X2760900D03*
X2660900Y4745100D03*
X2760900D03*
X2734080Y10748320D03*
X2837700Y10965400D03*
X2654500Y12781100D03*
X2654900Y12679600D03*
X2800360Y12716560D03*
X2695700Y12821700D03*
X2654700Y12883100D03*
X2684400Y13161300D03*
X2840800Y16031700D03*
Y16205000D03*
Y16377400D03*
X2839000Y16553300D03*
X2879700Y2634700D03*
X2881500Y2808800D03*
Y2981200D03*
Y3151900D03*
X2879800Y5210200D03*
Y5034400D03*
X2878000Y5384400D03*
X2876300Y5560300D03*
X3069600Y7039200D03*
X3017100Y7617400D03*
X3015540Y7731140D03*
X2892760Y10092460D03*
X2883010Y10222510D03*
X2889400Y10157000D03*
X3021700Y10750500D03*
X2966300Y10807100D03*
X2982200Y12650000D03*
X3064900Y12747500D03*
Y12847500D03*
Y12947500D03*
Y13047500D03*
X3159900Y6397800D03*
X3257400Y6575100D03*
Y6675100D03*
Y6775100D03*
Y6875100D03*
X3139800Y7107900D03*
X3239800D03*
X3139800Y7207900D03*
X3239800D03*
X3170400Y8530400D03*
X3129200Y10743700D03*
X3076000Y10802500D03*
X3082200Y12650000D03*
X3182200D03*
X3282200D03*
X3339800Y7107900D03*
X3439800D03*
X3339800Y7207900D03*
X3439800D03*
X3297800Y7581500D03*
X3398600Y7580800D03*
X3291000Y7709500D03*
X3392400Y7711500D03*
X3492400Y7908100D03*
Y8008100D03*
Y8108100D03*
X3391900Y8420200D03*
X3291400Y8422300D03*
X3443200Y9666600D03*
X3460760Y10092460D03*
X3459690Y10157490D03*
X3450360Y10287540D03*
X3442800Y10417580D03*
X3308120Y10744820D03*
X3355500Y10963700D03*
X3298900Y11084940D03*
X3462400Y12818300D03*
X3460700Y12923100D03*
X3460400Y13027800D03*
X3421100Y13912700D03*
X3304000Y13796300D03*
X3421100Y14012700D03*
Y14112700D03*
Y14212700D03*
X3387260Y14342640D03*
X3312580Y19658300D03*
Y19758900D03*
X3592400Y7908100D03*
X3692400D03*
X3592400Y8008100D03*
X3692400D03*
X3592400Y8108100D03*
X3692400D03*
X3684100Y9182700D03*
X3584900Y9652100D03*
X3503900Y9666400D03*
X3659500Y10064100D03*
X3529600Y10314400D03*
X3578800Y10963700D03*
X3665560Y11319660D03*
X3536300Y19889800D03*
X3728800Y9231000D03*
X3775200Y9279600D03*
X3797200Y9449000D03*
X3902900Y9873100D03*
X3727000Y10440080D03*
X3781700Y10350700D03*
X3799600Y10540600D03*
X3857800Y10486050D03*
X3727700Y10544600D03*
X3866500Y11494100D03*
X3942300Y3505400D03*
X3982000Y5513700D03*
X4068200Y7545100D03*
X4054400Y9659100D03*
X4051100Y9987900D03*
X4048600Y9927700D03*
X3996700Y11628100D03*
X4564990Y632500D03*
X4864990Y632510D03*
X4964990Y1176100D03*
X5064990Y1173600D03*
X5156600Y7545100D03*
X5190930Y9411500D03*
X5364990Y560010D03*
X5219100Y634500D03*
X5287200Y3505400D03*
X5215900Y5513700D03*
X5320100Y9012900D03*
X5262900Y9085900D03*
X5267250Y9411500D03*
X5286800Y9535200D03*
X5564990Y560510D03*
X5826000Y12597950D03*
Y12517720D03*
X5795900Y13839200D03*
X5724100Y15802800D03*
X5799300Y17498200D03*
X5806100Y19479300D03*
X5865010Y632510D03*
X5974890Y909020D03*
X6035200Y11317600D03*
X5974900Y11213300D03*
X6182900Y638700D03*
X6055120Y909020D03*
X6205000Y3995200D03*
Y5995200D03*
Y7995200D03*
Y14134400D03*
X6188700Y16120300D03*
Y18140400D03*
X6205000Y20134400D03*
X6465010Y632510D03*
X6642000Y2778100D03*
X6505000Y3275200D03*
Y3995200D03*
Y5275200D03*
Y5995200D03*
X6637200Y6786100D03*
X6505000Y7275200D03*
Y7995200D03*
X6627400Y12923000D03*
X6654000Y13481000D03*
X6476000Y14197300D03*
X6667600Y14414000D03*
X6610000Y14925600D03*
X6488700Y15400300D03*
Y16120300D03*
X6623900Y16930400D03*
X6567300Y17495700D03*
X6488700Y18140400D03*
X6624600Y18922300D03*
X6628200Y19495900D03*
X6505000Y20134400D03*
X6683600Y635300D03*
X6805000Y3275200D03*
X6725800Y4247500D03*
X6807100Y4947900D03*
X6805000Y5275200D03*
X6726700Y6225600D03*
X6805000Y7275200D03*
X6725000Y8171200D03*
X6805000Y13414400D03*
X6788700Y15400300D03*
X6704700Y16369400D03*
X6740600Y17493500D03*
X6707800Y18379900D03*
X6805000Y19414400D03*
X6729700Y20359400D03*
X7065010Y632510D03*
X6965010D03*
X7211200Y4465600D03*
X7203600Y6435500D03*
X7286800Y8299900D03*
X7314300Y16416000D03*
X7365010Y632510D03*
X7465010D03*
X7505000Y3995200D03*
Y5995200D03*
X7411300Y8032800D03*
X7359200Y12385300D03*
X7429300Y12444700D03*
X7505000Y13864000D03*
X7364500Y14437300D03*
X7488700Y16120300D03*
Y18140400D03*
X7458300Y18423200D03*
X7505000Y20134400D03*
X7331900Y20432700D03*
X7605000Y3004800D03*
X7714920Y3402400D03*
X7619400Y4392040D03*
X7697770D03*
X7546100Y4953400D03*
X7714890Y5408680D03*
X7696200Y6346200D03*
X7617070D03*
X7568600Y6944700D03*
X7714890Y7408680D03*
X7619840Y8330330D03*
X7696160D03*
X7714890Y13010520D03*
X7605000Y13144000D03*
X7617080Y14545290D03*
X7697310D03*
X7698590Y15533780D03*
X7541100Y15440400D03*
X7598750Y16502080D03*
X7678980D03*
X7588700Y17150000D03*
X7698590Y17553880D03*
X7598140Y18545050D03*
X7678370D03*
X7605000Y19108700D03*
X7714890Y19547880D03*
X7616890Y20566500D03*
X7697120D03*
X7765010Y632510D03*
X7905000Y3004800D03*
X7795070Y3402400D03*
X7805000Y3995200D03*
X7905000Y5004800D03*
X7795120Y5408680D03*
X7805000Y5995200D03*
X7905000Y7004800D03*
X7795120Y7408680D03*
X7805000Y7995200D03*
X7795120Y13010520D03*
X7905000Y13414400D03*
X7805000Y14134400D03*
X7888700Y15106700D03*
X7778820Y15533780D03*
X7788700Y16120300D03*
X7809700Y17078500D03*
X7778820Y17553880D03*
X7788700Y18140400D03*
X7848500Y19044300D03*
X7795120Y19547880D03*
X7805000Y20134400D03*
X8065010Y632510D03*
X8005300Y2895600D03*
X8097100Y2980100D03*
X8105000Y3330800D03*
Y3995200D03*
X8005800Y4896600D03*
X8082800Y4989900D03*
X8105000Y5338600D03*
Y5995200D03*
X8004400Y6897400D03*
X8102500Y6982000D03*
X8161700Y7332500D03*
X8113500Y9546500D03*
X8109900Y13107100D03*
X8105000Y13414400D03*
Y14134400D03*
X8088700Y15486000D03*
Y16120300D03*
X8069700Y17134100D03*
X8088700Y17428600D03*
Y18214200D03*
X8069700Y19117900D03*
X8105000Y19551700D03*
Y20134400D03*
X8365010Y632510D03*
X8295110Y3373670D03*
X8214880D03*
X8305000Y3995200D03*
X8295120Y5408680D03*
X8214890D03*
X8305000Y5995200D03*
X8295120Y7408680D03*
X8214890D03*
X8305000Y7995200D03*
X8186800Y8098900D03*
X8373500Y9575300D03*
X8245900Y10799500D03*
X8305000Y14134400D03*
X8278820Y15533780D03*
X8198590D03*
X8288700Y16216500D03*
X8198590Y17553880D03*
X8278820D03*
X8288700Y18140400D03*
X8295110Y19547880D03*
X8214880D03*
X8305000Y20134400D03*
X8465010Y632510D03*
X8405000Y3004800D03*
X8505000D03*
Y5004800D03*
X8499300Y5370800D03*
X8465100Y6910500D03*
X8505000Y7004800D03*
X8405000Y13144000D03*
X8505000D03*
X8488700Y15400300D03*
X8440000Y15511200D03*
X8588700Y16120300D03*
X8388700Y17150000D03*
X8488700D03*
X8588700Y18140400D03*
X8405000Y19094400D03*
X8505000Y19144000D03*
X8765010Y632510D03*
X8605000Y3995200D03*
X8784500Y4067200D03*
X8605000Y5995200D03*
X8779900Y6063100D03*
X8605000Y7995200D03*
X8763400Y13127700D03*
X8605000Y14134400D03*
X8705000D03*
X8788700Y15420800D03*
X8688700Y16120300D03*
X8788700Y17150000D03*
X8688700Y18140400D03*
X8605000Y20134400D03*
X8705000D03*
X8865010Y632510D03*
X8805000Y3004800D03*
X8905000D03*
X9005000Y3995200D03*
X8805000Y5004800D03*
X8905000D03*
X9005000Y5995200D03*
X8805000Y7004800D03*
X8905000D03*
X9005000Y7995200D03*
X8802700Y8094400D03*
X8933300Y10295500D03*
Y10800200D03*
X8939000Y13117500D03*
X9005000Y14134400D03*
X8837200Y15006200D03*
X8928100Y15449600D03*
X8988700Y16120300D03*
X8924400Y17121800D03*
X8988700Y18140400D03*
X8805000Y19144000D03*
X8905000D03*
X9005000Y20134400D03*
X9165010Y632510D03*
X9205000Y3004800D03*
X9105000Y3995200D03*
X9205000Y5004800D03*
X9105000Y5995200D03*
X9205000Y7004800D03*
X9105000Y7995200D03*
X9085600Y9447600D03*
X9205000Y13144000D03*
X9105000Y14134400D03*
X9188700Y15129900D03*
X9088700Y16120300D03*
X9188700Y17150000D03*
X9088700Y18140400D03*
X9205000Y19144000D03*
X9105000Y20134400D03*
X9265010Y632510D03*
X9405000Y3995200D03*
Y5995200D03*
Y7995200D03*
X9329600Y9644800D03*
X9405000Y14134400D03*
X9388700Y16120300D03*
Y18140400D03*
X9405000Y20134400D03*
X9565000Y632510D03*
X9505000Y3004800D03*
Y5004800D03*
Y7004800D03*
X9559080Y9950280D03*
X9505000Y13144000D03*
X9488700Y15129900D03*
Y17150000D03*
X9505000Y19144000D03*
X9765000Y632510D03*
X9805000Y3004800D03*
X9705000Y3995200D03*
X9805000Y5004800D03*
X9705000Y5995200D03*
X9805000Y7004800D03*
X9705000Y7995200D03*
X9805000Y13144000D03*
X9705000Y14134400D03*
X9788700Y15129900D03*
X9688700Y16120300D03*
X9788700Y17150000D03*
X9688700Y18140400D03*
X9805000Y19144000D03*
X9705000Y20134400D03*
X10065000Y632510D03*
X9905000Y3004800D03*
X10005000Y3995200D03*
X9905000Y5004800D03*
X10005000Y5995200D03*
X9905000Y7004800D03*
X10005000Y7995200D03*
X9905000Y13144000D03*
X10005000Y14134400D03*
X9888700Y15129900D03*
X9988700Y16120300D03*
X9888700Y17150000D03*
X9988700Y18140400D03*
X9905000Y19144000D03*
X10005000Y20134400D03*
X10165000Y632510D03*
X10205000Y3004800D03*
X10105000Y3995200D03*
X10205000Y5004800D03*
X10105000Y5995200D03*
X10205000Y7004800D03*
X10105000Y7995200D03*
X10205000Y13144000D03*
X10105000Y14134400D03*
X10188700Y15129900D03*
X10088700Y16120300D03*
X10188700Y17150000D03*
X10088700Y18140400D03*
X10205000Y19144000D03*
X10105000Y20134400D03*
X10465000Y632510D03*
X10305000Y3004800D03*
X10405000Y3995200D03*
X10305000Y5004800D03*
X10405000Y5995200D03*
X10305000Y7004800D03*
X10405000Y7995200D03*
X10305000Y13144000D03*
X10405000Y14134400D03*
X10288700Y15129900D03*
X10388700Y16120300D03*
X10488700D03*
X10288700Y17150000D03*
X10388700Y18140400D03*
X10488700D03*
X10305000Y19144000D03*
X10405000Y20134400D03*
X10565000Y632510D03*
X10605000Y3004800D03*
X10705000D03*
X10505000Y3995200D03*
X10605000Y5004800D03*
X10705000D03*
X10505000Y5995200D03*
X10605000Y7004800D03*
X10705000D03*
X10505000Y7995200D03*
X10705000Y13144000D03*
X10605000D03*
X10505000Y14134400D03*
X10688700Y15129900D03*
X10588700D03*
Y17150000D03*
X10688700D03*
X10705000Y19144000D03*
X10605000D03*
X10505000Y20134400D03*
X10865000Y632510D03*
X10805000Y3995200D03*
X10905000D03*
X10805000Y5995200D03*
X10905000D03*
X10805000Y7995200D03*
X10905000D03*
X10805000Y14134400D03*
X10905000D03*
X10788700Y16120300D03*
X10888700D03*
X10788700Y18140400D03*
X10888700D03*
X10805000Y20134400D03*
X10905000D03*
X10965000Y632510D03*
X11005000Y3004800D03*
Y5004800D03*
Y7004800D03*
Y13144000D03*
X10988700Y15129900D03*
Y17150000D03*
X11005000Y19144000D03*
X11265000Y632510D03*
X11205000Y3004800D03*
Y3995200D03*
Y5004800D03*
Y5995200D03*
Y7004800D03*
Y7995200D03*
Y13144000D03*
Y14134400D03*
X11188700Y15129900D03*
Y16120300D03*
Y17150000D03*
Y18140400D03*
X11205000Y19144000D03*
Y20134400D03*
X11365000Y632510D03*
X11505000Y3004800D03*
X11405000Y3995200D03*
X11505000Y5004800D03*
X11405000Y5995200D03*
X11505000Y7004800D03*
X11405000Y7995200D03*
X11505000Y13144000D03*
X11405000Y14134400D03*
X11488700Y15129900D03*
X11388700Y16120300D03*
X11488700Y17150000D03*
X11388700Y18140400D03*
X11505000Y19144000D03*
X11405000Y20134400D03*
X11765000Y632510D03*
X11665000D03*
X11605000Y3004800D03*
X11705000Y3995200D03*
X11605000Y5004800D03*
X11705000Y5995200D03*
X11605000Y7004800D03*
X11705000Y7995200D03*
X11605000Y13144000D03*
X11705000Y14134400D03*
X11588700Y15129900D03*
X11688700Y16120300D03*
X11588700Y17150000D03*
X11688700Y18140400D03*
X11605000Y19144000D03*
X11705000Y20134400D03*
X11905000Y3004800D03*
X11805000Y3995200D03*
X11905000Y5004800D03*
X11805000Y5995200D03*
X11905000Y7004800D03*
X11805000Y7995200D03*
X11905000Y13144000D03*
X11805000Y14134400D03*
X11888700Y15129900D03*
X11788700Y16120300D03*
X11888700Y17150000D03*
X11788700Y18140400D03*
X11905000Y19144000D03*
X11805000Y20134400D03*
X12165000Y632510D03*
X12065000D03*
X12005000Y3004800D03*
X12105000Y3995200D03*
X12005000Y5004800D03*
X12105000Y5995200D03*
X12005000Y7004800D03*
X12105000Y7995200D03*
X12005000Y13144000D03*
X12105000Y14134400D03*
X11988700Y15129900D03*
X12088700Y16120300D03*
X12188700D03*
X11988700Y17150000D03*
X12088700Y18140400D03*
X12188700D03*
X12005000Y19144000D03*
X12105000Y20134400D03*
X12305000Y3004800D03*
X12405000D03*
X12205000Y3995200D03*
X12305000Y5004800D03*
X12405000D03*
X12205000Y5995200D03*
X12305000Y7004800D03*
X12405000D03*
X12205000Y7995200D03*
X12405000Y13144000D03*
X12305000D03*
X12205000Y14134400D03*
X12388700Y15129900D03*
X12288700D03*
X12388700Y17150000D03*
X12288700D03*
X12305000Y19144000D03*
X12405000D03*
X12205000Y20134400D03*
X12565000Y632510D03*
X12465000D03*
X12605000Y3995200D03*
X12505000D03*
Y5995200D03*
X12605000D03*
X12505000Y7995200D03*
X12605000D03*
X12505000Y14134400D03*
X12605000D03*
X12488700Y16120300D03*
X12588700D03*
X12488700Y18140400D03*
X12588700D03*
X12605000Y20134400D03*
X12505000D03*
X12805000Y3004800D03*
X12705000D03*
X12805000Y5004800D03*
X12705000D03*
Y7004800D03*
X12805000D03*
Y13144000D03*
X12705000D03*
X12788700Y15129900D03*
X12688700D03*
Y17150000D03*
X12788700D03*
X12705000Y19144000D03*
X12805000D03*
X12865000Y632510D03*
X12905000Y3995200D03*
X13005000D03*
X12905000Y5995200D03*
X13005000D03*
X12905000Y7995200D03*
X13005000D03*
X12905000Y14134400D03*
X13005000D03*
X12888700Y16120300D03*
X12988700D03*
X12888700Y18140400D03*
X12988700D03*
X13005000Y20134400D03*
X12905000D03*
X13105000Y3004800D03*
X13205000D03*
Y5004800D03*
X13105000D03*
Y7004800D03*
X13205000D03*
Y13144000D03*
X13105000D03*
X13188700Y15129900D03*
X13088700D03*
X13188700Y17150000D03*
X13088700D03*
X13105000Y19144000D03*
X13205000D03*
X13305000Y3995200D03*
X13405000D03*
X13305000Y5995200D03*
X13405000D03*
X13305000Y7995200D03*
X13405000D03*
X13305000Y14134400D03*
X13405000D03*
X13288700Y16120300D03*
X13388700D03*
X13288700Y18140400D03*
X13388700D03*
X13405000Y20134400D03*
X13305000D03*
X13605000Y3004800D03*
X13505000D03*
Y5004800D03*
X13605000D03*
X13505000Y7004800D03*
X13605000D03*
Y13144000D03*
X13505000D03*
X13588700Y15129900D03*
X13488700D03*
X13588700Y17150000D03*
X13488700D03*
X13505000Y19144000D03*
X13605000D03*
X13705000Y3995200D03*
X13805000D03*
X13705000Y5995200D03*
X13805000D03*
X13705000Y7995200D03*
X13805000D03*
X13705000Y14134400D03*
X13805000D03*
X13888700Y15129900D03*
X13688700Y16120300D03*
X13788700D03*
X13888700Y17150000D03*
X13688700Y18140400D03*
X13788700D03*
X13705000Y20134400D03*
X13805000D03*
X14005000Y3004800D03*
X13905000D03*
Y5004800D03*
X14005000D03*
X13905000Y7004800D03*
X14005000D03*
Y13144000D03*
X13905000D03*
X13988700Y15129900D03*
X14088700Y16120300D03*
X13988700Y17150000D03*
X14088700Y18140400D03*
X13905000Y19144000D03*
X14005000D03*
X14305000Y3004800D03*
X14105000Y3995200D03*
X14205000D03*
X14305000Y5004800D03*
X14105000Y5995200D03*
X14205000D03*
X14305000Y7004800D03*
X14105000Y7995200D03*
X14205000D03*
X14305000Y13144000D03*
X14105000Y14134400D03*
X14205000D03*
X14288700Y15129900D03*
X14188700Y16120300D03*
X14288700Y17150000D03*
X14188700Y18140400D03*
X14305000Y19144000D03*
X14205000Y20134400D03*
X14105000D03*
X14505000Y3995200D03*
Y5995200D03*
Y7995200D03*
Y14134400D03*
X14488700Y16120300D03*
Y18140400D03*
X14505000Y20134400D03*
X15563100Y10130400D03*
Y11080800D03*
G54D11*
X625900Y13146200D03*
X725900D03*
X625900Y13246200D03*
X725900D03*
X625900Y13346200D03*
X725900D03*
X625900Y13446200D03*
X725900D03*
X625900Y13546200D03*
X725900D03*
X625900Y13646200D03*
X725900D03*
X625900Y13746200D03*
X725900D03*
X825900Y13146200D03*
X925900D03*
X825900Y13246200D03*
X925900D03*
X825900Y13346200D03*
X925900D03*
X825900Y13446200D03*
X925900D03*
X825900Y13546200D03*
X925900D03*
X825900Y13646200D03*
X925900D03*
X825900Y13746200D03*
X925900D03*
X887300Y20007700D03*
Y20107700D03*
Y20207700D03*
Y20307700D03*
Y20407700D03*
Y20507700D03*
Y20607700D03*
Y20707700D03*
Y20807700D03*
Y20907700D03*
X1025900Y13146200D03*
X1125900D03*
X1025900Y13246200D03*
X1125900D03*
X1025900Y13346200D03*
X1125900D03*
X1025900Y13446200D03*
X1125900D03*
X1025900Y13546200D03*
X1125900D03*
X1025900Y13646200D03*
X1125900D03*
X1025900Y13746200D03*
X1125900D03*
X987300Y20007700D03*
X1087300D03*
X987300Y20107700D03*
X1087300D03*
X987300Y20207700D03*
X1087300D03*
X987300Y20307700D03*
X1087300D03*
X987300Y20407700D03*
X1087300D03*
X987300Y20507700D03*
X1087300D03*
X987300Y20607700D03*
X1087300D03*
X987300Y20707700D03*
X1087300D03*
X987300Y20807700D03*
X1087300D03*
X987300Y20907700D03*
X1087300D03*
X1356200Y7613000D03*
Y7713000D03*
Y7813000D03*
Y7913000D03*
X1225900Y13146200D03*
X1325900D03*
X1225900Y13246200D03*
X1325900D03*
X1225900Y13346200D03*
X1325900D03*
X1225900Y13446200D03*
X1325900D03*
X1225900Y13546200D03*
X1325900D03*
X1225900Y13646200D03*
X1325900D03*
X1225900Y13746200D03*
X1325900D03*
X1187300Y20007700D03*
X1287300D03*
X1387300D03*
X1187300Y20107700D03*
X1287300D03*
X1387300D03*
X1187300Y20207700D03*
X1287300D03*
X1387300D03*
X1187300Y20307700D03*
X1287300D03*
X1387300D03*
X1187300Y20407700D03*
X1287300D03*
X1387300D03*
X1187300Y20507700D03*
X1287300D03*
X1387300D03*
X1187300Y20607700D03*
X1287300D03*
X1387300D03*
X1187300Y20707700D03*
X1287300D03*
X1387300D03*
X1187300Y20807700D03*
X1287300D03*
X1387300D03*
X1187300Y20907700D03*
X1287300D03*
X1387300D03*
X1456200Y7613000D03*
X1556200D03*
X1456200Y7713000D03*
X1556200D03*
X1456200Y7813000D03*
X1556200D03*
X1456200Y7913000D03*
X1556200D03*
X1425900Y13146200D03*
Y13246200D03*
Y13346200D03*
Y13446200D03*
Y13546200D03*
Y13646200D03*
Y13746200D03*
X1487300Y20007700D03*
X1587300D03*
X1487300Y20107700D03*
X1587300D03*
X1487300Y20207700D03*
X1587300D03*
X1487300Y20307700D03*
X1587300D03*
X1487300Y20407700D03*
X1587300D03*
X1487300Y20507700D03*
X1587300D03*
X1487300Y20607700D03*
X1587300D03*
X1487300Y20707700D03*
X1587300D03*
X1487300Y20807700D03*
X1587300D03*
X1487300Y20907700D03*
X1587300D03*
X1633680Y15062200D03*
X1687300Y20007700D03*
X1787300D03*
X1687300Y20107700D03*
X1787300D03*
X1687300Y20207700D03*
X1787300D03*
X1687300Y20307700D03*
X1787300D03*
X1687300Y20407700D03*
X1787300D03*
X1687300Y20507700D03*
X1787300D03*
X1687300Y20607700D03*
X1787300D03*
X1687300Y20707700D03*
X1787300D03*
X1687300Y20807700D03*
X1787300D03*
X1687300Y20907700D03*
X1787300D03*
X4649000Y235400D03*
X6151100Y2943500D03*
X6163700Y4947900D03*
X6307000Y6806500D03*
X6297200Y12923500D03*
X6279800Y14934100D03*
X6293700Y16959300D03*
X6294400Y18931700D03*
G54D12*
X918300Y2959000D03*
X880300Y16386800D03*
X1062600Y3224300D03*
X1002900Y5440900D03*
X1059500Y5724400D03*
X1024500Y16663200D03*
X1345600Y8065100D03*
X1236000Y8029900D03*
X1345600Y9074700D03*
X1273700Y9182200D03*
X1472600Y8157600D03*
X1389500Y10095600D03*
X1388700Y10015700D03*
X1388100Y9918600D03*
X1456200Y11274000D03*
X1521300Y11347500D03*
X1585300Y11274600D03*
X1569000Y12037100D03*
X1557220Y13017400D03*
X1716100Y9812000D03*
X1697050Y9947450D03*
X1717100Y10030500D03*
X1714900Y11267100D03*
X1789000Y11344600D03*
X1910400Y9530100D03*
X1911100Y9634100D03*
X1922900Y9840500D03*
X1929200Y9738700D03*
X1902700Y9943900D03*
X1849900Y10094700D03*
X1819690Y11267090D03*
X1840980Y11186280D03*
X1941100Y14966100D03*
X2170200Y11059900D03*
X2073300Y11278500D03*
X2076600Y11386900D03*
X2071800Y11495300D03*
X2063800Y11604700D03*
X2153200Y14972300D03*
X2283900Y1966600D03*
X2383900D03*
X2283900Y2066600D03*
X2383900D03*
X2283900Y2166600D03*
X2383900D03*
X2283900Y2266600D03*
X2383900D03*
X2283900Y2366600D03*
X2383900D03*
X2370700Y9860600D03*
X2352400Y13949400D03*
Y14049400D03*
Y14149400D03*
X2252500Y15387500D03*
X2352500D03*
X2252500Y15487500D03*
X2352500D03*
X2252500Y15587500D03*
X2352500D03*
X2252500Y15687500D03*
X2352500D03*
X2252500Y15787500D03*
X2352500D03*
X2459900Y9944000D03*
X2452400Y13949400D03*
Y14049400D03*
Y14149400D03*
X3043500Y9512200D03*
X3531600Y9962000D03*
X3594700Y10441900D03*
X3858300Y9659100D03*
X3902200Y9784100D03*
X3904200Y10027100D03*
X3880400Y10756600D03*
X3883700Y10969500D03*
X3880510Y10858190D03*
X3875700Y11184500D03*
X3742900Y11369900D03*
X3743200Y11270100D03*
X3869100Y11561900D03*
X5315300Y254300D03*
X5464990Y396510D03*
X5561300Y5660100D03*
X5465700Y7686600D03*
X5544200Y13581500D03*
X5468200Y15567500D03*
X5549000Y17598700D03*
X5523400Y19583800D03*
X5705200Y3538800D03*
X6005100Y9503000D03*
X6067600Y10020100D03*
X6312800Y9718900D03*
X7056000Y4234300D03*
X7056900Y6212900D03*
X7055200Y8186500D03*
X7066800Y14337500D03*
X7034900Y16346100D03*
X7038000Y18377000D03*
X7059900Y20358800D03*
X7917100Y13122700D03*
X8072900Y15075400D03*
X8067000Y17019100D03*
X8078500Y19018800D03*
X8275700Y9995700D03*
X8373500Y9939500D03*
X8373900Y10313900D03*
X8475900Y9777300D03*
X8522700Y10403500D03*
X8621400Y10597800D03*
X8905200Y9807000D03*
X8954300Y9904800D03*
X9060200Y10327300D03*
X9197200Y10407800D03*
X9223300Y10553800D03*
X9366200Y9806800D03*
X9485800Y10517200D03*
G54D13*
X809300Y8525100D03*
Y8779100D03*
X874600Y10020400D03*
Y10274400D03*
Y10528400D03*
Y10782400D03*
Y11036400D03*
X878700Y12182800D03*
Y12436800D03*
Y12690800D03*
G54D14*
X2615200Y20909210D03*
Y21329210D03*
X3035200Y20909210D03*
Y21329210D03*
X3455200Y20909210D03*
Y21329210D03*
G54D15*
X4064900Y10768700D03*
X3964200Y11270300D03*
X4276630Y9876630D03*
X4176630Y9776630D03*
X4276630Y10076630D03*
Y9976630D03*
X4176630Y10076630D03*
Y10176630D03*
X4276630Y10276630D03*
Y10176630D03*
Y10476630D03*
Y10376630D03*
X4176630Y10476630D03*
X4276630Y10661770D03*
X4176630D03*
Y10861770D03*
X4276630D03*
Y10761770D03*
Y11161770D03*
Y11061770D03*
X4176630D03*
Y11161770D03*
Y10961770D03*
X4276630D03*
Y11261770D03*
X4376630Y9876630D03*
X4476630D03*
X4376630Y10076630D03*
X4476630Y9976630D03*
X4376630D03*
X4476630Y10076630D03*
Y10276630D03*
X4376630D03*
Y10176630D03*
X4476630D03*
Y10376630D03*
X4376630D03*
X4476630Y10476630D03*
X4376630D03*
Y10661770D03*
X4476630D03*
Y10861770D03*
X4376630Y10761770D03*
X4476630Y11061770D03*
Y11161770D03*
X4376630Y11061770D03*
Y11161770D03*
Y10961770D03*
X4476630D03*
Y11261770D03*
X4376630D03*
X4676630Y9876630D03*
X4576630D03*
X4676630Y9976630D03*
Y10076630D03*
X4576630D03*
Y9976630D03*
Y10176630D03*
Y10276630D03*
X4676630Y10176630D03*
Y10276630D03*
Y10376630D03*
Y10476630D03*
X4576630D03*
Y10376630D03*
Y10661770D03*
X4676630D03*
X4576630Y10861770D03*
X4676630Y10761770D03*
Y10861770D03*
X4576630Y10961770D03*
X4676630Y11161770D03*
X4576630D03*
X4676630Y11061770D03*
X4576630D03*
X4676630Y10961770D03*
Y11261770D03*
X4576630D03*
X4876630Y9876630D03*
X4776630D03*
X4876630Y10076630D03*
X4776630Y9976630D03*
X4876630D03*
X4776630Y10076630D03*
X4876630Y10276630D03*
X4776630Y10176630D03*
X4876630D03*
X4776630Y10276630D03*
X4876630Y10476630D03*
X4776630Y10376630D03*
X4876630D03*
X4776630Y10476630D03*
Y10661770D03*
X4876630D03*
Y10761770D03*
X4776630D03*
Y11061770D03*
X4876630Y11161770D03*
X4776630D03*
X4876630Y11061770D03*
Y10961770D03*
X4776630D03*
X4876630Y11261770D03*
X4776630D03*
X5061770Y9876630D03*
X5161770D03*
Y9976630D03*
X5061770Y10076630D03*
X5161770D03*
X5061770Y9976630D03*
X5161770Y10276630D03*
X5061770D03*
Y10176630D03*
X5161770D03*
X5061770Y10376630D03*
X5161770Y10476630D03*
X5061770D03*
X5161770Y10376630D03*
X5061770Y10661770D03*
X5161770D03*
Y10761770D03*
X5061770Y10861770D03*
Y10761770D03*
X5161770Y10961770D03*
X5061770Y11161770D03*
X5161770D03*
X5061770Y11061770D03*
X5161770D03*
X5061770Y10961770D03*
Y11261770D03*
X5161770Y11361770D03*
Y11261770D03*
X5261770Y9676630D03*
Y9776630D03*
Y9876630D03*
X5361770D03*
Y9976630D03*
X5261770Y10076630D03*
Y9976630D03*
X5361770Y10076630D03*
Y10276630D03*
X5261770D03*
Y10176630D03*
X5361770Y10376630D03*
X5261770D03*
X5361770Y10661770D03*
X5261770D03*
X5361770Y10961770D03*
X5261770D03*
X5361770Y11261770D03*
X5261770D03*
X5465300Y9664100D03*
X5463200Y9769400D03*
X5461770Y9876630D03*
Y10276630D03*
X5561770Y10176630D03*
X5461770D03*
Y10376630D03*
X5561770Y10476630D03*
X5461770D03*
X5561770Y10961770D03*
X5461770D03*
Y11261770D03*
X5661770Y9876630D03*
X5761770D03*
X5661770Y10176630D03*
X5761770D03*
Y10376630D03*
Y10861770D03*
X5661770Y10976630D03*
X5761770Y11361770D03*
X5661770Y11261770D03*
G54D16*
X7353700Y15625100D03*
Y17645200D03*
X7370000Y3500000D03*
Y5500000D03*
Y7500000D03*
Y13639200D03*
Y19639200D03*
X14685000Y3500000D03*
Y5500000D03*
Y7500000D03*
Y13639200D03*
X14668700Y15625100D03*
Y17645200D03*
X14685000Y19639200D03*
M02*
