G04 ================== begin FILE IDENTIFICATION RECORD ==================*
G04 Layout Name:  pcie-pcie_3.brd*
G04 Film Name:    SOLDERB*
G04 File Format:  Gerber RS274X*
G04 File Origin:  Cadence Allegro 25.1-S010*
G04 Origin Date:  Mon May 11 22:08:53 2026*
G04 *
G04 Layer:  VIA CLASS/SOLDERMASK_BOTTOM*
G04 Layer:  PIN/SOLDERMASK_BOTTOM*
G04 Layer:  DRC ERROR CLASS/SOLDERMASK_BOTTOM*
G04 *
G04 Offset:    (0.0000 0.0000)*
G04 Mirror:    No*
G04 Mode:      Positive*
G04 Rotation:  0*
G04 FullContactRelief:  No*
G04 UndefLineWidth:     0.1000*
G04 ================== end FILE IDENTIFICATION RECORD ====================*
%FSLAX25Y25*MOMM*%
%IR0*IPPOS*OFA0.00000B0.00000*MIA0B0*SFA1.00000B1.00000*%
%ADD15R,.5588X.5588*%
%ADD10C,2.032*%
%ADD16R,.47X.42*%
%ADD14R,.42X.47*%
%ADD12C,1.57*%
%ADD13C,2.3622*%
%ADD11R,1.57X1.57*%
%LPD*%
G75*
G54D10*
X508000Y533400D03*
Y21590000D03*
X15240000Y21844000D03*
G54D11*
X809300Y8525100D03*
X874600Y11036400D03*
X878700Y12690800D03*
G54D12*
X809300Y8779100D03*
X874600Y10020400D03*
Y10274400D03*
Y10528400D03*
Y10782400D03*
X878700Y12182800D03*
Y12436800D03*
G54D13*
X2615200Y20909210D03*
Y21329210D03*
X3035200Y20909210D03*
Y21329210D03*
X3455200Y20909210D03*
Y21329210D03*
G54D14*
X3933400Y10718400D03*
X3998400D03*
X3933300Y10818700D03*
X3998300D03*
X4283300Y10615300D03*
X4218300D03*
X4437200Y10616900D03*
X4502200D03*
X4495800Y11004100D03*
X4560800D03*
G54D15*
X4087100Y11550100D03*
Y11656780D03*
X4313720Y10219400D03*
X4221500Y10924100D03*
Y10817420D03*
X4320570Y10922800D03*
Y10816120D03*
X4299100Y11549900D03*
X4228500Y11549800D03*
X4157600D03*
X4299100Y11656580D03*
X4228500Y11656480D03*
X4157600D03*
X4392200Y9587500D03*
Y9480820D03*
X4463000Y9587500D03*
Y9480820D03*
X4533400Y9587500D03*
Y9480820D03*
X4514320Y10219900D03*
X4420400Y10219400D03*
X4520500Y10714600D03*
Y10821280D03*
X4414400Y10915100D03*
X4521080D03*
X4510700Y11550200D03*
X4440200D03*
X4369700D03*
X4510700Y11656880D03*
X4440200D03*
X4369700D03*
X4604000Y9587500D03*
Y9480820D03*
X4674900Y9587500D03*
Y9480820D03*
X4745400Y9587500D03*
Y9480820D03*
X4712920Y10219900D03*
X4621000D03*
X4620500Y10716100D03*
X4719800Y10719900D03*
Y10613220D03*
X4620500Y10822780D03*
X4714100Y10918900D03*
X4722800Y11550200D03*
X4652200D03*
X4581300D03*
X4722800Y11656880D03*
X4652200D03*
X4581300D03*
X4816000Y9587500D03*
Y9480820D03*
X4886900Y9587500D03*
Y9480820D03*
X4957600Y9587600D03*
Y9480920D03*
X4821600Y9814400D03*
Y9921080D03*
X4818800Y10312720D03*
X4819600Y10219900D03*
X4918400Y10319800D03*
Y10213120D03*
X4818800Y10419400D03*
X4920100Y10520100D03*
Y10413420D03*
X4917620Y10620500D03*
X4919800Y10720100D03*
X4819800Y10612800D03*
Y10719480D03*
X4935200Y10930500D03*
Y10823820D03*
X4820780Y10918900D03*
X4917420Y11218600D03*
X4934500Y11550300D03*
X4864000D03*
X4793400Y11550200D03*
X4934500Y11656980D03*
X4864000D03*
X4793400Y11656880D03*
X5028100Y9587600D03*
Y9480920D03*
X5098500Y9587500D03*
Y9480820D03*
X5169000Y9587500D03*
Y9480820D03*
X5111500Y9820000D03*
Y9926680D03*
X5017800Y10217200D03*
X5124480D03*
X5020100Y10412600D03*
Y10519280D03*
X5119800Y10519000D03*
Y10412320D03*
Y10719300D03*
Y10612620D03*
X5024300Y10620500D03*
X5026480Y10720100D03*
X5012100Y10818500D03*
X5118780D03*
X5116600Y10917300D03*
X5024100Y11218600D03*
X5146900Y11550300D03*
X5076100Y11550500D03*
X5005100Y11550300D03*
X5146900Y11656980D03*
X5076100Y11657180D03*
X5005100Y11656980D03*
X5309320Y9713400D03*
X5307220Y9818700D03*
X5306400Y10220100D03*
X5316000Y10918400D03*
X5223280Y10917300D03*
X5416000Y9713400D03*
X5413900Y9818700D03*
X5413080Y10220100D03*
X5519900Y10216600D03*
X5523300Y10530000D03*
X5416620D03*
X5422680Y10918400D03*
X5516700Y10918200D03*
X5626580Y10216600D03*
X5623380Y10918200D03*
X5979500Y623500D03*
Y730180D03*
X6050500Y623500D03*
Y730180D03*
X6279600Y534820D03*
X6351000Y534620D03*
X6279600Y641500D03*
X6351000Y641300D03*
X6779800Y536020D03*
X6850300D03*
X6779800Y642700D03*
X6850300D03*
G54D16*
X4218600Y10196600D03*
Y10131600D03*
M02*
